<svg width="160" height="38" viewBox="0 0 160 38" fill="none" xmlns="http://www.w3.org/2000/svg">
<path d="M73.2243 12.1564V20.1053C72.2984 19.1817 70.8966 18.6521 69.2928 18.6521C65.5612 18.6521 62.8525 21.5303 62.8525 25.4961C62.8525 29.4772 65.5722 32.3676 69.3198 32.3676C70.8556 32.3676 72.2894 31.8045 73.2243 30.8798V32.1002H76.4989V12.1564H73.2243ZM73.1983 25.4698C73.1983 27.9085 71.3935 29.1845 69.6097 29.1845C67.657 29.1845 66.1271 27.553 66.1271 25.4698C66.1271 23.3977 67.625 21.8351 69.6097 21.8351C71.3735 21.8351 73.1983 23.1942 73.1983 25.4698Z" fill="#222222"/>
<path d="M88.6559 27.4163L88.4919 27.6856C87.88 28.6923 86.6661 29.2929 85.2443 29.2929C83.6675 29.2929 81.8387 28.4239 81.3238 26.5281H91.2726L91.2986 26.1351C91.3246 25.7533 91.3486 25.3918 91.3486 25.0505C91.3486 21.033 88.6069 18.2267 84.6814 18.2267C80.7079 18.2267 77.8242 21.1079 77.8242 25.0778C77.8242 29.9076 81.4888 32.4344 85.1093 32.4344C87.81 32.4344 90.0857 31.1806 91.1956 29.0792L91.3636 28.7612L88.6559 27.4163ZM81.3598 23.7086C81.7897 22.1956 82.9646 21.3692 84.7094 21.3692C86.4212 21.3692 87.606 22.2351 87.947 23.7086H81.3598Z" fill="#222222"/>
<path d="M101.339 18.5509L98.0338 26.672L94.7272 18.5509H91.1836L96.236 30.8496L93.4583 37.7989H96.9419L104.884 18.5509H101.339Z" fill="#222222"/>
<path d="M110.832 18.6564C106.885 18.6564 104.021 21.5234 104.021 25.4741C104.021 29.4066 106.949 32.3719 110.832 32.3719C114.729 32.3719 117.668 29.4066 117.668 25.4741C117.668 21.5244 114.792 18.6564 110.832 18.6564ZM114.393 25.1298C114.393 27.2474 112.862 28.8445 110.832 28.8445C108.816 28.8445 107.296 27.2474 107.296 25.1298C107.296 23.0425 108.816 21.4677 110.832 21.4677C112.862 21.4687 114.393 23.0425 114.393 25.1298Z" fill="#222222"/>
<path d="M127.933 25.9688C127.933 28.2768 126.199 29.0951 124.714 29.0951C123.223 29.0951 122.26 27.972 122.26 26.2352V18.9374H118.986V26.4195C118.972 28.3437 119.503 29.9114 120.523 30.9525C121.441 31.8893 122.744 32.3845 124.291 32.3845C125.311 32.3845 126.911 31.9865 127.933 30.9515V32.1171H131.207V18.9384H127.933V25.9688Z" fill="#222222"/>
<path d="M140.074 18.6564C139.048 18.6564 137.435 19.0605 136.406 20.1107V18.9237H133.132V32.1045H136.406V25.1004C136.406 22.7731 138.14 21.9468 139.625 21.9468C141.116 21.9468 142.079 23.0689 142.079 24.8057V32.1045H145.353V24.6194C145.367 22.6871 144.836 21.1163 143.819 20.0772C142.908 19.1486 141.613 18.6564 140.074 18.6564Z" fill="#222222"/>
<path d="M156.726 18.5917V19.7807C155.783 18.8651 154.36 18.3243 152.795 18.3243C149.063 18.3243 146.354 21.2025 146.354 25.1684C146.354 29.1495 149.074 32.0388 152.822 32.0388C154.327 32.0388 155.75 31.493 156.701 30.5947C156.514 33.5073 155.284 34.8715 152.874 34.8715C151.58 34.8715 150.313 34.0977 149.721 32.9473L149.565 32.6444L146.755 34.0501L146.921 34.3671C148.112 36.6427 150.337 38.0008 152.873 38.0008C157.601 38.0008 160 35.1581 160 29.5526V18.5917H156.726ZM156.7 25.1411C156.7 27.5797 154.895 28.8558 153.112 28.8558C151.159 28.8558 149.629 27.2243 149.629 25.1411C149.629 23.069 151.127 21.5064 153.112 21.5064C154.876 21.5064 156.7 22.8655 156.7 25.1411Z" fill="#222222"/>
<path d="M46.9634 26.5129C45.8125 27.9439 44.1007 28.7642 42.268 28.7642C38.7904 28.7642 36.0667 25.9002 36.0667 22.2422C36.0667 18.5842 38.7904 15.7202 42.268 15.7202C44.1217 15.7202 45.8325 16.5395 46.9614 17.9685L47.1764 18.2409L49.7191 16.1739L49.5041 15.9025C47.7693 13.7129 45.1226 12.4572 42.242 12.4572C36.9586 12.4572 32.6611 16.8464 32.6611 22.2422C32.6611 27.6371 36.9596 32.0263 42.242 32.0263C45.0076 32.0263 47.5573 30.8687 49.2921 28.8392C50.491 30.8191 52.6677 32.0263 55.1034 32.0263C59.0009 32.0263 61.9396 29.061 61.9396 25.1285C61.9396 21.1788 59.0639 18.3108 55.1034 18.3108C51.8458 18.3108 49.2311 20.3525 48.5042 23.3633C48.3232 24.1117 48.0743 24.8439 47.6883 25.5083C47.5413 25.7605 47.3774 26.0126 47.1964 26.2456L46.9634 26.5129ZM55.1024 28.8442C53.0867 28.8442 51.5668 27.2472 51.5668 25.1295C51.5668 23.0423 53.0867 21.4675 55.1024 21.4675C57.1332 21.4675 58.665 23.0413 58.665 25.1295C58.665 27.2472 57.1332 28.8442 55.1024 28.8442Z" fill="#222222"/>
<path d="M16.204 15.6832L10.5647 14.7009L12.7955 1.57075L3.78054 0L0 22.2599L0.0119986 22.262L16.213 25.0855L16.204 15.6832Z" fill="#FFEB00"/>
<path d="M25.3669 34.339L25.3459 11.752L16.2 11.7601L16.203 15.6935L23.5391 16.9716L21.9883 26.1024L16.212 25.0958L3.05859 25.1079L3.06659 34.3724L25.3669 34.3512V34.339Z" fill="#FFB600"/>
<path d="M23.5392 16.946L16.2031 15.668L16.2121 25.0702L21.9884 26.0769L23.5392 16.946Z" fill="#FF712D"/>
</svg>
