<svg width="32" height="32" viewBox="0 0 32 32" fill="none" xmlns="http://www.w3.org/2000/svg">
<path d="M16 32C24.8366 32 32 24.8366 32 16C32 7.16344 24.8366 0 16 0C7.16344 0 0 7.16344 0 16C0 24.8366 7.16344 32 16 32Z" fill="url(#paint0_linear_438_16011)"/>
<path d="M16.2093 30.0131C23.8907 30.0131 30.1178 23.786 30.1178 16.1046C30.1178 8.42312 23.8907 2.19607 16.2093 2.19607C8.52783 2.19607 2.30078 8.42312 2.30078 16.1046C2.30078 23.786 8.52783 30.0131 16.2093 30.0131Z" fill="url(#paint1_linear_438_16011)"/>
<path d="M7.97396 13.7578C7.90354 9.57294 10.9377 7.53863 12.4636 7.04458C14.2828 6.81209 18.0447 6.39941 18.5376 6.60865C23.6434 8.43954 23.9075 12.6244 23.9956 13.1475C24.2597 15.3271 23.9956 20.2095 23.4674 20.907C18.8017 25.5278 12.7276 23.6969 12.0234 23.4354C5.77318 21.1685 7.88593 14.804 7.97396 13.7578Z" fill="#DFE2EC"/>
<path fill-rule="evenodd" clip-rule="evenodd" d="M18.5891 6.47297C21.176 7.40152 22.5448 8.93046 23.2756 10.3C23.9222 11.5119 24.0668 12.5965 24.1209 13.0025C24.1277 13.0542 24.1332 13.0948 24.138 13.1234L24.1385 13.1267L24.1389 13.13C24.2725 14.2326 24.272 16.0083 24.1727 17.5922C24.123 18.385 24.0484 19.1338 23.9525 19.7299C23.9045 20.0278 23.8509 20.2901 23.7916 20.5019C23.7337 20.7088 23.666 20.8843 23.5823 20.9948L23.5761 21.003L23.5687 21.0103C21.2039 23.3524 18.481 24.0591 16.2646 24.1474C14.0523 24.2355 12.3389 23.708 11.9723 23.5719C10.3858 22.9964 9.32119 22.1573 8.62293 21.1998C7.92534 20.2431 7.59963 19.177 7.4764 18.1563C7.35324 17.1362 7.43185 16.1577 7.54563 15.3717C7.60255 14.9785 7.66844 14.6323 7.7225 14.3534C7.726 14.3353 7.72944 14.3176 7.73282 14.3002C7.78151 14.0492 7.817 13.8663 7.82737 13.7526C7.75934 9.48861 10.8538 7.41257 12.4177 6.9062L12.4306 6.90202L12.4441 6.9003C13.355 6.78389 14.7523 6.62235 15.9844 6.51605C16.6002 6.46292 17.1767 6.42342 17.6312 6.4104C17.8583 6.4039 18.0572 6.40394 18.2165 6.41253C18.3663 6.42061 18.5011 6.43689 18.5891 6.47297ZM12.4945 7.18713C11.0035 7.67578 8.04956 9.66653 8.11837 13.7554L8.11849 13.7627L8.11787 13.77C8.10697 13.8996 8.06802 14.1002 8.0206 14.3443C8.01649 14.3654 8.01232 14.3869 8.0081 14.4087C7.95418 14.6869 7.8894 15.0274 7.83353 15.4134C7.72173 16.1858 7.64628 17.1363 7.76521 18.1214C7.88407 19.1059 8.19659 20.1214 8.85798 21.0283C9.51862 21.9343 10.5336 22.7407 12.072 23.2986L12.073 23.299C12.4118 23.4248 14.0869 23.943 16.253 23.8567C18.4137 23.7707 21.0569 23.084 23.3559 20.8116C23.403 20.7454 23.457 20.618 23.5115 20.4235C23.5667 20.2263 23.6183 19.9757 23.6652 19.6837C23.7591 19.1001 23.833 18.3613 23.8824 17.574C23.9811 15.999 23.9806 14.2455 23.8505 13.1682C23.8454 13.137 23.8397 13.0947 23.8326 13.0423C23.7774 12.6309 23.6386 11.5984 23.0189 10.437C22.3195 9.12622 21.0042 7.64803 18.4875 6.74557L18.4836 6.74417L18.4798 6.74255C18.4445 6.72757 18.3558 6.71137 18.2008 6.70302C18.0529 6.69504 17.8629 6.6948 17.6396 6.70119C17.1932 6.71397 16.6231 6.75293 16.0094 6.80588C14.7886 6.91121 13.4032 7.07117 12.4945 7.18713Z" fill="#466086"/>
<path d="M12.0261 8.94957L12.3611 7.87115C12.3688 7.84624 12.3922 7.82953 12.4183 7.83025L18.6799 8.00251C18.7001 8.00307 18.7186 8.01408 18.7287 8.03159L19.0535 8.59449C19.0606 8.60686 19.0631 8.62087 19.0602 8.63486C18.8529 9.63143 18.4121 11.7035 18.2723 12.1883C18.0082 12.7986 17.7441 12.8858 17.48 12.7986C16.5154 12.4512 14.066 12.7094 13.6989 12.7975C13.6956 12.7983 13.693 12.7993 13.69 12.8006C13.0645 13.0729 12.6743 12.6315 12.5534 12.3696C12.5512 12.3649 12.5498 12.36 12.549 12.3549L12.0241 8.97576C12.0228 8.967 12.0234 8.95804 12.0261 8.94957Z" fill="#99A2C2"/>
<path fill-rule="evenodd" clip-rule="evenodd" d="M12.4813 7.97747L12.1719 8.97341L12.6917 12.3199C12.7446 12.4287 12.852 12.5714 13.0055 12.6591C13.157 12.7457 13.3627 12.7849 13.6328 12.6673C13.6407 12.6638 13.6517 12.6595 13.6658 12.6561L13.6658 12.6561C13.8639 12.6085 14.5798 12.5216 15.3603 12.4894C15.7528 12.4732 16.1663 12.4706 16.5439 12.4943C16.9181 12.5178 17.2676 12.5676 17.5282 12.661C17.628 12.6936 17.711 12.6903 17.7969 12.6336C17.8929 12.5702 18.0095 12.429 18.136 12.1391C18.2751 11.6503 18.7024 9.64412 18.9118 8.63836L18.628 8.14657L12.4813 7.97747ZM18.6037 8.10446L18.6036 8.10429L18.6792 8.06067L18.6036 8.10428C18.6037 8.10434 18.6037 8.1044 18.6037 8.10446ZM18.9284 8.66718C18.9284 8.66714 18.9284 8.66709 18.9283 8.66704L18.9284 8.66718ZM12.2231 7.82799C12.2502 7.74084 12.332 7.68234 12.4232 7.68485L18.6848 7.85711C18.7556 7.85906 18.8202 7.8976 18.8556 7.9589L19.1804 8.5218C19.2046 8.56377 19.214 8.61406 19.2035 8.66448C18.997 9.65738 18.5548 11.737 18.413 12.2286L18.4104 12.2375L18.4067 12.246C18.2706 12.5606 18.1244 12.766 17.9572 12.8764C17.7795 12.9937 17.5989 12.9907 17.4353 12.9367L17.4316 12.9355L17.4316 12.9354C17.2102 12.8557 16.8927 12.8077 16.5257 12.7846C16.1614 12.7618 15.7587 12.7641 15.3723 12.7801C14.6068 12.8116 13.9235 12.8958 13.7417 12.9371C13.3895 13.088 13.0899 13.0424 12.8612 12.9117C12.6385 12.7844 12.4924 12.5824 12.4223 12.4306L12.4223 12.4306C12.4139 12.4125 12.4089 12.3945 12.4062 12.3772L12.55 12.3549L12.4062 12.3772L11.8813 8.99809C11.8766 8.96741 11.8789 8.93606 11.8881 8.90641L12.0257 8.94918L11.8881 8.90641L12.2231 7.82799Z" fill="#466086"/>
<path d="M12.9914 12.7114C12.6981 11.4036 12.3402 8.38702 12.3402 8.17778L12.1113 8.96244C12.258 9.95054 12.569 12.0837 12.6394 12.3627C12.6727 12.4949 12.8154 12.6242 12.9914 12.7114Z" fill="#D9D9D9"/>
<path d="M18.3611 6.26001C15.9843 5.38789 13.6955 5.99856 12.9032 6.43438L12.375 7.74224L13.3433 10.3578H17.5688L18.8013 7.74224C18.6839 7.33534 18.4316 6.46925 18.3611 6.26001Z" fill="#DFE2EC"/>
<path fill-rule="evenodd" clip-rule="evenodd" d="M13.018 6.53773L12.5306 7.7445L13.4443 10.2123H17.4763L18.646 7.72985C18.5339 7.34173 18.33 6.6428 18.2444 6.3726C15.9803 5.56789 13.811 6.12518 13.018 6.53773ZM12.8328 6.3069C13.6571 5.85348 15.9896 5.235 18.4109 6.12343L18.4764 6.14746L18.4987 6.21358C18.5704 6.42671 18.8239 7.29703 18.9407 7.7019L18.9559 7.7546L17.6608 10.5032H13.2418L12.2188 7.73994L12.7874 6.33186L12.8328 6.3069Z" fill="#466086"/>
<path d="M17.9993 6.16104C16.1659 5.71158 14.0263 5.91619 13.1505 6.41617C13.0498 6.47365 13.0095 6.59378 13.031 6.70771C13.052 6.8186 13.0724 6.94023 13.0942 7.04772C13.1245 7.19648 13.2759 7.26057 13.4185 7.2086C15.1713 6.56996 16.7988 6.79279 17.5987 7.04692C17.7354 7.09037 17.8879 7.04094 17.9622 6.91823L18.1668 6.58069C18.2653 6.41811 18.1839 6.2063 17.9993 6.16104Z" fill="white"/>
<path d="M13.7511 9.12993L12.9183 6.65541C12.8834 6.55182 12.7379 6.5491 12.6992 6.65133L12.3255 7.63819C12.3002 7.70496 12.3004 7.77869 12.3259 7.84535L13.2283 10.1988C13.2672 10.3002 13.4115 10.2978 13.4469 10.1952L13.7503 9.3178C13.7714 9.25698 13.7716 9.19091 13.7511 9.12993Z" fill="url(#paint2_linear_438_16011)"/>
<path fill-rule="evenodd" clip-rule="evenodd" d="M12.564 6.59982C12.6511 6.36982 12.9786 6.37592 13.057 6.60901L12.9192 6.65541M12.8073 6.77894L12.4624 7.68969C12.4498 7.72308 12.4499 7.75994 12.4627 7.79327L13.3365 10.0722L13.6138 9.27026C13.6243 9.23985 13.6244 9.20682 13.6142 9.17633L12.8073 6.77894ZM12.564 6.59982L12.1904 7.58668L12.564 6.59982ZM13.057 6.60901L13.8899 9.08353C13.9207 9.17501 13.9203 9.27411 13.8887 9.36533L13.5853 10.2427C13.5055 10.4736 13.1809 10.479 13.0934 10.2509L12.191 7.89742C12.1527 7.79743 12.1525 7.68683 12.1904 7.58668" fill="#466086"/>
<path d="M16.8302 9.13681H13.8236C13.7991 9.13681 13.7772 9.15219 13.7689 9.17526L13.3707 10.2795C13.357 10.3174 13.3851 10.3574 13.4254 10.3574H17.4673C17.5121 10.3574 17.5401 10.3089 17.5177 10.2701L16.8806 9.16592C16.8702 9.14791 16.851 9.13681 16.8302 9.13681Z" fill="url(#paint3_linear_438_16011)"/>
<path fill-rule="evenodd" clip-rule="evenodd" d="M13.6331 9.12592C13.6622 9.04517 13.7388 8.99136 13.8247 8.99136H16.8313C16.9041 8.99136 16.9713 9.03019 17.0077 9.09323L17.6448 10.1975C17.7231 10.3332 17.6251 10.5029 17.4684 10.5029H13.4265C13.2854 10.5029 13.187 10.3629 13.2349 10.2301L13.6331 9.12592ZM13.886 9.28227L13.5507 10.2119H17.3173L16.7809 9.28227H13.886Z" fill="#466086"/>
<path d="M16.9395 8.99206L18.2915 6.39291C18.316 6.34577 18.3857 6.35347 18.3993 6.40482L18.7734 7.81291C18.7912 7.8796 18.7846 7.95043 18.7549 8.01273L17.6678 10.2947C17.6479 10.3365 17.5894 10.3394 17.5654 10.2997L16.9485 9.27653C16.8961 9.18974 16.8927 9.08197 16.9395 8.99206Z" fill="url(#paint4_linear_438_16011)"/>
<path d="M16.9395 8.99206L18.2915 6.39291C18.316 6.34577 18.3857 6.35347 18.3993 6.40482L18.7734 7.81291C18.7912 7.8796 18.7846 7.95043 18.7549 8.01273L17.6678 10.2947C17.6479 10.3365 17.5894 10.3394 17.5654 10.2997L16.9485 9.27653C16.8961 9.18974 16.8927 9.08197 16.9395 8.99206Z" fill="url(#paint5_linear_438_16011)"/>
<path fill-rule="evenodd" clip-rule="evenodd" d="M18.539 6.36747C18.4912 6.18773 18.2473 6.1608 18.1615 6.3258L16.8095 8.92494C16.7394 9.05981 16.7445 9.22146 16.823 9.35164L17.44 10.3748C17.5237 10.5137 17.7284 10.5037 17.7982 10.3572L18.8853 8.07529C18.9298 7.98184 18.9397 7.8756 18.9131 7.77555L18.539 6.36747ZM18.3156 6.65985L18.6319 7.85026C18.6408 7.88361 18.6375 7.91902 18.6227 7.95017L17.6053 10.0857L17.0721 9.20142C17.0459 9.15803 17.0442 9.10414 17.0676 9.05919L18.3156 6.65985Z" fill="#466086"/>
<path d="M5.94727 16.8091C5.94728 19.6862 7.5906 20.7033 8.50025 20.8196C9.29245 16.3732 8.23609 14.2807 8.06002 13.7576C5.94727 14.1935 5.94726 15.9372 5.94727 16.8091Z" fill="#C4C7D4"/>
<path fill-rule="evenodd" clip-rule="evenodd" d="M8.15771 13.5891L8.1988 13.7112C8.21376 13.7557 8.23611 13.8137 8.26379 13.8855C8.39124 14.2163 8.63193 14.841 8.78771 15.7939C8.97758 16.9553 9.0432 18.6066 8.64438 20.8451L8.62009 20.9814L8.48274 20.9639C7.49382 20.8375 5.80275 19.7525 5.80273 16.8091L5.80273 16.8014C5.80272 16.368 5.8027 15.6887 6.07917 15.0612C6.36255 14.4181 6.92981 13.8425 8.03155 13.6152L8.15771 13.5891ZM6.34539 15.1785C6.09532 15.7461 6.09364 16.3702 6.09364 16.8091C6.09366 19.4724 7.52613 20.4644 8.38289 20.6515C8.74841 18.5163 8.6809 16.9436 8.50061 15.8408C8.35046 14.9224 8.12335 14.3314 7.99425 13.9955C7.98502 13.9715 7.97629 13.9488 7.96813 13.9274C7.03947 14.1511 6.58013 14.6458 6.34539 15.1785Z" fill="#466086"/>
<path d="M7.26848 8.78791L7.53254 13.7576H8.06073C7.99031 11.8047 8.82367 10.2702 9.29317 9.57274L8.76498 9.04963C8.67695 8.52646 8.48328 7.42782 8.41286 7.21858C8.23679 6.69547 7.53257 6.78265 7.35651 6.86984C6.93396 7.14883 6.94569 8.0323 7.00438 8.43917L7.26848 8.78791Z" fill="#DFE2EC"/>
<path fill-rule="evenodd" clip-rule="evenodd" d="M7.42939 6.99678C7.27902 7.10195 7.18584 7.33208 7.14498 7.62654C7.10718 7.89894 7.11957 8.18756 7.1443 8.38178L7.41228 8.73565L7.6714 13.6122H7.91258C7.88831 11.7766 8.63379 10.323 9.10699 9.59215L8.63024 9.11999L8.62247 9.07376C8.57855 8.81275 8.50827 8.40817 8.44024 8.04302C8.37097 7.67119 8.307 7.35731 8.27592 7.26498C8.21176 7.07435 8.05363 6.98736 7.86423 6.95922C7.76973 6.94518 7.67345 6.94739 7.59091 6.95821C7.51345 6.96836 7.45713 6.98487 7.42939 6.99678ZM7.90698 6.67147C8.15772 6.70872 8.43973 6.8397 8.55163 7.17218C8.59098 7.28909 8.65906 7.62915 8.72623 7.98974C8.79075 8.33606 8.85718 8.7171 8.90154 8.97924L9.48198 9.5541L9.41476 9.65396C8.95381 10.3387 8.13815 11.8426 8.20701 13.7524L8.21245 13.9031H7.39553L7.12652 8.84016L6.8667 8.49707L6.86134 8.45993C6.83053 8.24634 6.81199 7.90967 6.85683 7.58656C6.90033 7.27313 7.00991 6.92499 7.27729 6.74845L7.28481 6.74349L7.29288 6.73949C7.35674 6.70787 7.45119 6.68312 7.5531 6.66976C7.65762 6.65606 7.78141 6.65282 7.90698 6.67147Z" fill="#466086"/>
<path fill-rule="evenodd" clip-rule="evenodd" d="M8.61131 7.73378C8.66392 7.79449 8.65735 7.88635 8.59665 7.93896L7.81147 8.61938L7.01618 8.1271C6.94788 8.08482 6.92678 7.99517 6.96906 7.92687C7.01134 7.85856 7.10099 7.83746 7.1693 7.87975L7.78265 8.25941L8.40613 7.71911C8.46684 7.6665 8.5587 7.67307 8.61131 7.73378Z" fill="#466086"/>
<path fill-rule="evenodd" clip-rule="evenodd" d="M7.7816 8.29478C7.86143 8.28583 7.93341 8.34328 7.94236 8.42312C8.02886 9.19436 8.28981 10.2301 8.55173 11.0085C8.57735 11.0846 8.5364 11.1671 8.46026 11.1927C8.38412 11.2184 8.30163 11.1774 8.27601 11.1013C8.00989 10.3104 7.74278 9.25362 7.65326 8.45554C7.64431 8.37571 7.70177 8.30373 7.7816 8.29478Z" fill="#466086"/>
<path d="M12.6391 6.86987C10.2953 7.78849 8.96963 9.66544 8.59082 10.529C8.59006 10.5308 8.58951 10.5324 8.58905 10.5342L8.44449 11.1069C8.43583 11.1412 8.4788 11.1665 8.50515 11.1426C9.27344 10.4469 11.1312 9.41883 12.0097 8.969C12.0184 8.96454 12.0243 8.95728 12.027 8.94793C12.1686 8.44406 12.4848 7.37771 12.6955 6.85831C12.7071 6.82972 12.668 6.85853 12.6391 6.86987Z" fill="#99A2C2"/>
<path d="M8.14962 13.6704C8.07919 8.92757 11.172 7.2478 12.7272 6.87C10.2623 8.26496 9.82221 10.8805 9.29402 13.5832C8.87147 15.7454 9.23536 19.8896 9.29405 21.6043C9.17667 21.5461 8.6602 21.0114 8.58978 20.7324C9.4701 16.3732 8.41371 14.2807 8.14962 13.6704Z" fill="white"/>
<path fill-rule="evenodd" clip-rule="evenodd" d="M7.91602 13.6704C7.91602 9.19495 10.9991 7.23589 12.6023 6.81647L12.6759 7.0979C11.1687 7.49221 8.20692 9.35766 8.20692 13.6704H7.91602Z" fill="#466086"/>
<path d="M8.50142 20.8196C9.46976 16.8091 8.50142 14.7166 8.06127 13.6704C6.56473 14.1935 6.38867 14.8038 6.38867 14.891C6.65277 15.4141 6.7408 18.9015 6.65277 19.4246C7.00489 20.2965 8.23733 20.8196 8.50142 20.8196Z" fill="url(#paint6_linear_438_16011)"/>
<path fill-rule="evenodd" clip-rule="evenodd" d="M8.14129 13.488L8.19431 13.614C8.20762 13.6457 8.22145 13.6783 8.23572 13.712C8.45708 14.2351 8.78406 15.0076 8.95229 16.1115C9.1314 17.2866 9.13007 18.8314 8.64178 20.8537L8.61491 20.965H8.50039C8.40432 20.965 8.25522 20.9225 8.09607 20.8595C7.92988 20.7936 7.73225 20.6971 7.5322 20.5725C7.13629 20.3261 6.70978 19.9567 6.51687 19.4791L6.50148 19.441L6.5083 19.4005C6.52789 19.2841 6.53929 18.9811 6.53929 18.5691C6.53929 18.1628 6.52835 17.6636 6.50642 17.1642C6.48449 16.6645 6.45165 16.1666 6.40808 15.7621C6.38629 15.5597 6.36201 15.3827 6.33547 15.2414C6.3081 15.0957 6.28071 15.002 6.2578 14.9566L6.24219 14.9257V14.891C6.24219 14.8369 6.26388 14.7587 6.30915 14.6706C6.3567 14.5781 6.435 14.465 6.56039 14.3408C6.81094 14.0927 7.24981 13.7996 8.01224 13.5331L8.14129 13.488ZM6.53866 14.8728C6.57172 14.9555 6.59844 15.0656 6.62138 15.1877C6.64986 15.3393 6.6751 15.5246 6.69732 15.7309C6.74179 16.1438 6.77497 16.6485 6.79705 17.1514C6.81914 17.6547 6.8302 18.1581 6.8302 18.5691C6.8302 18.9381 6.82142 19.2439 6.80142 19.4053C6.96768 19.7839 7.32276 20.0995 7.68595 20.3256C7.87103 20.4408 8.05305 20.5295 8.20321 20.589C8.27829 20.6187 8.34123 20.6395 8.39042 20.6531C8.83891 18.7302 8.83387 17.2652 8.66471 16.1553C8.50517 15.1086 8.19923 14.3727 7.9799 13.854C7.32718 14.0969 6.96403 14.3505 6.76509 14.5475C6.6594 14.6522 6.60015 14.7408 6.56792 14.8035C6.552 14.8345 6.54335 14.8578 6.53866 14.8728Z" fill="#466086"/>
<path d="M25.9922 16.8091C25.9922 19.6862 24.2603 20.3837 23.4392 20.8196C22.647 16.3732 23.7034 14.2807 23.8794 13.7576C25.9922 14.1935 25.9922 15.9372 25.9922 16.8091Z" fill="#C4C7D4"/>
<path fill-rule="evenodd" clip-rule="evenodd" d="M23.7817 13.5891L23.7407 13.7112C23.7257 13.7557 23.7033 13.8137 23.6757 13.8855C23.5482 14.2163 23.3075 14.841 23.1517 15.7939C22.9619 16.9553 22.8962 18.6066 23.2951 20.8451L23.3301 21.0417L23.5065 20.9481C23.5568 20.9214 23.6113 20.8933 23.6692 20.8636C24.0729 20.6559 24.6434 20.3626 25.1302 19.8277C25.6926 19.2098 26.1367 18.2802 26.1367 16.8091L26.1367 16.8014C26.1367 16.368 26.1368 15.6887 25.8603 15.0612C25.5769 14.4181 25.0096 13.8425 23.9079 13.6152L23.7817 13.5891ZM25.5941 15.1785C25.8441 15.7461 25.8458 16.3702 25.8458 16.8091C25.8458 18.215 25.424 19.0727 24.9151 19.6319C24.4692 20.1218 23.9512 20.3906 23.5476 20.5988C23.1922 18.4904 23.26 16.9345 23.4388 15.8408C23.589 14.9224 23.8161 14.3314 23.9452 13.9955C23.9544 13.9715 23.9632 13.9488 23.9713 13.9274C24.9 14.1511 25.3593 14.6457 25.5941 15.1785Z" fill="#466086"/>
<path d="M24.671 8.78791L24.4069 13.7576H23.9074C23.9074 11.7524 23.1158 10.2702 22.6463 9.57274L23.1745 9.04963C23.2625 8.52646 23.4562 7.42782 23.5266 7.21858C23.7027 6.69547 24.4069 6.78265 24.5829 6.86984C25.0055 7.14883 24.9938 8.0323 24.9351 8.43917L24.671 8.78791Z" fill="#DFE2EC"/>
<path fill-rule="evenodd" clip-rule="evenodd" d="M24.5101 6.99678C24.6604 7.10195 24.7536 7.33208 24.7945 7.62654C24.8323 7.89894 24.8199 8.18756 24.7951 8.38178L24.5272 8.73565L24.2681 13.6122H24.0506C24.0153 11.7328 23.3041 10.3216 22.8324 9.59218L23.3092 9.11999L23.317 9.07376C23.3609 8.81275 23.4312 8.40817 23.4992 8.04302C23.5685 7.67119 23.6325 7.35731 23.6635 7.26498C23.7277 7.07435 23.8858 6.98736 24.0752 6.95922C24.1697 6.94518 24.266 6.94739 24.3485 6.95821C24.426 6.96836 24.4823 6.98487 24.5101 6.99678ZM24.0325 6.67147C23.7817 6.70872 23.4997 6.8397 23.3878 7.17218C23.3485 7.28909 23.2804 7.62915 23.2132 7.98974C23.1487 8.33606 23.0823 8.7171 23.0379 8.97924L22.4575 9.5541L22.5247 9.65396C22.9843 10.3368 23.7611 11.7908 23.7611 13.7576V13.9031H24.5439L24.8129 8.84016L25.0728 8.49707L25.0781 8.45993C25.1089 8.24634 25.1275 7.90967 25.0826 7.58656C25.0391 7.27313 24.9295 6.92499 24.6622 6.74845L24.6546 6.74349L24.6466 6.73949C24.5827 6.70787 24.4883 6.68312 24.3864 6.66976C24.2818 6.65606 24.158 6.65282 24.0325 6.67147Z" fill="#466086"/>
<path fill-rule="evenodd" clip-rule="evenodd" d="M23.3281 7.73378C23.2755 7.79449 23.2821 7.88635 23.3428 7.93896L24.128 8.61938L24.9233 8.1271C24.9916 8.08482 25.0127 7.99517 24.9704 7.92687C24.9281 7.85856 24.8385 7.83746 24.7702 7.87975L24.1568 8.25941L23.5333 7.71911C23.4726 7.6665 23.3808 7.67307 23.3281 7.73378Z" fill="#466086"/>
<path fill-rule="evenodd" clip-rule="evenodd" d="M24.1417 8.29387C24.0613 8.29387 23.9962 8.359 23.9962 8.43933C23.9962 8.91045 23.8894 9.52204 23.7578 10.1029C23.643 10.6094 23.5115 11.0838 23.4213 11.4096C23.4084 11.456 23.3964 11.4994 23.3854 11.5394C23.364 11.6168 23.4095 11.6969 23.487 11.7182C23.5644 11.7395 23.6445 11.694 23.6658 11.6166C23.6767 11.577 23.6887 11.534 23.7015 11.4878C23.7917 11.1624 23.9251 10.681 24.0415 10.1672C24.1739 9.58274 24.2871 8.94468 24.2871 8.43933C24.2871 8.359 24.222 8.29387 24.1417 8.29387Z" fill="#466086"/>
<path d="M18.7118 7.99475L18.3842 6.5349C18.3743 6.49066 18.4183 6.45321 18.4612 6.468C22.4382 7.83959 23.2188 10.1674 23.4696 11.0914C23.4866 11.154 23.3868 11.2064 23.3425 11.159C22.1617 9.89309 20.0356 8.92855 19.0865 8.62037C19.0728 8.6159 19.0619 8.60676 19.0546 8.59423L18.7182 8.01109C18.7152 8.006 18.7131 8.00049 18.7118 7.99475Z" fill="#99A2C2"/>
<path fill-rule="evenodd" clip-rule="evenodd" d="M18.56 6.65715L18.8501 7.94992L19.1633 8.49269C19.6491 8.65346 20.4097 8.9709 21.1969 9.40302C21.916 9.79775 22.6654 10.2925 23.2488 10.857C23.102 10.3938 22.8294 9.73607 22.2502 9.04062C21.5632 8.21566 20.4378 7.32945 18.56 6.65715ZM18.2416 6.56675C18.2052 6.40446 18.3642 6.28092 18.5079 6.33049C20.5186 7.02394 21.7313 7.96292 22.4738 8.85446C23.2161 9.74584 23.4811 10.5812 23.6093 11.0533C23.643 11.1775 23.5557 11.2636 23.4963 11.295C23.4367 11.3266 23.3202 11.349 23.2355 11.2582C22.6601 10.6413 21.8484 10.0925 21.0569 9.65804C20.2664 9.22414 19.506 8.90974 19.0409 8.75872C18.9913 8.74261 18.9523 8.70909 18.9279 8.66692L18.5915 8.08378L18.7157 8.01212L18.7175 8.01109M18.2416 6.56675L18.5692 8.0266L18.2416 6.56675ZM18.5692 8.0266L18.7111 7.99475L18.5692 8.0266ZM18.5915 8.08378C18.5812 8.06596 18.5737 8.04668 18.5692 8.0266L18.7111 7.99475L18.7117 7.99461M18.5915 8.08378L18.7157 8.01212L18.5915 8.08378Z" fill="#466086"/>
<path d="M23.4386 20.8196C22.7631 16.8091 23.3793 14.9782 23.9955 13.7576C24.9045 14.1064 25.5801 14.7166 25.5801 14.8038C25.316 15.3269 25.1399 18.9015 25.228 19.4246C24.8758 20.0349 23.9955 20.558 23.4386 20.8196Z" fill="url(#paint7_linear_438_16011)"/>
<path fill-rule="evenodd" clip-rule="evenodd" d="M23.924 13.5747L23.8647 13.6921C23.2328 14.9437 22.6142 16.8066 23.2943 20.8438L23.3261 21.0327L23.4995 20.9512C23.7841 20.8176 24.1515 20.6171 24.494 20.371C24.8343 20.1266 25.1618 19.8288 25.353 19.4973L25.3791 19.452L25.3705 19.4005C25.3512 19.2859 25.3449 18.9793 25.3532 18.5584C25.3614 18.144 25.3833 17.634 25.4162 17.1236C25.4491 16.613 25.4929 16.1039 25.5447 15.6911C25.5706 15.4845 25.5983 15.3038 25.6272 15.1598C25.657 15.0114 25.6857 14.9156 25.709 14.8694L25.7246 14.8385V14.8038C25.7246 14.7596 25.7062 14.7248 25.6986 14.7111C25.6882 14.6924 25.6754 14.6744 25.6626 14.6582C25.6368 14.6253 25.6018 14.5879 25.5605 14.548C25.4772 14.4676 25.3591 14.368 25.2137 14.2615C24.923 14.0484 24.5156 13.8017 24.0467 13.6218L23.924 13.5747ZM25.4162 14.8169C25.3881 14.8952 25.3638 14.9938 25.342 15.1024C25.3111 15.2561 25.2824 15.4446 25.256 15.6549C25.2033 16.0757 25.159 16.591 25.1259 17.1049C25.0928 17.6189 25.0706 18.1333 25.0623 18.5526C25.0551 18.9199 25.058 19.2267 25.0761 19.3934C24.9114 19.6574 24.6352 19.9114 24.3243 20.1348C24.0649 20.3211 23.7888 20.4809 23.5494 20.6029C22.9507 16.882 23.4946 15.1135 24.0651 13.9427C24.454 14.1058 24.7933 14.314 25.0418 14.4961C25.1789 14.5966 25.2865 14.6878 25.3583 14.7572C25.3826 14.7807 25.4018 14.8007 25.4162 14.8169Z" fill="#466086"/>
<path d="M9.73431 15.9371C9.66388 13.7749 11.583 12.6531 12.5513 12.3625C12.6393 12.3044 12.8682 12.1881 13.0795 12.1881C15.1923 11.7522 19.0656 12.1881 19.5058 12.3625C21.6185 13.06 21.8826 15.3268 21.9707 15.9371C22.1467 18.727 21.4425 20.043 20.4741 20.7323C17.6571 22.7375 13.5197 22.04 12.8154 21.7785C9.73431 20.2963 9.82234 17.4192 9.73431 15.9371Z" fill="white"/>
<path fill-rule="evenodd" clip-rule="evenodd" d="M19.5541 12.2256C21.6935 12.9344 22.01 15.1816 22.1053 15.8581C22.1083 15.879 22.111 15.8985 22.1136 15.9163L22.1144 15.9221L22.1148 15.9279C22.2925 18.7442 21.583 20.1207 20.5575 20.8508C19.1162 21.8767 17.345 22.2068 15.8558 22.2508C14.369 22.2948 13.1386 22.0541 12.7637 21.9148L12.7574 21.9125L12.7513 21.9096C9.80455 20.492 9.67807 17.8204 9.60493 16.2753C9.5994 16.1587 9.59419 16.0485 9.58808 15.9457L9.58785 15.9418L9.5879 15.9418C9.5511 14.8118 10.0357 13.9536 10.6498 13.3447C11.2533 12.7463 11.9858 12.3838 12.4888 12.2292C12.5427 12.1957 12.6231 12.1534 12.716 12.1177C12.8155 12.0795 12.9381 12.0455 13.0629 12.0429C14.1381 11.8237 15.6432 11.8252 16.9274 11.9013C17.5743 11.9396 18.169 11.9971 18.6305 12.0561C18.8612 12.0856 19.0595 12.1156 19.215 12.144C19.3631 12.171 19.4833 12.1984 19.5541 12.2256ZM16.9102 12.1917C15.6251 12.1155 14.1445 12.1167 13.1079 12.3306L13.0933 12.3336H13.0785C12.9973 12.3336 12.9059 12.3564 12.8203 12.3893C12.7354 12.4219 12.6656 12.4607 12.6304 12.4839L12.6126 12.4957L12.5921 12.5018C12.1273 12.6413 11.4273 12.9834 10.8547 13.5512C10.2851 14.1161 9.84558 14.8992 9.8786 15.9304C9.88473 16.034 9.89005 16.1436 9.89563 16.2585C9.9708 17.8068 10.092 20.3038 12.8712 21.6444C13.209 21.7674 14.3939 22.003 15.8472 21.96C17.307 21.9169 19.013 21.5931 20.3888 20.6138C21.2992 19.9657 21.9979 18.7115 21.8248 15.952C21.8229 15.9384 21.8208 15.9241 21.8187 15.909C21.7215 15.2264 21.4261 13.15 19.4592 12.5006L19.4551 12.4993L19.4512 12.4977C19.4113 12.4819 19.316 12.4581 19.1628 12.4302C19.014 12.403 18.821 12.3738 18.5936 12.3447C18.139 12.2865 17.5509 12.2296 16.9102 12.1917Z" fill="#466086"/>
<path d="M14.1352 15.8501C14.0648 14.5946 12.9908 14.1064 12.4626 14.0192C11.4943 14.0192 10.9661 15.1526 10.9661 15.5013C10.8781 17.3322 11.9345 18.0297 12.4626 17.9425C12.9908 17.8553 14.2233 17.4194 14.1352 15.8501Z" fill="#292929"/>
<path d="M20.9184 15.6757C20.848 14.4202 19.774 13.932 19.2459 13.8448C18.2775 13.8448 17.7493 14.9782 17.7493 15.3269C17.6613 17.1578 18.7177 17.8553 19.2459 17.7681C19.774 17.6809 21.0065 17.245 20.9184 15.6757Z" fill="#292929"/>
<path d="M11.4068 16.0242C11.1428 15.7627 11.583 14.3679 12.3752 14.4549C12.4627 14.4645 12.572 14.619 12.3752 14.7165C11.8471 14.978 11.8471 16.373 11.4068 16.0242Z" fill="white"/>
<path d="M18.1901 15.8499C17.926 15.5883 18.3662 14.1935 19.1584 14.2805C19.2459 14.2901 19.3552 14.4446 19.1584 14.5421C18.6303 14.8036 18.6303 16.1986 18.1901 15.8499Z" fill="white"/>
<path d="M12.4629 12.9729C11.8467 12.9729 11.3185 13.5832 11.2305 13.932L11.2305 13.932C11.4065 13.8448 11.7587 13.6704 12.1988 13.4961C12.639 13.3217 13.5193 13.7576 13.7834 13.8448C14.0475 13.932 13.4313 12.9729 12.4629 12.9729Z" fill="#292929"/>
<path d="M18.9766 12.7986C18.3604 12.7986 17.8322 13.4089 17.7441 13.7576L17.7441 13.7576C17.9202 13.6704 18.2723 13.4961 18.7125 13.3217C19.1526 13.1473 20.033 13.5832 20.297 13.6704C20.5611 13.7576 19.9449 12.7986 18.9766 12.7986Z" fill="#292929"/>
<path d="M15.8083 17.3322C15.2801 17.3322 14.84 17.7681 14.752 17.8553C15.3682 17.7681 16.3072 17.9134 16.6886 18.1169L17.0408 17.7681C16.7767 17.6519 15.9492 17.402 15.8083 17.3322Z" fill="#292929"/>
<path d="M18.0966 18.7272C16.4768 19.5641 14.6047 19.1921 13.8711 18.9015C13.9004 19.105 14.0296 19.6339 14.3113 20.1221C14.8394 20.8196 16.2479 20.7324 16.6881 20.6452C18.3607 20.3837 18.1846 18.9887 18.0966 18.7272Z" fill="#292929"/>
<path d="M16.3361 19.686C15.5614 19.6163 15.133 20.0638 15.0156 20.2963C16.4241 20.6449 17.3044 20.2092 17.5685 19.9478C17.4805 19.8896 17.1108 19.7557 16.3361 19.686Z" fill="#D33F79"/>
<path d="M23.2191 15.7631C23.2191 13.601 22.2625 11.0726 21.793 10.0264C22.0571 10.183 23.0606 10.8805 23.4127 11.3164C23.5888 11.578 23.8177 12.7988 23.8177 13.7579C23.6416 14.2519 23.3951 14.6297 23.2191 15.7631Z" fill="#99A2C2"/>
<path d="M11.9334 25.7891C11.0883 24.6034 11.5813 23.7839 11.9334 23.5223C12.6083 23.7258 14.3983 24.1326 16.1589 24.1326C18.3597 24.1326 19.7682 23.348 20.2964 23.0864C21.0887 23.2608 21.6169 24.0454 21.4408 24.5686C20.5605 26.9225 17.9196 27.3585 17.2153 27.4457C13.8701 27.62 12.4616 26.4866 11.9334 25.7891Z" fill="#99A2C2"/>
<path fill-rule="evenodd" clip-rule="evenodd" d="M20.2786 22.9334L20.3286 22.9444C20.7622 23.0398 21.1217 23.3013 21.3497 23.6103C21.5747 23.9152 21.6884 24.2918 21.5796 24.6149L21.5788 24.6172L21.578 24.6195C21.1208 25.8421 20.2066 26.5634 19.3262 26.9882C18.4471 27.4123 17.5928 27.5456 17.2341 27.59L17.229 27.5906L17.2238 27.5909C13.8396 27.7673 12.3808 26.6196 11.8184 25.877L11.8171 25.8753L11.8159 25.8736C11.3755 25.2557 11.273 24.7165 11.3418 24.2862C11.4098 23.8603 11.6433 23.5573 11.8476 23.4056L11.9063 23.362L11.9763 23.3831C12.6419 23.5837 14.4173 23.9872 16.1599 23.9872C18.1882 23.9872 19.5294 23.3106 20.1236 23.0108C20.1633 22.9908 20.1997 22.9724 20.2328 22.9561L20.2786 22.9334ZM20.315 23.2402C20.2952 23.2501 20.2743 23.2606 20.2524 23.2717C19.6506 23.5754 18.258 24.2781 16.1599 24.2781C14.4424 24.2781 12.7009 23.8956 11.967 23.6836C11.8303 23.8069 11.6777 24.0275 11.629 24.3321C11.5746 24.6731 11.6479 25.1359 12.0516 25.703C12.5463 26.3552 13.9039 27.4714 17.2035 27.3007C17.552 27.2573 18.3663 27.1283 19.1998 26.7262C20.0354 26.323 20.8812 25.6499 21.3046 24.52C21.3708 24.3202 21.3081 24.0439 21.1156 23.7831C20.9342 23.5372 20.652 23.3274 20.315 23.2402Z" fill="#466086"/>
<path d="M11.8746 24.7014C11.4947 24.4025 11.5215 23.5032 11.8746 23.3469C12.5513 23.4684 14.3462 23.7116 16.1117 23.7116C18.3186 23.7116 19.731 23.2427 20.2606 23.0864C21.0551 23.1906 21.4082 23.8711 21.4082 23.972C20.5254 25.3786 17.8772 25.6391 17.171 25.6912C13.8166 25.7954 12.4042 25.1182 11.8746 24.7014Z" fill="#DFE2EC"/>
<path fill-rule="evenodd" clip-rule="evenodd" d="M20.248 22.9382L20.2785 22.9422C20.7156 22.9995 21.0313 23.2158 21.2363 23.4298C21.3387 23.5366 21.4147 23.644 21.4659 23.7335C21.4914 23.7782 21.5115 23.8198 21.5258 23.856C21.5377 23.8862 21.5526 23.9299 21.5526 23.9721L21.5526 24.0139L21.5304 24.0494C21.0589 24.8005 20.1304 25.2298 19.2626 25.4793C18.3876 25.7309 17.5373 25.81 17.1807 25.8363L17.1776 25.8365L17.1745 25.8366C13.8028 25.9413 12.3509 25.2621 11.7836 24.8157L11.7836 24.8157C11.5419 24.6255 11.4496 24.2702 11.4532 23.9689C11.4551 23.8137 11.482 23.6582 11.5369 23.5265C11.5909 23.3969 11.6794 23.2738 11.8147 23.2139L11.8554 23.1958L11.8992 23.2037C12.5699 23.3242 14.3559 23.5661 16.1107 23.5661C18.1583 23.5661 19.5127 23.1589 20.1089 22.9796C20.1488 22.9676 20.1853 22.9567 20.2184 22.9469L20.248 22.9382ZM20.2705 23.2349C20.2458 23.2423 20.2192 23.2502 20.191 23.2587C19.5879 23.44 18.2009 23.857 16.1107 23.857C14.3784 23.857 12.62 23.6247 11.9006 23.4994C11.868 23.5249 11.8343 23.5691 11.8054 23.6384C11.7678 23.7286 11.7456 23.8459 11.7441 23.9724C11.741 24.2346 11.8253 24.4783 11.9635 24.5871C12.4553 24.9741 13.8275 25.6491 17.1624 25.5459C17.5137 25.5199 18.3383 25.4424 19.1822 25.1998C20.0122 24.9611 20.8266 24.5722 21.2491 23.9482C21.2408 23.9292 21.229 23.9054 21.2133 23.8779C21.1734 23.8082 21.1115 23.72 21.0263 23.6311C20.861 23.4585 20.6125 23.2874 20.2705 23.2349Z" fill="#466086"/>
<path fill-rule="evenodd" clip-rule="evenodd" d="M12.7667 6.38151C12.8439 6.40377 12.8885 6.4844 12.8662 6.56158L12.1448 9.06202L12.0904 9.09093C11.2671 9.52774 9.42551 10.5676 8.59351 11.2543C8.53156 11.3054 8.43988 11.2966 8.38875 11.2347C8.33761 11.1727 8.34638 11.081 8.40834 11.0299C9.24803 10.3369 11.0539 9.31426 11.8995 8.86297L12.5867 6.48095C12.6089 6.40376 12.6896 6.35924 12.7667 6.38151Z" fill="#466086"/>
<defs>
<linearGradient id="paint0_linear_438_16011" x1="-2.32562" y1="-10.3296" x2="36.5196" y2="40.608" gradientUnits="userSpaceOnUse">
<stop stop-color="#F1D8A7"/>
<stop offset="1" stop-color="#F1A7D8"/>
</linearGradient>
<linearGradient id="paint1_linear_438_16011" x1="0.27916" y1="-6.78322" x2="34.0466" y2="37.4958" gradientUnits="userSpaceOnUse">
<stop stop-color="#F9EFDC"/>
<stop offset="1" stop-color="#F9DCEF"/>
</linearGradient>
<linearGradient id="paint2_linear_438_16011" x1="13.3426" y1="10.4446" x2="14.0565" y2="10.1786" gradientUnits="userSpaceOnUse">
<stop stop-color="#6C899D"/>
<stop offset="1" stop-color="#7C98DA"/>
</linearGradient>
<linearGradient id="paint3_linear_438_16011" x1="17.5681" y1="10.2702" x2="17.5553" y2="9.09582" gradientUnits="userSpaceOnUse">
<stop stop-color="#6C899D"/>
<stop offset="1" stop-color="#7C98DA"/>
</linearGradient>
<linearGradient id="paint4_linear_438_16011" x1="18.6248" y1="7.04437" x2="19.2103" y2="7.5529" gradientUnits="userSpaceOnUse">
<stop stop-color="#4086B5"/>
<stop offset="1" stop-color="#5286FF"/>
</linearGradient>
<linearGradient id="paint5_linear_438_16011" x1="17.4804" y1="10.2702" x2="17.0359" y2="6.42297" gradientUnits="userSpaceOnUse">
<stop stop-color="#6C899D"/>
<stop offset="1" stop-color="#7C98DA"/>
</linearGradient>
<linearGradient id="paint6_linear_438_16011" x1="8.1493" y1="20.8196" x2="9.44985" y2="14.132" gradientUnits="userSpaceOnUse">
<stop stop-color="#6C899D"/>
<stop offset="1" stop-color="#7C98DA"/>
</linearGradient>
<linearGradient id="paint7_linear_438_16011" x1="24.4357" y1="20.2965" x2="23.2154" y2="14.2661" gradientUnits="userSpaceOnUse">
<stop stop-color="#6C899D"/>
<stop offset="1" stop-color="#7C98DA"/>
</linearGradient>
</defs>
</svg>
