<svg width="65" height="74" viewBox="0 0 65 74" fill="none" xmlns="http://www.w3.org/2000/svg">
<path d="M32.5 70.8775C50.1731 70.8775 64.5 56.5506 64.5 38.8775C64.5 21.2044 50.1731 6.8775 32.5 6.8775C14.8269 6.8775 0.5 21.2044 0.5 38.8775C0.5 56.5506 14.8269 70.8775 32.5 70.8775Z" fill="url(#paint0_linear_525_493)"/>
<path d="M32.9186 66.9027C48.2815 66.9027 60.7356 54.4486 60.7356 39.0857C60.7356 23.7228 48.2815 11.2687 32.9186 11.2687C17.5557 11.2687 5.10156 23.7228 5.10156 39.0857C5.10156 54.4486 17.5557 66.9027 32.9186 66.9027Z" fill="url(#paint1_linear_525_493)"/>
<path fill-rule="evenodd" clip-rule="evenodd" d="M56.1007 0L53.9332 2.83474C52.9184 4.16184 50.3889 7.38664 47.8224 10.6584L47.537 11.0223C44.8716 14.4203 42.2262 17.7943 41.239 19.0925C40.5963 19.9393 39.8321 20.9162 39.0315 21.9396C37.7083 23.631 36.2858 25.4494 35.1479 27.018C35.8362 26.8499 36.7588 26.6292 37.8347 26.3752C40.0579 25.8503 42.9386 25.1827 45.7648 24.5434C48.5902 23.9043 51.364 23.2929 53.3724 22.8806C54.3748 22.6748 55.194 22.5172 55.7349 22.4307C55.9985 22.3887 56.2208 22.3593 56.3683 22.3541C56.4067 22.3527 56.4527 22.3525 56.4997 22.3566L56.5016 22.3568C56.5301 22.3593 56.6381 22.3688 56.7458 22.4323C56.8098 22.47 56.9215 22.5554 56.9724 22.7145C57.0255 22.8808 56.9793 23.0233 56.9368 23.1034C56.8712 23.2267 56.7691 23.2931 56.7451 23.3087L56.7432 23.3099C55.06 24.4133 52.272 26.9259 49.1964 29.8202C47.9736 30.971 46.7076 32.1798 45.4555 33.3754C43.5802 35.1661 41.7361 36.9269 40.1154 38.4178L40.1153 38.4179C36.2858 41.9389 29.7097 49.399 23.8299 56.2923C19.2455 61.6671 15.1049 66.6726 13.0427 69.1656C12.4625 69.867 12.0469 70.3695 11.8321 70.6254L9 74L11.0105 70.0856C16.42 59.5533 24.512 48.1807 31.7939 38.6484C29.216 39.445 25.8027 40.7101 22.3803 42.0227C20.9205 42.5826 19.4593 43.151 18.0644 43.6937C15.552 44.6711 13.2546 45.5649 11.5671 46.1746L10.0982 46.7053L10.9913 45.43C19.455 33.3431 40.0286 12.0426 53.2406 2.14306L56.1007 0ZM12.7376 44.6902C14.1726 44.1496 15.8693 43.4896 17.6849 42.7832C19.0824 42.2396 20.5503 41.6685 22.0237 41.1034C26.1197 39.5324 30.2606 38.0065 32.9725 37.2795L34.3814 36.9018L33.495 38.0545C26.9973 46.5042 19.7504 56.506 14.2918 66.1075C16.5373 63.4013 19.6873 59.6258 23.0742 55.655C28.9444 48.7729 35.5604 41.2639 39.4425 37.6945C41.0592 36.2073 42.8885 34.4605 44.7564 32.6768C46.0095 31.4802 47.2799 30.2671 48.5152 29.1046C50.7942 26.9599 52.962 24.9792 54.6516 23.6292C54.326 23.6926 53.9647 23.7652 53.5727 23.8456C51.5744 24.2558 48.8083 24.8655 45.9846 25.5042C43.1615 26.1428 40.2839 26.8097 38.0636 27.3339C36.9534 27.596 36.0084 27.8222 35.3171 27.9913C34.9713 28.0759 34.6901 28.1459 34.484 28.1988C34.3808 28.2253 34.2979 28.2471 34.2357 28.2641C34.2046 28.2726 34.1799 28.2796 34.1612 28.2851C34.1558 28.2866 34.1511 28.288 34.1471 28.2893C34.1442 28.2901 34.1417 28.2909 34.1395 28.2916C34.1348 28.2931 34.1327 28.2938 34.1327 28.2938L32.7084 28.7918L33.5592 27.5513C34.7904 25.7562 36.6259 23.4097 38.2799 21.2951C39.0734 20.2807 39.825 19.3197 40.4483 18.4986L40.4486 18.4982C41.4415 17.1923 44.0936 13.81 46.7557 10.4162L47.0347 10.0606C48.3325 8.406 49.6194 6.76548 50.7056 5.37638C38.1421 15.5552 20.9378 33.4761 12.7376 44.6902ZM56.1979 22.4871L56.1978 22.4872Z" fill="url(#paint2_linear_525_493)"/>
<path d="M11.4523 70.3097C13.3953 67.9945 32.0678 45.1465 39.7795 38.056C45.1834 33.0851 53.0167 25.1629 56.471 22.8985C57.4393 22.2643 34.748 27.5565 33.9691 27.8288C35.783 25.1841 38.9023 21.3541 40.8443 18.7953C42.8245 16.1911 51.4394 5.2827 53.5393 2.53643C40.3681 12.4055 19.8314 33.6685 11.3984 45.7114C16.6361 43.819 27.7372 39.1933 33.102 37.7551C25.5946 47.518 17.0678 59.3763 11.4523 70.3097Z" fill="url(#paint3_linear_525_493)"/>
<path d="M17.2892 34.6858C17.1551 26.7112 22.9332 22.8347 25.839 21.8932C29.3035 21.4502 36.4673 20.6638 37.4061 21.0625C47.1293 24.5514 47.6322 32.526 47.7998 33.5229C48.3028 37.6763 47.7998 46.98 46.794 48.3091C37.909 57.1144 26.3419 53.6256 25.0007 53.1271C13.0982 48.8076 17.1216 36.6795 17.2892 34.6858Z" fill="#DFE2EC" stroke="#466086"/>
<path d="M25.0137 25.5036L25.6256 23.5329C25.6522 23.4472 25.7325 23.3898 25.8221 23.3922L37.6289 23.7173C37.6984 23.7192 37.7619 23.757 37.7967 23.8173L38.3733 24.8173C38.3978 24.8598 38.4061 24.9084 38.3961 24.9564C37.9986 26.8678 37.1674 30.7765 36.9026 31.695C36.3996 32.8579 35.8967 33.0241 35.3938 32.8579C33.5628 32.1981 28.922 32.6848 28.2 32.8544C28.1888 32.857 28.1796 32.8604 28.1691 32.865C26.9907 33.3736 26.2523 32.5506 26.0169 32.0513C26.0093 32.0352 26.0045 32.0183 26.0017 32.0006L25.0071 25.5936C25.0024 25.5635 25.0047 25.5327 25.0137 25.5036Z" fill="#99A2C2" stroke="#466086"/>
<path d="M26.8444 32.6918C26.2856 30.1997 25.6038 24.4513 25.6038 24.0526L25.168 25.5479C25.4474 27.4308 26.0397 31.4956 26.1738 32.0272C26.2374 32.2792 26.5091 32.5256 26.8444 32.6918Z" fill="#D9D9D9"/>
<path d="M37.0715 20.3981C32.5452 18.7362 28.1865 19.8999 26.6777 20.7304L25.6719 23.2226L27.5159 28.2068H35.5627L37.9097 23.2226C37.6862 22.4473 37.2056 20.7968 37.0715 20.3981Z" fill="#DFE2EC" stroke="#466086"/>
<path d="M35.9424 20.1087C32.7157 19.4209 29.1072 19.7477 27.3907 20.5694C27.0418 20.7364 26.9093 21.1821 26.9781 21.5628C27.0683 22.0616 27.5424 22.2384 28.0236 22.079C31.0242 21.0851 33.7899 21.386 35.3321 21.8124C35.7623 21.9314 36.1449 21.9284 36.3761 21.5467C36.6821 21.0413 36.5202 20.2319 35.9424 20.1087Z" fill="white"/>
<path d="M28.2451 25.7231L26.8667 21.625C26.7469 21.2688 26.2465 21.2595 26.1135 21.611L25.6387 22.8658C25.5519 23.0952 25.5524 23.3485 25.6402 23.5775L27.1227 27.4465C27.2563 27.7951 27.7523 27.7869 27.8743 27.434L28.2425 26.3685C28.3147 26.1596 28.3156 25.9326 28.2451 25.7231Z" fill="url(#paint4_linear_525_493)" stroke="#466086"/>
<path d="M34.1057 25.8801H28.4943C28.41 25.8801 28.3348 25.933 28.3062 26.0123L27.6121 27.9383C27.5652 28.0686 27.6617 28.2061 27.8003 28.2061H35.2162C35.3701 28.2061 35.4664 28.0395 35.3895 27.9062L34.279 25.9802C34.2433 25.9183 34.1772 25.8801 34.1057 25.8801Z" fill="url(#paint5_linear_525_493)" stroke="#466086"/>
<path d="M34.4806 25.3828L36.8337 20.8558C36.918 20.6937 37.1576 20.7202 37.2045 20.8968L37.8159 23.1993C37.8768 23.4284 37.8542 23.6717 37.7523 23.8858L35.8237 27.9367C35.7551 28.0806 35.554 28.0905 35.4718 27.9539L34.5113 26.3602C34.3316 26.062 34.32 25.6918 34.4806 25.3828Z" fill="url(#paint6_linear_525_493)"/>
<path d="M34.4806 25.3828L36.8337 20.8558C36.918 20.6937 37.1576 20.7202 37.2045 20.8968L37.8159 23.1993C37.8768 23.4284 37.8542 23.6717 37.7523 23.8858L35.8237 27.9367C35.7551 28.0806 35.554 28.0905 35.4718 27.9539L34.5113 26.3602C34.3316 26.062 34.32 25.6918 34.4806 25.3828Z" fill="url(#paint7_linear_525_493)"/>
<path d="M34.4806 25.3828L36.8337 20.8558C36.918 20.6937 37.1576 20.7202 37.2045 20.8968L37.8159 23.1993C37.8768 23.4284 37.8542 23.6717 37.7523 23.8858L35.8237 27.9367C35.7551 28.0806 35.554 28.0905 35.4718 27.9539L34.5113 26.3602C34.3316 26.062 34.32 25.6918 34.4806 25.3828Z" stroke="#466086"/>
<path d="M13.4336 40.5003C13.4336 45.9828 16.5631 47.9211 18.2954 48.1426C19.804 39.6696 17.7923 35.6823 17.457 34.6854C13.4336 35.5161 13.4336 38.8389 13.4336 40.5003Z" fill="#C4C7D4" stroke="#466086"/>
<path d="M15.9483 25.2153L16.4512 34.6854H17.457C17.3229 30.9639 18.9099 28.0399 19.804 26.7108L18.7981 25.714C18.6305 24.7171 18.2617 22.6235 18.1276 22.2248C17.7923 21.228 16.4512 21.3941 16.1159 21.5602C15.3113 22.0919 15.3336 23.7754 15.4454 24.5507L15.9483 25.2153Z" fill="#DFE2EC" stroke="#466086"/>
<path d="M15.6133 23.7204L16.9546 24.5511L18.2958 23.3881" stroke="#466086" stroke-linecap="round"/>
<path d="M18.1266 29.5352C17.6237 28.0399 17.1208 26.0463 16.9531 24.551" stroke="#466086" stroke-linecap="round"/>
<path d="M26.1737 21.5603C21.7103 23.3108 19.1858 26.8875 18.4644 28.5331C18.463 28.5365 18.4619 28.5395 18.461 28.543L18.1858 29.6343C18.1693 29.6996 18.2511 29.7478 18.3013 29.7023C19.7643 28.3766 23.3022 26.4175 24.9751 25.5604C24.9917 25.5519 25.003 25.538 25.008 25.5202C25.2777 24.56 25.8799 22.528 26.2812 21.5383C26.3033 21.4838 26.2288 21.5387 26.1737 21.5603Z" fill="#99A2C2"/>
<path d="M17.6253 34.5193C17.4912 25.4814 23.3809 22.2805 26.3426 21.5605C21.6486 24.2188 20.8105 29.2029 19.8046 34.3532C18.9999 38.4734 19.6929 46.3705 19.8047 49.6379C19.5812 49.5271 18.5976 48.5081 18.4635 47.9765C20.1399 39.6696 18.1282 35.6823 17.6253 34.5193Z" fill="white"/>
<path d="M26.1744 21.7267C23.2127 22.502 17.457 26.1459 17.457 34.5193" stroke="#466086"/>
<path d="M18.2949 48.1426C20.1389 40.5003 18.2949 36.513 17.4567 34.5193C14.6068 35.5161 14.2715 36.6791 14.2715 36.8452C14.7744 37.8421 14.9421 44.4876 14.7744 45.4844C15.445 47.1458 17.792 48.1426 18.2949 48.1426Z" fill="url(#paint8_linear_525_493)" stroke="#466086"/>
<path d="M51.6016 40.5003C51.6015 45.9828 48.3034 47.3119 46.7398 48.1426C45.2312 39.6696 47.2429 35.6823 47.5782 34.6854C51.6016 35.5161 51.6016 38.8389 51.6016 40.5003Z" fill="#C4C7D4" stroke="#466086"/>
<path d="M49.0869 25.2153L48.584 34.6854H47.6328C47.6328 30.8643 46.1252 28.0399 45.2312 26.7108L46.237 25.714C46.4046 24.7171 46.7735 22.6235 46.9076 22.2248C47.2429 21.228 48.5839 21.3941 48.9192 21.5602C49.7239 22.0919 49.7015 23.7754 49.5898 24.5507L49.0869 25.2153Z" fill="#DFE2EC" stroke="#466086"/>
<path d="M49.4219 23.7204L48.0806 24.5511L46.7393 23.3881" stroke="#466086" stroke-linecap="round"/>
<path d="M46.9085 30.532C47.2438 29.3136 48.082 26.4118 48.082 24.551" stroke="#466086" stroke-linecap="round"/>
<path d="M37.7362 23.6906L37.15 21.0765C37.1159 20.9244 37.2657 20.7953 37.4128 20.8471C44.2499 23.2542 46.0465 27.1536 46.6614 29.1279C46.7278 29.341 46.3694 29.5339 46.2095 29.3782C43.9263 27.1556 40.2167 25.4751 38.485 24.9065C38.4378 24.891 38.3996 24.8594 38.3748 24.8164L37.7581 23.7467C37.748 23.7292 37.7406 23.7103 37.7362 23.6906Z" fill="#99A2C2" stroke="#466086"/>
<path d="M46.7403 48.1426C45.4538 40.5003 46.6273 37.0114 47.8008 34.6854C49.5319 35.35 50.8184 36.513 50.8184 36.6791C50.3154 37.6759 49.9802 44.4876 50.1478 45.4844C49.4772 46.6474 47.8008 47.6442 46.7403 48.1426Z" fill="url(#paint9_linear_525_493)" stroke="#466086"/>
<path d="M20.6423 38.8386C20.5082 34.7184 24.1627 32.5808 26.0068 32.027C26.1744 31.9162 26.6103 31.6947 27.0126 31.6947C31.036 30.864 38.4123 31.6947 39.2505 32.027C43.2739 33.3561 43.7768 37.6756 43.9444 38.8386C44.2797 44.155 42.9386 46.6627 41.0945 47.9762C35.73 51.7974 27.8509 50.4683 26.5097 49.9699C20.6423 47.1455 20.8099 41.663 20.6423 38.8386Z" fill="white" stroke="#466086"/>
<path d="M29.0235 38.6728C28.8894 36.2804 26.8441 35.35 25.8383 35.1839C23.9943 35.1839 22.9884 37.3436 22.9884 38.0082C22.8207 41.4971 24.8324 42.8262 25.8383 42.6601C26.8441 42.4939 29.1911 41.6632 29.0235 38.6728Z" fill="#292929"/>
<path d="M41.9434 38.3405C41.8093 35.9481 39.7641 35.0177 38.7582 34.8516C36.9142 34.8516 35.9083 37.0114 35.9083 37.6759C35.7407 41.1648 37.7524 42.4939 38.7582 42.3278C39.7641 42.1616 42.111 41.331 41.9434 38.3405Z" fill="#292929"/>
<path d="M23.8278 39.0047C23.3249 38.5063 24.1633 35.8484 25.6719 36.0142C25.8385 36.0325 26.0467 36.3268 25.6718 36.5126C24.6662 37.011 24.6662 39.6692 23.8278 39.0047Z" fill="white"/>
<path d="M36.7458 38.6724C36.2429 38.174 37.0813 35.5161 38.5898 35.6819C38.7564 35.7002 38.9647 35.9945 38.5898 36.1803C37.5841 36.6787 37.5841 39.3369 36.7458 38.6724Z" fill="white"/>
<path d="M25.8392 33.1902C24.6657 33.1902 23.6598 34.3532 23.4922 35.0177C23.8275 34.8516 24.498 34.5193 25.3362 34.187C26.1745 33.8547 27.8509 34.6854 28.3538 34.8516C28.8567 35.0177 27.6832 33.1902 25.8392 33.1902Z" fill="#292929"/>
<path d="M38.2454 32.8579C37.0719 32.8579 36.0661 34.0209 35.8984 34.6854C36.2337 34.5193 36.9043 34.187 37.7425 33.8547C38.5807 33.5225 40.2571 34.3532 40.76 34.5193C41.263 34.6854 40.0895 32.8579 38.2454 32.8579Z" fill="#292929"/>
<path d="M32.209 41.4971C31.2031 41.4971 30.3649 42.3278 30.1973 42.4939C31.3708 42.3278 33.1589 42.6047 33.8854 42.9923L34.5559 42.3278C34.053 42.1063 32.4772 41.63 32.209 41.4971Z" fill="#292929"/>
<path d="M36.5683 44.1553C33.4837 45.7502 29.9185 45.0414 28.5215 44.4876C28.5774 44.8752 28.8232 45.8831 29.3597 46.8135C30.3655 48.1426 33.0478 47.9765 33.886 47.8103C37.0712 47.3119 36.7359 44.6537 36.5683 44.1553Z" fill="#292929"/>
<path d="M33.2158 45.9824C31.7405 45.8495 30.9247 46.7024 30.7012 47.1454C33.3834 47.8097 35.0599 46.9794 35.5628 46.4812C35.3951 46.3703 34.691 46.1153 33.2158 45.9824Z" fill="#D33F79"/>
<path d="M46.3252 38.5071C46.3252 34.3869 44.5035 29.5689 43.6094 27.5753C44.1123 27.8738 46.0234 29.2029 46.694 30.0336C47.0293 30.532 47.4651 32.8584 47.4651 34.686C47.1298 35.6274 46.6604 36.3473 46.3252 38.5071Z" fill="#99A2C2"/>
<path d="M24.8339 57.6125C23.2246 55.353 24.1634 53.7913 24.8339 53.2929C26.1192 53.6805 29.5279 54.4558 32.8807 54.4558C37.0718 54.4558 39.754 52.9606 40.7599 52.4622C42.2687 52.7945 43.2745 54.2897 42.9392 55.2865C41.2628 59.7723 36.2336 60.6029 34.8924 60.7691C28.5221 61.1014 25.8398 58.9416 24.8339 57.6125Z" fill="#99A2C2" stroke="#466086"/>
<path d="M24.7189 55.5397C23.9955 54.97 24.0465 53.2564 24.7189 52.9586C26.0077 53.1902 29.4258 53.6535 32.7879 53.6535C36.9905 53.6535 39.6802 52.76 40.6888 52.4622C42.2018 52.6607 42.8742 53.9574 42.8742 54.1498C41.1931 56.8302 36.15 57.3266 34.8052 57.4258C28.4172 57.6244 25.7275 56.3338 24.7189 55.5397Z" fill="#DFE2EC" stroke="#466086"/>
<path d="M26.3417 20.896L25.0006 25.5479C23.4359 26.3785 19.9043 28.3722 18.2949 29.7013" stroke="#466086" stroke-linecap="round"/>
<defs>
<linearGradient id="paint0_linear_525_493" x1="-4.15125" y1="-13.7816" x2="73.5393" y2="88.0935" gradientUnits="userSpaceOnUse">
<stop stop-color="#F1D8A7"/>
<stop offset="1" stop-color="#F1A7D8"/>
</linearGradient>
<linearGradient id="paint1_linear_525_493" x1="1.05832" y1="-6.68983" x2="68.5932" y2="81.8683" gradientUnits="userSpaceOnUse">
<stop stop-color="#F9EFDC"/>
<stop offset="1" stop-color="#F9DCEF"/>
</linearGradient>
<linearGradient id="paint2_linear_525_493" x1="55.1519" y1="-2.36558" x2="5.41762" y2="77.5454" gradientUnits="userSpaceOnUse">
<stop stop-color="#FEDFD7"/>
<stop offset="1" stop-color="#FEE6C3"/>
</linearGradient>
<linearGradient id="paint3_linear_525_493" x1="54.768" y1="0.36991" x2="9.74492" y2="74.5958" gradientUnits="userSpaceOnUse">
<stop stop-color="#FDAF9B"/>
<stop offset="1" stop-color="#FCC573"/>
</linearGradient>
<linearGradient id="paint4_linear_525_493" x1="27.5156" y1="28.3722" x2="28.8753" y2="27.866" gradientUnits="userSpaceOnUse">
<stop stop-color="#6C899D"/>
<stop offset="1" stop-color="#7C98DA"/>
</linearGradient>
<linearGradient id="paint5_linear_525_493" x1="35.5624" y1="28.0399" x2="35.5381" y2="25.802" gradientUnits="userSpaceOnUse">
<stop stop-color="#6C899D"/>
<stop offset="1" stop-color="#7C98DA"/>
</linearGradient>
<linearGradient id="paint6_linear_525_493" x1="37.5749" y1="21.8928" x2="38.6904" y2="22.8611" gradientUnits="userSpaceOnUse">
<stop stop-color="#4086B5"/>
<stop offset="1" stop-color="#5286FF"/>
</linearGradient>
<linearGradient id="paint7_linear_525_493" x1="35.3955" y1="28.0399" x2="34.5479" y2="20.7088" gradientUnits="userSpaceOnUse">
<stop stop-color="#6C899D"/>
<stop offset="1" stop-color="#7C98DA"/>
</linearGradient>
<linearGradient id="paint8_linear_525_493" x1="17.6243" y1="48.1426" x2="20.1041" y2="35.3994" gradientUnits="userSpaceOnUse">
<stop stop-color="#6C899D"/>
<stop offset="1" stop-color="#7C98DA"/>
</linearGradient>
<linearGradient id="paint9_linear_525_493" x1="48.639" y1="47.1458" x2="46.3124" y2="35.655" gradientUnits="userSpaceOnUse">
<stop stop-color="#6C899D"/>
<stop offset="1" stop-color="#7C98DA"/>
</linearGradient>
</defs>
</svg>
