<svg width="135" height="100" viewBox="0 0 135 100" fill="none" xmlns="http://www.w3.org/2000/svg">
<path d="M78.2088 7.0554C78.2088 7.75472 78.2088 8.45405 78.2088 9.15337C98.2251 7.95326 116.248 21.6138 116.242 49.8593C116.908 49.8593 122.162 49.6549 122.832 49.6549C122.829 20.0018 99.2232 5.84936 78.2088 7.0554Z" fill="#F0CE59"/>
<path d="M120.283 44.7574C115.433 44.8759 111.772 52.5448 112.107 61.7664C112.424 70.5494 116.249 77.8715 120.8 78.3753H120.803C127.393 77.5811 135.249 71.6902 134.995 64.4244V58.7794C134.995 51.2202 127.476 44.5796 120.283 44.7574Z" fill="#4186B4"/>
<path d="M80.9369 99.9995C104.452 99.9995 123.516 81.8199 123.516 59.3943C123.516 36.9686 104.452 18.7891 80.9369 18.7891C57.4213 18.7891 38.3582 36.9686 38.3582 59.3943C38.3582 81.8199 57.4213 99.9995 80.9369 99.9995Z" fill="#DFE2EC"/>
<path d="M109.153 72.0985C94.4528 69.0849 79.4122 69.1411 64.7332 72.2614C61.7568 72.8956 58.8789 70.6939 58.2215 67.2476C57.6686 64.3585 57.1128 61.4693 56.56 58.5802C55.8637 54.9532 57.8868 51.3558 61.0246 50.7009C78.1511 47.1332 95.687 47.1954 112.79 50.8817C115.91 51.5544 117.915 55.1399 117.221 58.755C116.689 61.5286 116.158 64.3022 115.629 67.0758C114.974 70.5042 112.12 72.7059 109.153 72.0985Z" fill="#13375B"/>
<path d="M109.395 59.4563C109.395 62.0402 107.184 64.1352 104.452 64.1352C101.724 64.1352 99.5096 62.0402 99.5096 59.4563C99.5096 56.8724 101.721 54.7773 104.452 54.7773C107.184 54.7773 109.395 56.8724 109.395 59.4563Z" fill="#DFE2EC"/>
<path d="M77.7038 59.4563C77.7038 62.0402 75.4924 64.1352 72.761 64.1352C70.0326 64.1352 67.8181 62.0402 67.8181 59.4563C67.8181 56.8724 70.0296 54.7773 72.761 54.7773C75.4924 54.7773 77.7038 56.8724 77.7038 59.4563Z" fill="#DFE2EC"/>
<path d="M39.0916 49.5626C39.7281 49.5626 44.907 50.2441 45.5435 50.2441C45.5465 24.781 60.7843 10.7383 78.3262 9.20332C78.3262 8.50696 78.2814 7.81355 78.1439 7.11719C59.7055 8.74104 39.0886 22.8016 39.0916 49.5626Z" fill="#F0CE59"/>
<path d="M42.651 44.3277C47.5012 44.4462 51.162 52.1151 50.8273 61.3367C50.5105 70.1197 46.6884 77.4419 42.134 77.9456C42.134 77.9456 42.1311 77.9456 42.1311 77.9426C35.5416 77.1485 27.6852 71.2576 27.9392 63.9917V58.3497C27.9392 50.7905 35.458 44.1499 42.651 44.3277Z" fill="#4186B4"/>
<path d="M9.18255 9.01872C9.27385 9.0086 9.30936 9.044 9.27386 9.12997C9.25357 9.19065 9.25864 9.24627 9.26878 9.30695C9.56297 10.9352 10.1158 12.4776 10.8259 13.9744C11.4752 15.3296 12.2766 16.5736 13.2707 17.6911C14.5337 19.1121 16.0705 20.1032 17.927 20.5786C18.0233 20.6038 18.1146 20.6291 18.2161 20.5988C18.2769 20.5836 18.3479 20.5937 18.353 20.6898C18.3581 20.7859 18.2922 20.8061 18.2262 20.7909C18.0487 20.7505 17.8914 20.8213 17.7291 20.8668C16.4104 21.2461 15.2336 21.8782 14.1989 22.7833C13.3468 23.5317 12.6519 24.4066 12.0077 25.3269C11.3281 26.2927 10.8564 27.3597 10.3694 28.4267C9.83687 29.5999 9.51224 30.8337 9.2637 32.0929C9.25356 32.1536 9.2485 32.2142 9.27386 32.2699C9.28907 32.3053 9.29415 32.3407 9.25864 32.3609C9.21299 32.3862 9.15212 32.3811 9.10647 32.366C9.07096 32.3558 9.0659 32.3103 9.08111 32.28C9.12676 32.1839 9.09125 32.0878 9.07096 31.9917C8.76663 30.3078 8.16813 28.7301 7.41745 27.1928C6.77835 25.8831 5.97695 24.6897 5.00309 23.6177C3.75534 22.2372 2.23877 21.2815 0.422935 20.8162C0.331637 20.7909 0.245416 20.7657 0.143973 20.796C0.083107 20.8162 0.00195312 20.8061 0.00195312 20.6999C0.00195312 20.6038 0.0678807 20.5887 0.133819 20.6038C0.3012 20.6443 0.448294 20.5786 0.595387 20.5381C2.5786 19.9869 4.15605 18.839 5.45452 17.2664C6.52982 15.9617 7.31601 14.4952 7.9906 12.958C8.50796 11.7797 8.84272 10.5509 9.09125 9.29178C9.1014 9.24121 9.1014 9.1957 9.08111 9.14514C9.05575 9.044 9.08618 9.00354 9.18255 9.01872Z" fill="#FFD452"/>
<path d="M26.142 0.00226494C26.1928 -0.00279186 26.208 0.0123788 26.1877 0.05789C26.1776 0.0882308 26.1826 0.118572 26.1877 0.148913C26.3399 0.993398 26.6239 1.79237 26.9942 2.56606C27.3289 3.26896 27.7448 3.91117 28.2622 4.4927C28.9165 5.23099 29.7129 5.74173 30.6766 5.98951C30.7273 5.99963 30.7729 6.0148 30.8236 5.99963C30.8541 5.98951 30.8896 5.99457 30.8947 6.04514C30.8947 6.09571 30.8642 6.10582 30.8287 6.10076C30.7374 6.08054 30.6563 6.11594 30.57 6.14122C29.8853 6.33843 29.2766 6.66713 28.739 7.13235C28.2977 7.52172 27.9376 7.97683 27.6028 8.45217C27.2528 8.9528 27.0043 9.50904 26.7558 10.0602C26.4768 10.6671 26.3094 11.3093 26.1826 11.9616C26.1775 11.9919 26.1776 12.0223 26.1877 12.0526C26.1928 12.0678 26.1978 12.088 26.1775 12.0981C26.1522 12.1133 26.1218 12.1082 26.0964 12.0981C26.0761 12.0931 26.0761 12.0678 26.0812 12.0526C26.1065 12.002 26.0863 11.9515 26.0761 11.9009C25.9189 11.0261 25.6044 10.2069 25.2189 9.41297C24.8892 8.73535 24.4733 8.11843 23.9661 7.55712C23.3219 6.84411 22.5357 6.34349 21.5923 6.10582C21.5467 6.09571 21.501 6.08054 21.4503 6.09571C21.4199 6.10582 21.3793 6.10076 21.3742 6.04514C21.3742 5.99457 21.4097 5.98446 21.4401 5.99457C21.5264 6.0148 21.6025 5.9794 21.6785 5.95917C22.7082 5.67094 23.5248 5.07929 24.1994 4.26009C24.7573 3.58248 25.1631 2.82396 25.5131 2.02498C25.7819 1.41311 25.9544 0.775956 26.0862 0.123629C26.0913 0.0983449 26.0913 0.0730602 26.0812 0.0477762C26.0761 0.0174354 26.0913 -0.00784866 26.142 0.00226494Z" fill="#FFD452"/>
<path d="M12.8292 35.9971C12.8596 35.992 12.8749 36.0072 12.8596 36.0375C12.8495 36.0577 12.8546 36.078 12.8596 36.0982C12.9611 36.6696 13.1538 37.2056 13.4024 37.7265C13.6306 38.2018 13.9096 38.6317 14.2545 39.0261C14.6958 39.5217 15.2334 39.8655 15.8776 40.0324C15.9131 40.0425 15.9435 40.0476 15.979 40.0425C15.9993 40.0374 16.0247 40.0425 16.0247 40.0728C16.0247 40.1032 16.0044 40.1133 15.979 40.1082C15.9182 40.0931 15.8624 40.1184 15.8066 40.1335C15.345 40.265 14.9342 40.4875 14.574 40.801C14.2748 41.064 14.0364 41.3674 13.8081 41.691C13.5697 42.0298 13.4074 42.399 13.235 42.7732C13.0473 43.1828 12.9357 43.6126 12.8495 44.0525C12.8444 44.0728 12.8444 44.093 12.8546 44.1132C12.8596 44.1233 12.8596 44.1385 12.8495 44.1436C12.8343 44.1537 12.814 44.1486 12.7937 44.1436C12.7785 44.1385 12.7785 44.1233 12.7836 44.1132C12.7988 44.0778 12.7886 44.0475 12.7785 44.0121C12.672 43.4255 12.464 42.8743 12.2003 42.3383C11.9771 41.8832 11.6981 41.4635 11.3583 41.0893C10.9221 40.6089 10.3946 40.2751 9.76056 40.1133C9.73013 40.1032 9.69969 40.0981 9.66419 40.1082C9.6439 40.1133 9.61346 40.1133 9.61346 40.0728C9.61346 40.0425 9.63882 40.0324 9.65911 40.0374C9.71491 40.0526 9.7707 40.0273 9.82142 40.0122C10.5163 39.82 11.0641 39.4205 11.5155 38.8693C11.8909 38.4142 12.1648 37.9035 12.4032 37.3624C12.5857 36.9528 12.7024 36.523 12.7886 36.083C12.7937 36.0679 12.7937 36.0476 12.7836 36.0325C12.7836 36.0072 12.7937 35.992 12.8292 35.9971Z" fill="#FFD452"/>
<path d="M32.3817 24.7942C32.4071 24.7892 32.4172 24.7993 32.4071 24.8246C32.402 24.8397 32.402 24.8549 32.4071 24.8751C32.4882 25.3252 32.6404 25.7449 32.8381 26.1596C33.0156 26.5338 33.2388 26.8726 33.5126 27.181C33.8575 27.5704 34.2834 27.8435 34.7906 27.975C34.8159 27.98 34.8413 27.9901 34.8717 27.98C34.8869 27.975 34.9072 27.98 34.9072 28.0053C34.9072 28.0306 34.892 28.0356 34.8717 28.0356C34.821 28.0255 34.7804 28.0458 34.7348 28.0559C34.3747 28.1621 34.0502 28.334 33.7662 28.5818C33.5329 28.7891 33.3402 29.0268 33.1627 29.2796C32.9751 29.5426 32.8483 29.8409 32.7114 30.1342C32.5643 30.4578 32.4781 30.7966 32.4071 31.1405C32.402 31.1557 32.402 31.1759 32.4071 31.1911C32.4122 31.2012 32.4122 31.2113 32.402 31.2164C32.3868 31.2214 32.3716 31.2214 32.3614 31.2164C32.3513 31.2113 32.3513 31.2012 32.3564 31.1911C32.3716 31.1658 32.3564 31.1355 32.3513 31.1102C32.2651 30.6449 32.1028 30.2101 31.8949 29.7903C31.7174 29.4313 31.4993 29.1026 31.2306 28.8043C30.8857 28.425 30.4699 28.1621 29.9729 28.0356C29.9475 28.0306 29.9222 28.0205 29.8968 28.0306C29.8816 28.0356 29.8563 28.0306 29.8563 28.0053C29.8563 27.98 29.8766 27.975 29.8918 27.98C29.9374 27.9901 29.978 27.975 30.0185 27.9598C30.5662 27.8081 30.9973 27.4946 31.3523 27.0597C31.6464 26.7006 31.8645 26.2961 32.0521 25.8764C32.1941 25.5528 32.2854 25.2139 32.3564 24.8701C32.3615 24.8549 32.3615 24.8448 32.3564 24.8296C32.3462 24.7993 32.3564 24.7892 32.3817 24.7942Z" fill="#FFD452"/>
<path d="M33.5477 36.47C33.5731 36.465 33.5832 36.4751 33.5731 36.5004C33.568 36.5155 33.568 36.5307 33.5731 36.5509C33.6542 37.001 33.8064 37.4207 34.0042 37.8353C34.1816 38.2096 34.4048 38.5484 34.6786 38.8568C35.0235 39.2462 35.4495 39.5193 35.9566 39.6507C35.9819 39.6558 36.0073 39.6659 36.0377 39.6558C36.0529 39.6507 36.0732 39.6558 36.0732 39.6811C36.0732 39.7064 36.058 39.7114 36.0377 39.7114C35.987 39.7013 35.9464 39.7215 35.9008 39.7316C35.5407 39.8378 35.2162 40.0098 34.9322 40.2576C34.6989 40.4649 34.5062 40.7026 34.3287 40.9554C34.1411 41.2183 34.0143 41.5167 33.8774 41.81C33.7303 42.1336 33.6441 42.4724 33.5731 42.8163C33.568 42.8315 33.568 42.8517 33.5731 42.8669C33.5782 42.877 33.5782 42.8871 33.568 42.8921C33.5528 42.8972 33.5376 42.8972 33.5275 42.8921C33.5173 42.8871 33.5173 42.877 33.5224 42.8669C33.5376 42.8416 33.5224 42.8112 33.5173 42.786C33.4311 42.3207 33.2688 41.8858 33.0609 41.4661C32.8834 41.1071 32.6654 40.7784 32.3966 40.4801C32.0517 40.1008 31.6359 39.8378 31.1389 39.7114C31.1136 39.7064 31.0882 39.6963 31.0629 39.7064C31.0476 39.7114 31.0223 39.7064 31.0223 39.6811C31.0223 39.6558 31.0426 39.6507 31.0578 39.6558C31.1034 39.6659 31.144 39.6507 31.1846 39.6356C31.7323 39.4839 32.1633 39.1703 32.5183 38.7355C32.8124 38.3764 33.0305 37.9719 33.2181 37.5522C33.3601 37.2285 33.4514 36.8897 33.5224 36.5459C33.5275 36.5307 33.5275 36.5206 33.5224 36.5054C33.5123 36.4751 33.5224 36.465 33.5477 36.47Z" fill="#FFD452"/>
<path d="M23.6201 40.056C23.6455 40.0509 23.6556 40.061 23.6455 40.0863C23.6404 40.1015 23.6404 40.1166 23.6455 40.1369C23.7266 40.5869 23.8788 41.0066 24.0765 41.4213C24.254 41.7955 24.4772 42.1343 24.751 42.4428C25.0959 42.8321 25.5218 43.1052 26.029 43.2367C26.0543 43.2417 26.0797 43.2518 26.1101 43.2417C26.1253 43.2367 26.1456 43.2417 26.1456 43.267C26.1456 43.2923 26.1304 43.2974 26.1101 43.2974C26.0594 43.2872 26.0188 43.3075 25.9732 43.3176C25.6131 43.4238 25.2886 43.5957 25.0046 43.8435C24.7713 44.0508 24.5786 44.2885 24.4011 44.5413C24.2135 44.8043 24.0867 45.1026 23.9498 45.3959C23.8027 45.7196 23.7165 46.0584 23.6455 46.4022C23.6404 46.4174 23.6404 46.4376 23.6455 46.4528C23.6506 46.4629 23.6506 46.473 23.6404 46.4781C23.6252 46.4831 23.61 46.4831 23.5998 46.4781C23.5897 46.473 23.5897 46.4629 23.5948 46.4528C23.61 46.4275 23.5948 46.3972 23.5897 46.3719C23.5035 45.9067 23.3412 45.4718 23.1333 45.0521C22.9558 44.693 22.7377 44.3643 22.469 44.066C22.1241 43.6867 21.7083 43.4238 21.2113 43.2974C21.186 43.2923 21.1606 43.2822 21.1352 43.2923C21.12 43.2974 21.0947 43.2923 21.0947 43.267C21.0947 43.2417 21.115 43.2367 21.1302 43.2417C21.1758 43.2518 21.2164 43.2367 21.2569 43.2215C21.8046 43.0698 22.2357 42.7563 22.5907 42.3214C22.8848 41.9624 23.1029 41.5578 23.2905 41.1381C23.4325 40.8145 23.5238 40.4757 23.5948 40.1318C23.5998 40.1166 23.5998 40.1065 23.5948 40.0913C23.5846 40.0661 23.5948 40.056 23.6201 40.056Z" fill="#FFD452"/>
<path d="M21.3797 23.3555C21.3899 23.3555 21.3949 23.3605 21.3898 23.3706C21.3848 23.3757 21.3898 23.3858 21.3898 23.3909C21.4253 23.5931 21.4963 23.7853 21.5826 23.9724C21.6637 24.1393 21.7651 24.296 21.8868 24.4326C22.044 24.6096 22.2367 24.7309 22.4649 24.7916C22.4751 24.7967 22.4903 24.7967 22.5004 24.7967C22.5055 24.7967 22.5157 24.7967 22.5157 24.8068C22.5157 24.8169 22.5106 24.8219 22.5004 24.8219C22.4802 24.8169 22.4599 24.827 22.4396 24.8321C22.2773 24.8776 22.1303 24.9585 21.9984 25.0697C21.8919 25.1607 21.8057 25.272 21.7246 25.3883C21.6383 25.5097 21.5826 25.6411 21.5217 25.7726C21.4558 25.9193 21.4152 26.071 21.3848 26.2277C21.3848 26.2328 21.3848 26.2429 21.3848 26.248C21.3848 26.253 21.3898 26.2581 21.3848 26.2581C21.3797 26.2631 21.3696 26.2631 21.3645 26.2581C21.3594 26.2581 21.3594 26.253 21.3594 26.248C21.3645 26.2378 21.3594 26.2227 21.3594 26.2126C21.3189 26.0052 21.2479 25.808 21.1515 25.6159C21.0704 25.454 20.974 25.3023 20.8523 25.1709C20.6951 24.9989 20.5075 24.8776 20.2843 24.8219C20.2742 24.8169 20.264 24.8169 20.2488 24.8169C20.2387 24.8169 20.2336 24.8169 20.2336 24.8068C20.2336 24.7967 20.2438 24.7916 20.2488 24.7967C20.2691 24.8017 20.2894 24.7916 20.3046 24.7865C20.5531 24.7157 20.7458 24.5742 20.9081 24.3769C21.0399 24.2151 21.1414 24.0331 21.2225 23.8409C21.2884 23.6943 21.329 23.5426 21.3594 23.3858C21.3594 23.3808 21.3594 23.3757 21.3594 23.3656C21.3645 23.3605 21.3696 23.3555 21.3797 23.3555Z" fill="#FFD452"/>
<path d="M1.14804 34.3673C1.15818 34.3673 1.16326 34.3723 1.15819 34.3824C1.15312 34.3875 1.15819 34.3976 1.15819 34.4027C1.19369 34.6049 1.26467 34.7971 1.35088 34.9842C1.43202 35.1511 1.53345 35.3078 1.65516 35.4444C1.81237 35.6214 2.00508 35.7427 2.23328 35.8034C2.24343 35.8085 2.25864 35.8085 2.26879 35.8085C2.27386 35.8085 2.284 35.8085 2.284 35.8186C2.284 35.8287 2.27893 35.8338 2.26879 35.8338C2.2485 35.8287 2.2282 35.8388 2.20792 35.8439C2.04564 35.8894 1.89858 35.9703 1.76673 36.0815C1.66023 36.1726 1.57403 36.2838 1.49289 36.4001C1.40668 36.5215 1.35089 36.653 1.29003 36.7844C1.2241 36.9311 1.18354 37.0828 1.15311 37.2395C1.15311 37.2446 1.15311 37.2547 1.15311 37.2598C1.15311 37.2648 1.15818 37.2699 1.15311 37.2699C1.14804 37.2749 1.1379 37.2749 1.13282 37.2699C1.12775 37.2699 1.12776 37.2648 1.12776 37.2598C1.13283 37.2497 1.12776 37.2345 1.12776 37.2244C1.08719 37.017 1.01619 36.8198 0.919842 36.6277C0.838702 36.4659 0.742351 36.3141 0.620642 36.1827C0.463434 36.0107 0.275786 35.8894 0.0526529 35.8338C0.0425105 35.8287 0.0323798 35.8287 0.0171662 35.8287C0.00702372 35.8287 0.00195312 35.8287 0.00195312 35.8186C0.00195312 35.8085 0.0120949 35.8034 0.0171662 35.8085C0.037451 35.8135 0.0577284 35.8034 0.0729421 35.7984C0.321432 35.7276 0.514139 35.586 0.676418 35.3888C0.80827 35.2269 0.909691 35.0449 0.990831 34.8527C1.05676 34.7061 1.09734 34.5544 1.12776 34.3976C1.12776 34.3926 1.12776 34.3875 1.12776 34.3774C1.13283 34.3723 1.13789 34.3673 1.14804 34.3673Z" fill="#FFD452"/>
</svg>
