<svg width="126" height="80" viewBox="0 0 126 80" fill="none" xmlns="http://www.w3.org/2000/svg">
<g clip-path="url(#clip0_553_59)">
<path d="M37.4953 32.6795L41.9007 21.1464L0.383997 5.58008C0.383997 5.58008 -2.63426 17.6381 8.27468 21.7265L37.4953 32.6795Z" fill="#FFAA17"/>
<path d="M41.05 48.5633L45.4554 37.0301L3.93868 21.4707C3.93868 21.4707 0.92043 33.5287 11.8294 37.6171L41.05 48.5633Z" fill="#FFAA17"/>
<path d="M7.4872 37.3555C7.4872 37.3555 4.46894 49.4135 15.3849 53.5019L44.6055 64.4549L49.0179 52.9149L7.4872 37.3555Z" fill="#FFAA17"/>
<path d="M37.4953 27.0995L41.9007 15.5594L0.383997 0C0.383997 0 -2.63426 12.058 8.27468 16.1464L37.4953 27.0995Z" fill="#FFDA33"/>
<path d="M41.05 42.9842L45.4554 31.4511L3.93868 15.8848C3.93868 15.8848 0.92043 27.9428 11.8294 32.0312L41.05 42.9842Z" fill="#FFDA33"/>
<path d="M7.4872 31.7754C7.4872 31.7754 4.46894 43.8265 15.3848 47.9218L44.6055 58.8679L49.0039 47.3348L7.4872 31.7754Z" fill="#FFDA33"/>
<path d="M28.1471 48.2879C28.5464 50.0239 29.1161 51.717 29.848 53.3432L44.6047 58.868L49.0031 47.3349L26.6973 38.9785C26.9488 42.1128 27.4334 45.2243 28.1471 48.2879Z" fill="#FFAA17"/>
<path d="M26.6209 37.5767L41.05 42.9842L45.4554 31.451L27.1088 24.5449C26.5272 28.8635 26.3638 33.2273 26.6209 37.5767Z" fill="#FFAA17"/>
<path d="M41.9003 15.5586L30.3431 11.2285C28.8996 15.1253 27.8762 19.1625 27.29 23.2727L37.495 27.0987L41.9003 15.5586Z" fill="#FFAA17"/>
<path d="M88.506 32.6795L84.1006 21.1464L125.617 5.58008C125.617 5.58008 128.636 17.6381 117.72 21.7265L88.506 32.6795Z" fill="#FFAA17"/>
<path d="M84.9503 48.5633L80.5449 37.0301L122.062 21.4707C122.062 21.4707 125.08 33.5287 114.171 37.6171L84.9503 48.5633Z" fill="#FFAA17"/>
<path d="M118.507 37.3555C118.507 37.3555 121.525 49.4135 110.616 53.5019L81.3956 64.4549L76.9902 52.9149L118.507 37.3555Z" fill="#FFAA17"/>
<path d="M88.506 27.0995L84.1006 15.5594L125.617 0C125.617 0 128.636 12.058 117.72 16.1464L88.506 27.0995Z" fill="#FFDA33"/>
<path d="M84.9503 42.9842L80.5449 31.4511L122.062 15.8848C122.062 15.8848 125.08 27.9428 114.171 32.0312L84.9503 42.9842Z" fill="#FFDA33"/>
<path d="M118.507 31.7754C118.507 31.7754 121.525 43.8265 110.616 47.9218L81.3956 58.8679L76.9902 47.3348L118.507 31.7754Z" fill="#FFDA33"/>
<path d="M97.8531 48.2879C97.4547 50.025 96.8826 51.7185 96.1454 53.3432L81.3956 58.868L76.9902 47.3349L99.2961 38.9785C99.0434 42.1122 98.5612 45.2235 97.8531 48.2879Z" fill="#FFAA17"/>
<path d="M99.3794 37.5767L84.9503 42.9842L80.5449 31.451L98.8915 24.5449C99.4696 28.8638 99.633 33.2272 99.3794 37.5767Z" fill="#FFAA17"/>
<path d="M84.1006 15.5586L95.6578 11.2285C97.1014 15.1253 98.1247 19.1625 98.7109 23.2727L88.506 27.0987L84.1006 15.5586Z" fill="#FFAA17"/>
<path d="M91.5382 17.1199L77.7922 18.584L63.0076 8.77734L48.2161 18.584L34.4632 17.1199C34.4632 17.1199 27.4089 33.7911 32.1768 54.4127C36.9447 75.0342 62.9588 79.9652 63.0007 79.9997C63.0007 79.9997 89.0845 74.9652 93.8245 54.3851C98.5645 33.805 91.5382 17.1199 91.5382 17.1199Z" fill="#FFAA17"/>
<g style="mix-blend-mode:overlay" opacity="0.8">
<path d="M91.538 13.328L77.792 14.7851L63.0074 4.97852L48.2159 14.7851L34.4699 13.328C34.4699 13.328 27.4366 30.0269 32.1836 50.6208C36.9305 71.2147 62.9586 76.2285 63.0005 76.2354C63.0005 76.2354 89.0843 71.2009 93.8243 50.6208C98.5643 30.0407 91.538 13.328 91.538 13.328Z" fill="white"/>
</g>
<path d="M91.538 12.7616L77.792 14.2187L63.0074 4.41211L48.2159 14.2187L34.4699 12.7616C34.4699 12.7616 27.4366 29.4605 32.1836 50.0544C36.9305 70.6483 62.9796 75.669 63.0074 75.6759C63.0074 75.6759 89.0913 70.6414 93.8313 50.0544C98.5713 29.4674 91.538 12.7616 91.538 12.7616Z" fill="#FFDA33"/>
<g style="mix-blend-mode:overlay" opacity="0.2">
<path d="M78.1476 14.1773L77.7851 14.2187L63.0005 4.41211L56.957 8.41763L92.4024 54.4604C92.9925 53.0313 93.4589 51.5549 93.7965 50.0475C94.8039 45.6513 95.3505 41.1639 95.4276 36.6566L78.1476 14.1773Z" fill="white"/>
</g>
<g style="mix-blend-mode:overlay" opacity="0.2">
<path d="M33.0205 17.1211C30.2578 27.0389 29.7814 37.4451 31.6264 47.57L49.3734 70.6225C53.6521 72.9186 58.2277 74.6241 62.973 75.6915C67.0892 74.7687 71.0791 73.3614 74.8578 71.4995L33.0205 17.1211Z" fill="white"/>
</g>
<path d="M63 69.0196C58.274 67.7834 41.7328 62.5002 38.5333 48.6121C36.4219 39.0837 36.6058 29.1965 39.07 19.7516L49.8675 20.898L63 12.1895L76.1256 20.898L86.93 19.7516C89.3911 29.1969 89.5749 39.0834 87.4667 48.6121C84.2603 62.5002 67.7261 67.7834 63 69.0196Z" fill="#FFAA17"/>
<path d="M49.0173 23.4464L62.7493 14.7378L76.4813 23.4464L87.5506 22.3207C87.3485 21.3815 87.1463 20.5182 86.9442 19.7516L76.1398 20.898L63.0142 12.1895L49.8817 20.898L39.0842 19.7516C38.8821 20.532 38.673 21.416 38.4639 22.369L49.0173 23.4464Z" fill="#FF8800"/>
</g>
<defs>
<clipPath id="clip0_553_59">
<rect width="126" height="80" fill="white"/>
</clipPath>
</defs>
</svg>
