<svg width="15" height="16" viewBox="0 0 15 16" fill="none" xmlns="http://www.w3.org/2000/svg">
<path d="M11.8999 9.44925C11.6293 9.73111 11.5041 10.1304 11.5642 10.5232L11.7107 11.4719L11.955 13.0626C12.1091 14.0648 11.107 14.8229 10.2401 14.361L8.15949 13.2518L8.04175 13.1892C7.70228 13.0078 7.29893 13.0078 6.95821 13.1892L5.81329 13.7999H5.81204L4.75982 14.361C4.16982 14.6768 3.51469 14.4236 3.20779 13.9134H3.20654C3.06374 13.6746 2.99609 13.381 3.04495 13.0626L3.43577 10.5232C3.4959 10.1304 3.37189 9.73111 3.10006 9.44925L1.35137 7.63411C0.964303 7.23219 0.914196 6.66846 1.11712 6.22349C1.11838 6.21696 1.12214 6.21174 1.12464 6.20652C1.28498 5.86724 1.59188 5.60104 2.0065 5.53318L2.12801 5.51361L2.22196 5.49795L4.44665 5.13518C4.8237 5.07385 5.14939 4.82722 5.32225 4.47228L6.43961 2.17823C6.88054 1.27392 8.12066 1.27392 8.56034 2.17823L9.6777 4.47228C9.85056 4.82722 10.1763 5.07385 10.5546 5.13518L11.8836 5.3518L12.9935 5.53318C13.9555 5.68977 14.3388 6.9177 13.6486 7.63411L11.8999 9.44925Z" fill="url(#paint0_linear_440_1548)" stroke="url(#paint1_linear_440_1548)" stroke-width="1.38" stroke-miterlimit="10"/>
<g opacity="0.4">
<path d="M12.9935 5.53319L11.8836 5.3518L10.5546 5.13518C10.1763 5.07385 9.85056 4.82722 9.6777 4.47228L8.56034 2.17823C8.12066 1.27392 6.88054 1.27392 6.43961 2.17823L5.32225 4.47228C5.14939 4.82722 4.8237 5.07385 4.44665 5.13518L2.22196 5.49795L2.12801 5.51361L2.0065 5.53319C1.59188 5.60104 1.28498 5.86724 1.12464 6.20652C1.12214 6.21174 1.11838 6.21696 1.11712 6.22349C0.914196 6.66847 0.964303 7.23219 1.35137 7.63411L3.10006 9.44925C3.37189 9.73111 3.4959 10.1304 3.43577 10.5232L3.04495 13.0626C2.99609 13.381 3.06374 13.6746 3.20654 13.9134H3.20779C3.44329 13.9264 3.68004 13.933 3.91804 13.933C4.56065 13.933 5.19198 13.8886 5.81204 13.7999H5.81329L6.95821 13.1892C7.29893 13.0078 7.70228 13.0078 8.04175 13.1892L8.15949 13.2518C9.21046 12.906 10.2076 12.4336 11.1345 11.8529C11.3299 11.7303 11.5216 11.6037 11.7107 11.4719L11.5642 10.5232C11.5041 10.1304 11.6293 9.73111 11.8999 9.44925L13.6486 7.63411C14.3388 6.9177 13.9555 5.68978 12.9935 5.53319Z" fill="white"/>
</g>
<g opacity="0.5">
<path d="M10.5546 5.13518L11.8837 5.3518C9.798 8.01906 6.82673 9.90597 3.43582 10.5232C3.49594 10.1304 3.37193 9.73111 3.10011 9.44925L1.35142 7.6341C0.661208 6.9177 1.04452 5.68977 2.00655 5.53318L4.4467 5.13518C4.82375 5.07385 5.14944 4.82722 5.3223 4.47228L6.43966 2.17823C6.88059 1.27392 8.12071 1.27392 8.56039 2.17823L9.67774 4.47228C9.85061 4.82722 10.1763 5.07385 10.5546 5.13518Z" fill="white"/>
</g>
<path d="M2.17341 5.03927L2.27988 6.108L3.3058 6.21892L2.27988 6.32984L2.17341 7.39857L2.06693 6.32984L1.04102 6.21892L2.06693 6.108L2.17341 5.03927Z" fill="url(#paint2_radial_440_1548)"/>
<path d="M12.9971 6.68411L13.061 7.32744L13.6786 7.39529L13.061 7.46184L12.9971 8.10517L12.932 7.46184L12.3145 7.39529L12.932 7.32744L12.9971 6.68411Z" fill="url(#paint3_radial_440_1548)"/>
<path d="M13.2094 7.1697C12.7823 7.68906 12.3376 8.19146 11.8866 8.68602L11.5471 9.05662C11.4382 9.17276 11.348 9.30194 11.2741 9.44157C11.1238 9.71952 11.0448 10.0379 11.0524 10.3563C11.0524 10.4359 11.0599 10.5155 11.0699 10.5938L11.1075 10.8457L11.1814 11.352C11.2265 11.6899 11.2753 12.0266 11.3167 12.3659L11.3793 12.8735L11.4081 13.128C11.4206 13.2154 11.4194 13.3172 11.3956 13.4085C11.3705 13.5012 11.3254 13.5847 11.2666 13.6539C11.1952 13.7348 11.105 13.7543 11.0248 13.7752C10.9421 13.7935 10.8594 13.8026 10.7768 13.8065C10.6941 13.8065 10.6089 13.8117 10.5312 13.7804C10.6114 13.7987 10.6941 13.7804 10.773 13.7674C10.8532 13.753 10.9321 13.7321 11.0073 13.706C11.0812 13.6786 11.1588 13.6447 11.1926 13.5912C11.2365 13.5273 11.2653 13.4555 11.2778 13.3811C11.2904 13.3054 11.2866 13.2337 11.2691 13.1528L11.2202 12.9022L11.1275 12.3998C11.0636 12.0645 11.011 11.7291 10.9521 11.3924L10.8707 10.8874L10.8306 10.6343C10.8181 10.5442 10.8081 10.4529 10.8081 10.3615C10.8043 9.99747 10.8958 9.63209 11.0749 9.32021C11.1638 9.16493 11.2741 9.02008 11.3981 8.89742L11.7551 8.54509C12.2261 8.07401 12.7096 7.61207 13.2094 7.1697Z" fill="white"/>
<path d="M3.54225 8.98631C3.18024 8.65094 2.82824 8.30514 2.47124 7.96456L1.94262 7.4465L1.8111 7.31601C1.76851 7.27164 1.72341 7.2325 1.67706 7.17508C1.58687 7.06547 1.53176 6.9154 1.5305 6.76794C1.52674 6.62049 1.56933 6.47303 1.64825 6.35037C1.72717 6.2264 1.85494 6.12984 1.99148 6.08808C2.0253 6.07634 2.06162 6.06981 2.09419 6.06329L2.18313 6.04763L2.36226 6.01631L2.72052 5.95367L4.15354 5.71226L4.5118 5.65485C4.62454 5.63658 4.73352 5.60918 4.83999 5.56872C5.05294 5.49043 5.24835 5.36385 5.41621 5.20726C5.58531 5.04675 5.7181 4.86015 5.82207 4.63831L6.16153 3.9702C6.38826 3.52522 6.61875 3.08154 6.85049 2.63918L6.93942 2.47345C6.96949 2.41865 7.00456 2.35601 7.05091 2.30903C7.1411 2.20855 7.26636 2.14722 7.39163 2.12895C7.51815 2.11068 7.64842 2.13287 7.75991 2.1942C7.87139 2.25553 7.95407 2.35992 8.00292 2.47476C7.88642 2.2477 7.62587 2.14331 7.4029 2.19811C7.29142 2.22291 7.18995 2.28554 7.12106 2.37558C7.08473 2.41995 7.06093 2.46954 7.03588 2.52695L6.96072 2.6992C6.75529 3.15593 6.54735 3.61134 6.3369 4.06415L6.01873 4.74401C5.91726 4.97759 5.76444 5.20857 5.57905 5.39125C5.39116 5.57394 5.16693 5.71879 4.92517 5.81144C4.80492 5.85711 4.67715 5.89104 4.55188 5.91192L4.19363 5.97194L2.75935 6.199L2.39984 6.2525L2.22071 6.2799L2.13052 6.29295C2.10296 6.29817 2.08041 6.30078 2.05661 6.30861C1.86746 6.3569 1.72967 6.55785 1.72717 6.76925C1.72466 6.87364 1.75598 6.97543 1.81986 7.06025C1.84867 7.1007 1.89377 7.14637 1.93636 7.19204L2.06162 7.32906L2.56143 7.87843C2.88587 8.24512 3.21907 8.60919 3.54225 8.98631Z" fill="white"/>
<path d="M11.651 9.21034L11.6514 9.20989L13.4001 7.39474L13.4001 7.39474C13.9104 6.86515 13.607 5.98259 12.938 5.8737L12.9378 5.87367L11.8281 5.69231L11.828 5.69228L10.4993 5.47574L10.4991 5.47569L10.5546 5.13518C10.1763 5.07385 9.85056 4.82722 9.6777 4.47228L11.651 9.21034ZM11.651 9.21034C11.3049 9.57084 11.147 10.0782 11.2232 10.5754L11.2232 10.5759L11.3697 11.5242L11.3698 11.5246L11.614 13.1149L11.614 13.115C11.7298 13.8682 10.9906 14.37 10.4024 14.0565L8.32179 12.9473L8.32153 12.9472L8.20433 12.8849C8.20421 12.8848 8.20408 12.8847 8.20396 12.8847C7.76279 12.6491 7.23784 12.6494 6.79609 12.8846L6.79584 12.8848L5.72703 13.4549H5.7258L5.6497 13.4954L4.59748 14.0566L4.59701 14.0568C4.19019 14.2745 3.72843 14.1096 3.50343 13.7356L3.48196 13.6999C3.39335 13.5349 3.35213 13.3354 3.38596 13.1149L3.77676 10.5757L3.7768 10.5754C3.85279 10.079 3.6968 9.57112 3.34852 9.20989C3.34848 9.20985 3.34844 9.2098 3.3484 9.20976L1.59987 7.39479L11.651 9.21034ZM9.36753 4.62335L8.25018 2.3293L8.25007 2.32909C7.93643 1.68401 7.06483 1.68315 6.74971 2.32943L5.63242 4.62335C5.41246 5.07499 4.99421 5.39561 4.50218 5.47569C4.50213 5.47569 4.50209 5.4757 4.50205 5.47571L2.27868 5.83826L2.27748 5.83845L2.18473 5.85392L2.18288 5.85422L2.18288 5.85422L2.06222 5.87366C1.77526 5.92062 1.55989 6.10089 1.44164 6.34336L1.43102 6.36664C1.28066 6.69634 1.32098 7.10516 1.59983 7.39474L9.36753 4.62335ZM9.36753 4.62335C9.36753 4.62335 9.36753 4.62335 9.36753 4.62335L9.36753 4.62335Z" stroke="url(#paint4_linear_440_1548)" stroke-width="0.69" stroke-miterlimit="10"/>
<defs>
<linearGradient id="paint0_linear_440_1548" x1="1.00022" y1="8.00001" x2="14.0002" y2="8.00001" gradientUnits="userSpaceOnUse">
<stop offset="0.0036036" stop-color="#FDF041"/>
<stop offset="1" stop-color="#FBA801"/>
</linearGradient>
<linearGradient id="paint1_linear_440_1548" x1="2.82825" y1="4.08284" x2="12.5543" y2="13.4193" gradientUnits="userSpaceOnUse">
<stop stop-color="#FC9873"/>
<stop offset="1" stop-color="#F9A276"/>
</linearGradient>
<radialGradient id="paint2_radial_440_1548" cx="0" cy="0" r="1" gradientUnits="userSpaceOnUse" gradientTransform="translate(2.17358 6.21908) scale(1.13197 1.1792)">
<stop offset="0.0775" stop-color="white"/>
<stop offset="1" stop-color="white" stop-opacity="0"/>
</radialGradient>
<radialGradient id="paint3_radial_440_1548" cx="0" cy="0" r="1" gradientUnits="userSpaceOnUse" gradientTransform="translate(12.9968 7.395) scale(0.681991 0.710451)">
<stop offset="0.0775" stop-color="white"/>
<stop offset="1" stop-color="white" stop-opacity="0"/>
</radialGradient>
<linearGradient id="paint4_linear_440_1548" x1="2.82825" y1="4.08284" x2="12.5543" y2="13.4193" gradientUnits="userSpaceOnUse">
<stop stop-color="#FCBC73"/>
<stop offset="1" stop-color="#F9C576"/>
</linearGradient>
</defs>
</svg>
