<svg width="24" height="24" viewBox="0 0 24 24" fill="none" xmlns="http://www.w3.org/2000/svg">
<rect width="24" height="24" rx="12" fill="#F1B1A7"/>
<path fill-rule="evenodd" clip-rule="evenodd" d="M16.3117 7.68829C16.5628 7.93934 16.5628 8.34637 16.3117 8.59743L8.59743 16.3117C8.34637 16.5628 7.93934 16.5628 7.68829 16.3117C7.43724 16.0607 7.43724 15.6536 7.68829 15.4026L15.4026 7.68829C15.6536 7.43724 16.0607 7.43724 16.3117 7.68829Z" fill="white"/>
<path fill-rule="evenodd" clip-rule="evenodd" d="M7.68829 7.68829C7.93934 7.43724 8.34637 7.43724 8.59743 7.68829L16.3117 15.4026C16.5628 15.6536 16.5628 16.0607 16.3117 16.3117C16.0607 16.5628 15.6536 16.5628 15.4026 16.3117L7.68829 8.59743C7.43724 8.34637 7.43724 7.93934 7.68829 7.68829Z" fill="white"/>
</svg>
