<svg width="16" height="17" viewBox="0 0 16 17" fill="none" xmlns="http://www.w3.org/2000/svg">
<path fill-rule="evenodd" clip-rule="evenodd" d="M2.66602 8.49999C2.66602 8.13181 2.96449 7.83333 3.33268 7.83333H12.666C13.0342 7.83333 13.3327 8.13181 13.3327 8.49999C13.3327 8.86818 13.0342 9.16666 12.666 9.16666H3.33268C2.96449 9.16666 2.66602 8.86818 2.66602 8.49999Z" fill="#569090"/>
<path fill-rule="evenodd" clip-rule="evenodd" d="M8.47075 3.36193C8.7311 3.62228 8.7311 4.04439 8.47075 4.30474L4.27549 8.50001L8.47075 12.6953C8.7311 12.9556 8.7311 13.3777 8.47075 13.6381C8.2104 13.8984 7.78829 13.8984 7.52794 13.6381L2.86128 8.97141C2.60093 8.71106 2.60093 8.28895 2.86128 8.0286L7.52794 3.36193C7.78829 3.10158 8.2104 3.10158 8.47075 3.36193Z" fill="#569090"/>
</svg>
