<svg width="12" height="14" viewBox="0 0 12 14" fill="none" xmlns="http://www.w3.org/2000/svg">
<path d="M10.1399 4.31203H9.44992V3.64003C9.44992 1.78733 7.90225 0.280029 5.99992 0.280029C4.09759 0.280029 2.54992 1.78733 2.54992 3.64003V4.31203H1.85992C1.49392 4.31203 1.14291 4.45363 0.884112 4.70568C0.625312 4.95773 0.479919 5.29958 0.479919 5.65603V12.376C0.479919 12.7325 0.625312 13.0743 0.884112 13.3264C1.14291 13.5784 1.49392 13.72 1.85992 13.72H10.1399C10.5059 13.72 10.8569 13.5784 11.1157 13.3264C11.3745 13.0743 11.5199 12.7325 11.5199 12.376V5.65603C11.5199 5.29958 11.3745 4.95773 11.1157 4.70568C10.8569 4.45363 10.5059 4.31203 10.1399 4.31203ZM3.92992 3.64003C3.92992 2.52854 4.85866 1.62403 5.99992 1.62403C7.14118 1.62403 8.06992 2.52854 8.06992 3.64003V4.31203H3.92992V3.64003ZM6.68992 9.50188V11.032H5.30992V9.50188C4.89937 9.26937 4.61992 8.84064 4.61992 8.34403C4.61992 7.98758 4.76531 7.64573 5.02411 7.39368C5.28291 7.14163 5.63392 7.00003 5.99992 7.00003C6.36592 7.00003 6.71693 7.14163 6.97573 7.39368C7.23453 7.64573 7.37992 7.98758 7.37992 8.34403C7.37992 8.83996 7.10047 9.2687 6.68992 9.50188Z" fill="#2F4F4F"/>
</svg>
