<svg width="80" height="100" viewBox="0 0 80 100" fill="none" xmlns="http://www.w3.org/2000/svg">
<path d="M39.8459 75.0808C58.6269 75.0808 73.8519 59.9042 73.8519 41.183C73.8519 22.4617 58.6269 7.28516 39.8459 7.28516C21.0649 7.28516 5.83984 22.4617 5.83984 41.183C5.83984 59.9042 21.0649 75.0808 39.8459 75.0808Z" fill="url(#paint0_linear_220_17261)"/>
<path d="M40.2903 70.8714C56.6162 70.8714 69.8511 57.6787 69.8511 41.4047C69.8511 25.1307 56.6162 11.938 40.2903 11.938C23.9643 11.938 10.7295 25.1307 10.7295 41.4047C10.7295 57.6787 23.9643 70.8714 40.2903 70.8714Z" fill="url(#paint1_linear_220_17261)"/>
<path fill-rule="evenodd" clip-rule="evenodd" d="M64.5924 0L62.289 3.01984C61.2106 4.4336 58.5225 7.86898 55.7952 11.3544L55.4919 11.742C52.6594 15.3619 49.8481 18.9562 48.799 20.3392C48.116 21.2413 47.3039 22.282 46.4531 23.3723C45.0471 25.1741 43.5353 27.1112 42.3261 28.7822C43.0575 28.6032 44.038 28.368 45.1814 28.0974C47.5439 27.5383 50.6052 26.8271 53.6085 26.1461C56.611 25.4653 59.5588 24.8139 61.693 24.3747C62.7583 24.1555 63.6288 23.9875 64.2037 23.8955C64.4837 23.8506 64.72 23.8193 64.8768 23.8138C64.9175 23.8123 64.9665 23.812 65.0163 23.8165L65.0184 23.8167C65.0487 23.8194 65.1635 23.8295 65.278 23.8971C65.3459 23.9372 65.4647 24.0283 65.5187 24.1977C65.5752 24.3749 65.5261 24.5267 65.4809 24.612C65.4112 24.7433 65.3026 24.8141 65.2772 24.8307L65.2751 24.8321C63.4864 26.0075 60.5236 28.6841 57.2552 31.7675C55.9558 32.9933 54.6104 34.2811 53.2799 35.5548C51.287 37.4624 49.3273 39.3382 47.605 40.9264L47.605 40.9265C43.5353 44.6775 36.547 52.6247 30.2987 59.9682C25.4268 65.6939 21.0267 71.0263 18.8352 73.6821C18.2187 74.4293 17.7769 74.9646 17.5487 75.2372L14.5391 78.8321L16.6756 74.6622C22.4242 63.4421 31.0235 51.3268 38.7618 41.1721C36.0223 42.0207 32.3951 43.3684 28.7581 44.7668C27.2068 45.3632 25.6541 45.9688 24.1717 46.5468C21.5018 47.5881 19.0604 48.5402 17.2671 49.1897L15.7062 49.7551L16.6551 48.3965C25.6495 35.5204 47.5128 12.829 61.553 2.283L64.5924 0ZM18.511 47.6084C20.0359 47.0326 21.839 46.3294 23.7684 45.5769C25.2535 44.9978 26.8134 44.3894 28.3791 43.7874C32.7319 42.1138 37.1324 40.4883 40.0143 39.7138L41.5116 39.3114L40.5696 40.5394C33.6646 49.5409 25.9634 60.1958 20.1625 70.4242C22.5489 67.5413 25.8963 63.5193 29.4956 59.2892C35.7337 51.9578 42.7644 43.9584 46.8899 40.1559C48.608 38.5716 50.5519 36.7107 52.537 34.8105C53.8685 33.5359 55.2186 32.2435 56.5314 31.0051C58.9532 28.7203 61.257 26.6103 63.0525 25.1721C62.7064 25.2397 62.3225 25.317 61.9059 25.4027C59.7823 25.8397 56.8429 26.4892 53.8421 27.1696C50.8421 27.8499 47.784 28.5603 45.4246 29.1187C44.2448 29.398 43.2405 29.639 42.5059 29.8191C42.1384 29.9092 41.8396 29.9838 41.6206 30.0401C41.511 30.0683 41.4228 30.0916 41.3568 30.1097C41.3237 30.1188 41.2975 30.1262 41.2776 30.132C41.2718 30.1337 41.2668 30.1352 41.2626 30.1365C41.2595 30.1374 41.2569 30.1383 41.2545 30.139C41.2495 30.1406 41.2473 30.1413 41.2473 30.1413L39.7337 30.6719L40.6378 29.3504C41.9462 27.438 43.8967 24.9383 45.6545 22.6856C46.4976 21.605 47.2965 20.5813 47.9588 19.7065L47.959 19.7061C49.0143 18.315 51.8326 14.7118 54.6615 11.0964L54.958 10.7175C56.3372 8.9549 57.7048 7.20725 58.8591 5.72745C45.508 16.571 27.2252 35.6621 18.511 47.6084ZM64.6957 23.9555L64.6955 23.9556L64.6957 23.9555Z" fill="url(#paint2_linear_220_17261)"/>
<path d="M17.1441 74.9009C19.2089 72.4345 39.0521 48.0946 47.2472 40.5411C52.9898 35.2456 61.3141 26.8061 64.985 24.3938C66.014 23.7182 41.9002 29.356 41.0725 29.6461C43.0002 26.8287 46.3149 22.7486 48.3787 20.0226C50.483 17.2485 59.638 5.62774 61.8696 2.70215C47.8726 13.2156 26.0486 35.8671 17.0869 48.6964C22.6529 46.6805 34.4499 41.7527 40.1511 40.2206C32.173 50.6209 23.1117 63.2536 17.1441 74.9009Z" fill="url(#paint3_linear_220_17261)"/>
<path d="M22.7839 36.433C22.6343 27.5669 29.083 23.2569 32.326 22.2103C36.1927 21.7177 44.1879 20.8434 45.2357 21.2867C56.0875 25.1656 56.6488 34.0318 56.8359 35.14C57.3972 39.7578 56.8359 50.1016 55.7133 51.5793C45.797 61.369 32.8873 57.4901 31.3905 56.9359C18.1064 52.1335 22.5968 38.6495 22.7839 36.433Z" fill="#DFE2EC" stroke="#466086"/>
<path d="M31.4045 26.2289L32.094 24.0166C32.1206 23.9311 32.2009 23.8738 32.2904 23.8762L45.4985 24.2384C45.5679 24.2403 45.6314 24.2781 45.6662 24.3382L46.3203 25.4683C46.345 25.5109 46.3534 25.5596 46.3433 25.6078C45.9003 27.7299 44.9706 32.0852 44.6747 33.1076C44.1134 34.4006 43.5521 34.5853 42.9908 34.4006C40.9457 33.6664 35.76 34.209 34.9602 34.3971C34.9491 34.3997 34.9399 34.4031 34.9294 34.4076C33.6111 34.9757 32.7858 34.0562 32.5243 33.5012C32.5167 33.485 32.5118 33.4681 32.5091 33.4504L31.3978 26.3192C31.3931 26.289 31.3954 26.2581 31.4045 26.2289Z" fill="#99A2C2" stroke="#466086"/>
<path d="M33.4477 34.2158C32.8242 31.4451 32.0635 25.0541 32.0635 24.6108L31.5771 26.2732C31.8889 28.3666 32.5498 32.8859 32.6995 33.477C32.7704 33.7571 33.0736 34.0311 33.4477 34.2158Z" fill="#D9D9D9"/>
<path d="M44.8614 20.5479C39.8097 18.7002 34.9452 19.994 33.2613 20.9174L32.1387 23.6882L34.1968 29.2296H43.1775L45.7969 23.6882C45.5475 22.8262 45.0111 20.9912 44.8614 20.5479Z" fill="#DFE2EC" stroke="#466086"/>
<path d="M43.6087 20.2281C39.9763 19.4548 35.9083 19.8302 34.0103 20.7609C33.6517 20.9367 33.5073 21.353 33.5784 21.746L33.6011 21.8708C33.6943 22.3833 34.1932 22.6081 34.687 22.4422C38.0717 21.3046 41.1977 21.6441 42.9298 22.1233C43.4042 22.2546 43.8274 22.2483 44.0832 21.8276C44.4231 21.2685 44.2487 20.3643 43.6087 20.2281Z" fill="white"/>
<path d="M35.0224 26.5031L33.4306 21.7888C33.3105 21.4331 32.811 21.4238 32.6777 21.7747L32.0869 23.33C31.9995 23.5601 32 23.8143 32.0884 24.0441L33.8036 28.5032C33.9375 28.8512 34.4327 28.8429 34.5549 28.4907L35.0197 27.1508C35.0924 26.9412 35.0933 26.7133 35.0224 26.5031Z" fill="url(#paint4_linear_220_17261)" stroke="#466086"/>
<path d="M41.5659 26.6431H35.2731C35.1889 26.6431 35.1137 26.6958 35.085 26.775L34.2942 28.961C34.2471 29.0914 34.3437 29.229 34.4823 29.229H42.8312C42.9852 29.229 43.0815 29.0622 43.0043 28.9288L41.739 26.7429C41.7033 26.6811 41.6373 26.6431 41.5659 26.6431Z" fill="url(#paint5_linear_220_17261)" stroke="#466086"/>
<path d="M41.941 26.144L44.6233 21.0035C44.7077 20.8418 44.9469 20.8682 44.9939 21.0445L45.7019 23.7007C45.7632 23.9306 45.7405 24.1748 45.6379 24.3895L43.4495 28.9684C43.3809 29.1119 43.1803 29.1218 43.0979 28.9856L41.9719 27.1242C41.7911 26.8253 41.7794 26.4537 41.941 26.144Z" fill="url(#paint6_linear_220_17261)"/>
<path d="M41.941 26.144L44.6233 21.0035C44.7077 20.8418 44.9469 20.8682 44.9939 21.0445L45.7019 23.7007C45.7632 23.9306 45.7405 24.1748 45.6379 24.3895L43.4495 28.9684C43.3809 29.1119 43.1803 29.1218 43.0979 28.9856L41.9719 27.1242C41.7911 26.8253 41.7794 26.4537 41.941 26.144Z" fill="url(#paint7_linear_220_17261)"/>
<path d="M41.941 26.144L44.6233 21.0035C44.7077 20.8418 44.9469 20.8682 44.9939 21.0445L45.7019 23.7007C45.7632 23.9306 45.7405 24.1748 45.6379 24.3895L43.4495 28.9684C43.3809 29.1119 43.1803 29.1218 43.0979 28.9856L41.9719 27.1242C41.7911 26.8253 41.7794 26.4537 41.941 26.144Z" stroke="#466086"/>
<path d="M18.4805 42.897C18.4805 48.9925 21.9732 51.1475 23.9065 51.3937C25.5902 41.9735 23.3451 37.5404 22.9709 36.4321C18.4805 37.3557 18.4805 41.0499 18.4805 42.897Z" fill="#C4C7D4" stroke="#466086"/>
<path d="M21.2867 25.9035L21.8479 36.4324H22.9705C22.8208 32.2948 24.5921 29.0439 25.5899 27.5662L24.4673 26.458C24.2802 25.3496 23.8686 23.022 23.7189 22.5787C23.3447 21.4704 21.848 21.6551 21.4738 21.8398C20.5757 22.4309 20.6007 24.3026 20.7254 25.1646L21.2867 25.9035Z" fill="#DFE2EC" stroke="#466086"/>
<path d="M20.9131 24.2415L22.41 25.1652L23.907 23.8721" stroke="#466086" stroke-linecap="round"/>
<path d="M23.7185 30.7064C23.1574 29.044 22.5962 26.8274 22.4092 25.165" stroke="#466086" stroke-linecap="round"/>
<path d="M32.6998 21.8401C27.7183 23.7863 24.9008 27.7628 24.0956 29.5924C24.094 29.5961 24.0929 29.5995 24.0919 29.6034L23.7846 30.8166C23.7662 30.8893 23.8575 30.9429 23.9136 30.8923C25.5465 29.4184 29.4949 27.2403 31.362 26.2873C31.3805 26.2778 31.3931 26.2625 31.3987 26.2427C31.6997 25.1751 32.3718 22.916 32.8197 21.8156C32.8443 21.755 32.7613 21.816 32.6998 21.8401Z" fill="#99A2C2"/>
<path d="M23.1578 36.2478C23.0081 26.1995 29.5815 22.6407 32.8869 21.8403C27.6481 24.7957 26.7127 30.337 25.5901 36.0631C24.692 40.6439 25.4654 49.4239 25.5901 53.0565C25.3407 52.9334 24.243 51.8005 24.0933 51.2094C25.9643 41.9738 23.7191 37.5408 23.1578 36.2478Z" fill="white"/>
<path d="M32.6999 22.0249C29.3945 22.8869 22.9707 26.9382 22.9707 36.2477" stroke="#466086"/>
<path d="M23.9064 51.3939C25.9645 42.8972 23.9064 38.4641 22.9709 36.2476C19.7902 37.3558 19.416 38.6488 19.416 38.8335C19.9773 39.9418 20.1644 47.3302 19.9773 48.4385C20.7257 50.2856 23.3451 51.3939 23.9064 51.3939Z" fill="url(#paint8_linear_220_17261)" stroke="#466086"/>
<path d="M61.0781 42.8975C61.0781 48.993 57.3972 50.4707 55.6521 51.3942C53.9684 41.974 56.2135 37.5409 56.5877 36.4326C61.0781 37.3562 61.0781 41.0504 61.0781 42.8975Z" fill="#C4C7D4" stroke="#466086"/>
<path d="M58.2719 25.904L57.7107 36.4328H56.6491C56.6491 32.1845 54.9665 29.0444 53.9687 27.5667L55.0913 26.4584C55.2784 25.3501 55.69 23.0225 55.8397 22.5792C56.2139 21.4709 57.7106 21.6556 58.0848 21.8403C58.9829 22.4314 58.9579 24.3031 58.8332 25.1651L58.2719 25.904Z" fill="#DFE2EC" stroke="#466086"/>
<path d="M58.6455 24.242L57.1486 25.1657L55.6516 23.8726" stroke="#466086" stroke-linecap="round"/>
<path d="M55.8401 31.8151C56.2142 30.4606 57.1494 27.2343 57.1494 25.1655" stroke="#466086" stroke-linecap="round"/>
<path d="M45.603 24.212L44.9393 21.2634C44.9051 21.1114 45.0551 20.9823 45.2023 21.0336C53.0076 23.7584 54.9488 28.2172 55.6005 30.3742C55.665 30.5878 55.3095 30.7793 55.1511 30.6223C52.6079 28.1029 48.382 26.1948 46.4296 25.5578C46.3823 25.5424 46.3443 25.5109 46.3194 25.4679L45.625 24.2682C45.6149 24.2507 45.6075 24.2317 45.603 24.212Z" fill="#99A2C2" stroke="#466086"/>
<path d="M55.6527 51.3942C54.2169 42.8975 55.5266 39.0186 56.8363 36.4326C58.7683 37.1715 60.2041 38.4644 60.2041 38.6492C59.6428 39.7574 59.2686 47.3306 59.4557 48.4388C58.7073 49.7318 56.8363 50.8401 55.6527 51.3942Z" fill="url(#paint9_linear_220_17261)" stroke="#466086"/>
<path d="M26.5255 41.05C26.3758 36.4692 30.4546 34.0926 32.5127 33.4769C32.6998 33.3537 33.1862 33.1074 33.6353 33.1074C38.1257 32.1839 46.3581 33.1074 47.2936 33.4769C51.7839 34.9546 52.3452 39.757 52.5323 41.05C52.9065 46.9608 51.4097 49.7488 49.3516 51.2091C43.3645 55.4575 34.5708 53.9798 33.074 53.4257C26.5255 50.2856 26.7126 44.1901 26.5255 41.05Z" fill="white" stroke="#466086"/>
<path d="M35.8804 40.8657C35.7307 38.2059 33.4481 37.1715 32.3255 36.9868C30.2674 36.9868 29.1448 39.3881 29.1448 40.1269C28.9577 44.0058 31.2029 45.4835 32.3255 45.2988C33.4481 45.1141 36.0675 44.1905 35.8804 40.8657Z" fill="#292929"/>
<path d="M50.2984 40.4961C50.1487 37.8363 47.8661 36.8019 46.7435 36.6172C44.6854 36.6172 43.5628 39.0184 43.5628 39.7573C43.3757 43.6362 45.6209 45.1139 46.7435 44.9292C47.8661 44.7445 50.4855 43.8209 50.2984 40.4961Z" fill="#292929"/>
<path d="M30.0802 41.2344C29.5189 40.6803 30.4545 37.7253 32.1382 37.9096C32.3242 37.93 32.5566 38.2572 32.1382 38.4638C31.0158 39.0179 31.0158 41.9733 30.0802 41.2344Z" fill="white"/>
<path d="M44.4981 40.8653C43.9368 40.3112 44.8725 37.3562 46.5562 37.5405C46.7421 37.5608 46.9746 37.888 46.5561 38.0946C45.4338 38.6488 45.4338 41.6041 44.4981 40.8653Z" fill="white"/>
<path d="M32.3254 34.77C31.0158 34.77 29.8932 36.063 29.7061 36.8018C30.0803 36.6171 30.8287 36.2477 31.7642 35.8783C32.6996 35.5089 34.5706 36.4324 35.1319 36.6171C35.6932 36.8018 34.3835 34.77 32.3254 34.77Z" fill="#292929"/>
<path d="M46.1712 34.4009C44.8615 34.4009 43.7389 35.6939 43.5518 36.4327C43.926 36.248 44.6744 35.8786 45.6099 35.5091C46.5454 35.1397 48.4163 36.0633 48.9776 36.248C49.5389 36.4327 48.2292 34.4009 46.1712 34.4009Z" fill="#292929"/>
<path d="M39.4356 44.0059C38.313 44.0059 37.3775 44.9294 37.1904 45.1141C38.5001 44.9294 40.4959 45.2373 41.3066 45.6683L42.055 44.9294C41.4937 44.6831 39.735 44.1536 39.4356 44.0059Z" fill="#292929"/>
<path d="M44.3001 46.9609C40.8575 48.7342 36.8785 47.9461 35.3193 47.3304C35.3817 47.7614 35.6561 48.8819 36.2548 49.9163C37.3774 51.394 40.371 51.2093 41.3065 51.0246C44.8614 50.4704 44.4872 47.5151 44.3001 46.9609Z" fill="#292929"/>
<path d="M40.5584 48.9925C38.912 48.8447 38.0014 49.7929 37.752 50.2855C40.7455 51.024 42.6165 50.1009 43.1778 49.5471C42.9907 49.4238 42.2049 49.1403 40.5584 48.9925Z" fill="#D33F79"/>
<path d="M55.1892 40.6813C55.1892 36.1005 53.1561 30.7439 52.1582 28.5273C52.7195 28.8592 54.8524 30.3369 55.6008 31.2605C55.975 31.8146 56.4615 34.4012 56.4615 36.433C56.0873 37.4797 55.5634 38.2801 55.1892 40.6813Z" fill="#99A2C2"/>
<path d="M31.2037 61.9228C29.4075 59.4107 30.4553 57.6745 31.2037 57.1203C32.6381 57.5513 36.4425 58.4133 40.1844 58.4133C44.8619 58.4133 47.8555 56.7509 48.9781 56.1968C50.662 56.5662 51.7846 58.2286 51.4104 59.3369C49.5394 64.3241 43.9264 65.2476 42.4296 65.4323C35.3199 65.8018 32.3263 63.4005 31.2037 61.9228Z" fill="#99A2C2" stroke="#466086"/>
<path d="M31.0746 59.6183C30.2673 58.985 30.3241 57.0797 31.0746 56.7486C32.513 57.0062 36.3279 57.5212 40.0802 57.5212C44.7706 57.5212 47.7724 56.5279 48.8981 56.1968C50.5867 56.4175 51.3372 57.8592 51.3371 58.0731C49.461 61.0531 43.8325 61.605 42.3316 61.7153C35.2022 61.9361 32.2003 60.5013 31.0746 59.6183Z" fill="#DFE2EC" stroke="#466086"/>
<path d="M32.887 21.1016L31.3902 26.2735C29.644 27.197 25.7024 29.4136 23.9062 30.8913" stroke="#466086" stroke-linecap="round"/>
<path d="M0 79.9269C0 75.4333 3.08408 71.527 7.45508 70.4844L19.8905 67.5182L32.546 66.3571C37.3571 65.9157 42.2005 65.9597 47.0028 66.4884L59.6715 67.8831L70.5878 69.8861C75.7866 70.84 79.562 75.3713 79.562 80.6569L78.9798 85.7997C78.0642 93.8882 71.2215 99.9999 63.0814 99.9999H16.5393C8.37428 99.9999 1.51909 93.8519 0.633616 85.7351L0 79.9269Z" fill="url(#paint10_linear_220_17261)"/>
<path d="M0 78.467C0 73.9734 3.08408 70.0671 7.45508 69.0245L19.8905 66.0582L32.546 64.8972C37.3571 64.4558 42.2005 64.4998 47.0028 65.0285L59.6715 66.4232L70.5878 68.4262C75.7866 69.3801 79.562 73.9113 79.562 79.1969L78.9798 84.3398C78.0642 92.4283 71.2215 98.54 63.0814 98.54H16.5393C8.37428 98.54 1.51909 92.392 0.633616 84.2751L0 78.467Z" fill="url(#paint11_linear_220_17261)"/>
<path d="M0 78.467C0 73.9734 3.08408 70.0671 7.45508 69.0245L19.8905 66.0582L32.546 64.8972C37.3571 64.4558 42.2005 64.4998 47.0028 65.0285L59.6715 66.4232L70.5878 68.4262C75.7866 69.3801 79.562 73.9113 79.562 79.1969L78.9798 84.3398C78.0642 92.4283 71.2215 98.54 63.0814 98.54H16.5393C8.37428 98.54 1.51909 92.392 0.633616 84.2751L0 78.467Z" fill="url(#paint12_linear_220_17261)"/>
<path d="M5.1091 79.5619C4.90152 75.8253 7.54379 72.533 11.2367 71.9269L22.6274 70.0573C33.7612 68.3733 45.0799 68.3062 56.2329 69.8582L57.6638 70.0573L68.3319 71.8828C72.0271 72.5151 74.6601 75.8187 74.4522 79.5619C74.192 82.0968 74.0619 83.3643 73.71 84.4154C72.5987 87.7347 69.8327 90.2314 66.4172 90.998C65.3357 91.2407 64.0616 91.2407 61.5133 91.2407H17.5407C15.3834 91.2407 14.3048 91.2407 13.392 91.0697C9.55974 90.3517 6.49425 87.4718 5.53859 83.6918C5.31095 82.7914 5.24367 81.7149 5.1091 79.5619Z" fill="url(#paint13_linear_220_17261)"/>
<path d="M5.1091 81.0218C4.90152 77.2852 7.54379 73.993 11.2367 73.3868L22.6274 71.5172C33.7612 69.8333 45.0799 69.7662 56.2329 71.3181L57.6638 71.5172L68.3319 73.3427C72.0271 73.9751 74.6601 77.2787 74.4522 81.0218C74.192 83.5568 74.0619 84.8243 73.71 85.8753C72.5987 89.1947 69.8327 91.6914 66.4172 92.4579C65.3357 92.7007 64.0616 92.7007 61.5133 92.7007H17.5407C15.3834 92.7007 14.3048 92.7007 13.392 92.5296C9.55974 91.8116 6.49425 88.9317 5.53859 85.1518C5.31095 84.2514 5.24367 83.1748 5.1091 81.0218Z" fill="url(#paint14_linear_220_17261)"/>
<mask id="mask0_220_17261" style="mask-type:luminance" maskUnits="userSpaceOnUse" x="11" y="73" width="17" height="16">
<path d="M27.0072 78.9991V79.5208C27.0072 79.6429 26.9601 79.76 26.8761 79.847L23.5912 83.2524L24.1861 87.7924C24.1948 87.858 24.1896 87.9248 24.1709 87.9883C24.1521 88.0517 24.1203 88.1103 24.0775 88.1602C24.0347 88.2101 23.9819 88.2501 23.9226 88.2775C23.8634 88.3049 23.7991 88.3191 23.734 88.3191H23.2605C23.1934 88.3191 23.1272 88.3042 23.0664 88.2753L19.0778 86.3689L15.6396 88.2654C15.5727 88.3021 15.4979 88.3212 15.4219 88.3212H14.6683C14.6067 88.3213 14.5458 88.3086 14.4891 88.284C14.4324 88.2595 14.3813 88.2235 14.3386 88.1782C14.296 88.133 14.2628 88.0794 14.2411 88.0207C14.2193 87.962 14.2095 87.8995 14.2121 87.8368L14.3549 84.3651L14.4187 82.8005L11.798 79.883C11.7211 79.7971 11.6786 79.6851 11.6787 79.5689V79.0795C11.6788 78.9751 11.7134 78.8738 11.7769 78.7919C11.8404 78.7099 11.9292 78.6521 12.0288 78.6277L12.085 78.6135L16.3939 77.5622L18.7082 73.9345C18.7496 73.8695 18.8063 73.816 18.8731 73.779C18.94 73.7421 19.0149 73.7227 19.0909 73.7227H19.3357C19.4136 73.7228 19.4902 73.7432 19.5581 73.782C19.6261 73.8208 19.6832 73.8767 19.7239 73.9444L21.9106 77.5622L23.9531 77.9859L26.2071 78.4554L26.6418 78.5429C26.745 78.5644 26.8377 78.6216 26.9043 78.7047C26.9709 78.7878 27.0072 78.8918 27.0072 78.9991Z" fill="white"/>
</mask>
<g mask="url(#mask0_220_17261)">
<path d="M27.0072 78.9991V79.5208C27.0072 79.6429 26.9601 79.76 26.8761 79.847L23.5912 83.2524L24.1861 87.7924C24.1948 87.858 24.1896 87.9248 24.1709 87.9883C24.1521 88.0517 24.1203 88.1103 24.0775 88.1602C24.0347 88.2101 23.9819 88.2501 23.9226 88.2775C23.8634 88.3049 23.7991 88.3191 23.734 88.3191H23.2605C23.1934 88.3191 23.1272 88.3042 23.0664 88.2753L19.0778 86.3689L15.6396 88.2654C15.5727 88.3021 15.4979 88.3212 15.4219 88.3212H14.6683C14.6067 88.3213 14.5458 88.3086 14.4891 88.284C14.4324 88.2595 14.3813 88.2235 14.3386 88.1782C14.296 88.133 14.2628 88.0794 14.2411 88.0207C14.2193 87.962 14.2095 87.8995 14.2121 87.8368L14.3549 84.3651L14.4187 82.8005L11.798 79.883C11.7211 79.7971 11.6786 79.6851 11.6787 79.5689V79.0795C11.6788 78.9751 11.7134 78.8738 11.7769 78.7919C11.8404 78.7099 11.9292 78.6521 12.0288 78.6277L12.085 78.6135L16.3939 77.5622L18.7082 73.9345C18.7496 73.8695 18.8063 73.816 18.8731 73.779C18.94 73.7421 19.0149 73.7227 19.0909 73.7227H19.3357C19.4136 73.7228 19.4902 73.7432 19.5581 73.782C19.6261 73.8208 19.6832 73.8767 19.7239 73.9444L21.9106 77.5622L23.9531 77.9859L26.2071 78.4554L26.6418 78.5429C26.745 78.5644 26.8377 78.6216 26.9043 78.7047C26.9709 78.7878 27.0072 78.8918 27.0072 78.9991Z" fill="url(#paint15_linear_220_17261)"/>
<path d="M27.0072 78.9978V79.5196C27.0072 79.6416 26.9601 79.7588 26.8761 79.8458L23.5912 83.2511L24.1861 87.7911C24.1948 87.8568 24.1896 87.9236 24.1709 87.987C24.1521 88.0505 24.1203 88.1091 24.0775 88.159C24.0347 88.2089 23.9819 88.2489 23.9226 88.2763C23.8634 88.3037 23.7991 88.3178 23.734 88.3178H23.2605C23.1934 88.3179 23.1272 88.303 23.0664 88.2741L19.0778 86.3677L15.6396 88.2642C15.5727 88.3008 15.4979 88.32 15.4219 88.32H14.6683C14.6067 88.32 14.5458 88.3074 14.4891 88.2828C14.4324 88.2582 14.3813 88.2222 14.3386 88.177C14.296 88.1317 14.2628 88.0781 14.2411 88.0195C14.2193 87.9608 14.2095 87.8983 14.2121 87.8356L14.3549 84.3639L14.4187 82.7993L11.798 79.8818C11.7211 79.7959 11.6786 79.6838 11.6787 79.5676V79.0783C11.6788 78.9739 11.7134 78.8726 11.7769 78.7906C11.8404 78.7087 11.9292 78.6508 12.0288 78.6264L12.085 78.6123C12.9608 79.6538 14.0501 80.4871 15.2763 81.0536C16.5024 81.62 17.8356 81.9059 19.182 81.8909C20.5283 81.876 21.8551 81.5606 23.0688 80.9671C24.2826 80.3736 25.3538 79.5163 26.2071 78.4556L26.6418 78.5417C26.745 78.5632 26.8377 78.6203 26.9043 78.7034C26.9709 78.7866 27.0072 78.8906 27.0072 78.9978Z" fill="url(#paint16_linear_220_17261)"/>
<path opacity="0.3" d="M24.9476 78.9831C24.7833 78.9936 24.621 78.9944 24.4623 78.9929C24.3035 78.9915 24.1392 78.9859 23.977 78.9781C23.6553 78.9626 23.3363 78.935 23.0188 78.9012C22.2326 78.8129 21.5407 78.6738 20.9534 78.0885C20.527 77.6648 20.2247 77.1268 19.9627 76.581C19.6712 75.974 19.4226 75.3466 19.2188 74.7036C19.2562 74.8229 19.4822 74.986 19.5654 75.0835C19.6902 75.2247 19.8118 75.3694 19.9301 75.5177C20.1769 75.8248 20.4112 76.1426 20.6366 76.4667C21.0026 76.9934 21.3472 77.5512 21.9102 77.8823C22.5605 78.2643 23.3454 78.3603 24.0463 78.6145C24.1981 78.6689 24.3493 78.7253 24.4997 78.7868C24.6502 78.8482 24.7992 78.911 24.9476 78.9831Z" fill="white"/>
<path opacity="0.3" d="M18.6038 75.3936C18.3875 76.2196 18.1033 77.0464 17.5888 77.7236C17.0245 78.4642 16.1911 78.9316 15.2628 78.9345H15.1719C15.0506 78.9309 14.9286 78.9267 14.8066 78.9175C14.693 78.9175 14.58 78.8999 14.4717 78.8653C14.8877 78.5532 15.495 78.4141 15.9512 78.1408C16.8705 77.5894 17.3898 76.6934 18.0852 75.9104C18.2485 75.7284 18.4216 75.5558 18.6038 75.3936Z" fill="white"/>
<path opacity="0.2" d="M22.103 86.9424C22.0379 86.8916 21.9713 86.8436 21.9054 86.7934L21.7058 86.6522C21.4381 86.463 21.165 86.2851 20.8883 86.1149C20.6117 85.9447 20.3337 85.7802 20.0474 85.6207C19.761 85.4611 19.4768 85.3149 19.187 85.1716L19.0005 85.0791L18.8285 85.1878C18.5748 85.3474 18.3242 85.5122 18.077 85.6821C17.8288 85.8522 17.5861 86.0295 17.3455 86.2109C17.1049 86.3924 16.8692 86.583 16.6383 86.7807C16.4038 86.9781 16.1793 87.1876 15.9658 87.4084C16.2612 87.318 16.5427 87.2051 16.8221 87.0878C17.1015 86.9706 17.3732 86.8407 17.6429 86.708C17.9126 86.5752 18.1775 86.4347 18.4396 86.2879C18.6406 86.1756 18.8396 86.0591 19.0372 85.9412C19.266 86.0556 19.4969 86.1671 19.7305 86.2738C20.0245 86.4086 20.3219 86.5371 20.6235 86.6564C20.9251 86.7758 21.2288 86.8902 21.5394 86.9925L21.7723 87.0667C21.8514 87.09 21.929 87.1147 22.008 87.1373C22.1661 87.1818 22.3256 87.2241 22.4892 87.2573C22.363 87.1465 22.2341 87.0427 22.103 86.9424Z" fill="url(#paint17_linear_220_17261)"/>
</g>
<mask id="mask1_220_17261" style="mask-type:luminance" maskUnits="userSpaceOnUse" x="32" y="72" width="16" height="15">
<path d="M47.4447 77.5391V78.0609C47.4447 78.1829 47.3976 78.3 47.3136 78.3871L44.0287 81.7924L44.6236 86.3324C44.6323 86.3981 44.6271 86.4648 44.6084 86.5283C44.5896 86.5917 44.5578 86.6504 44.515 86.7003C44.4722 86.7501 44.4194 86.7901 44.3601 86.8175C44.3009 86.8449 44.2366 86.8591 44.1715 86.8591H43.698C43.6309 86.8592 43.5647 86.8442 43.5039 86.8153L39.5153 84.909L36.0771 86.8055C36.0102 86.8421 35.9354 86.8613 35.8594 86.8612H35.1058C35.0442 86.8613 34.9833 86.8487 34.9266 86.8241C34.8699 86.7995 34.8188 86.7635 34.7761 86.7182C34.7335 86.673 34.7003 86.6194 34.6786 86.5607C34.6568 86.5021 34.647 86.4395 34.6496 86.3769L34.7924 82.9052L34.8562 81.3405L32.2355 78.4231C32.1586 78.3372 32.1161 78.2251 32.1162 78.1089V77.6196C32.1163 77.5152 32.1509 77.4139 32.2144 77.3319C32.2779 77.2499 32.3667 77.1921 32.4663 77.1677L32.5225 77.1536L36.8314 76.1023L39.1457 72.4745C39.1871 72.4095 39.2438 72.3561 39.3106 72.3191C39.3775 72.2821 39.4524 72.2627 39.5284 72.2627H39.7732C39.8511 72.2628 39.9277 72.2832 39.9956 72.322C40.0636 72.3609 40.1207 72.4168 40.1614 72.4844L42.3481 76.1023L44.3906 76.5259L46.6446 76.9954L47.0793 77.083C47.1825 77.1045 47.2752 77.1616 47.3418 77.2447C47.4084 77.3278 47.4447 77.4318 47.4447 77.5391Z" fill="white"/>
</mask>
<g mask="url(#mask1_220_17261)">
<path d="M47.4447 77.5391V78.0609C47.4447 78.1829 47.3976 78.3 47.3136 78.3871L44.0287 81.7924L44.6236 86.3324C44.6323 86.3981 44.6271 86.4648 44.6084 86.5283C44.5896 86.5917 44.5578 86.6504 44.515 86.7003C44.4722 86.7501 44.4194 86.7901 44.3601 86.8175C44.3009 86.8449 44.2366 86.8591 44.1715 86.8591H43.698C43.6309 86.8592 43.5647 86.8442 43.5039 86.8153L39.5153 84.909L36.0771 86.8055C36.0102 86.8421 35.9354 86.8613 35.8594 86.8612H35.1058C35.0442 86.8613 34.9833 86.8487 34.9266 86.8241C34.8699 86.7995 34.8188 86.7635 34.7761 86.7182C34.7335 86.673 34.7003 86.6194 34.6786 86.5607C34.6568 86.5021 34.647 86.4395 34.6496 86.3769L34.7924 82.9052L34.8562 81.3405L32.2355 78.4231C32.1586 78.3372 32.1161 78.2251 32.1162 78.1089V77.6196C32.1163 77.5152 32.1509 77.4139 32.2144 77.3319C32.2779 77.2499 32.3667 77.1921 32.4663 77.1677L32.5225 77.1536L36.8314 76.1023L39.1457 72.4745C39.1871 72.4095 39.2438 72.3561 39.3106 72.3191C39.3775 72.2821 39.4524 72.2627 39.5284 72.2627H39.7732C39.8511 72.2628 39.9277 72.2832 39.9956 72.322C40.0636 72.3609 40.1207 72.4168 40.1614 72.4844L42.3481 76.1023L44.3906 76.5259L46.6446 76.9954L47.0793 77.083C47.1825 77.1045 47.2752 77.1616 47.3418 77.2447C47.4084 77.3278 47.4447 77.4318 47.4447 77.5391Z" fill="url(#paint18_linear_220_17261)"/>
<path d="M47.4447 77.5379V78.0596C47.4447 78.1817 47.3976 78.2988 47.3136 78.3858L44.0287 81.7912L44.6236 86.3312C44.6323 86.3968 44.6271 86.4636 44.6084 86.5271C44.5896 86.5905 44.5578 86.6491 44.515 86.699C44.4722 86.7489 44.4194 86.7889 44.3601 86.8163C44.3009 86.8437 44.2366 86.8579 44.1715 86.8579H43.698C43.6309 86.8579 43.5647 86.843 43.5039 86.8141L39.5153 84.9077L36.0771 86.8042C36.0102 86.8409 35.9354 86.86 35.8594 86.86H35.1058C35.0442 86.8601 34.9833 86.8474 34.9266 86.8228C34.8699 86.7983 34.8188 86.7623 34.7761 86.717C34.7335 86.6718 34.7003 86.6182 34.6786 86.5595C34.6568 86.5008 34.647 86.4383 34.6496 86.3756L34.7924 82.9039L34.8562 81.3393L32.2355 78.4218C32.1586 78.3359 32.1161 78.2239 32.1162 78.1077V77.6183C32.1163 77.5139 32.1509 77.4126 32.2144 77.3307C32.2779 77.2487 32.3667 77.1909 32.4663 77.1665L32.5225 77.1523C33.3983 78.1939 34.4876 79.0272 35.7138 79.5936C36.9399 80.1601 38.2731 80.4459 39.6195 80.431C40.9658 80.416 42.2926 80.1007 43.5063 79.5071C44.7201 78.9136 45.7913 78.0563 46.6446 76.9956L47.0793 77.0817C47.1825 77.1032 47.2752 77.1604 47.3418 77.2435C47.4084 77.3266 47.4447 77.4306 47.4447 77.5379Z" fill="url(#paint19_linear_220_17261)"/>
<path opacity="0.3" d="M45.3841 77.5231C45.2198 77.5337 45.0576 77.5344 44.8988 77.533C44.74 77.5316 44.5757 77.5259 44.4135 77.5182C44.0918 77.5026 43.7729 77.4751 43.4553 77.4412C42.6691 77.3529 41.9772 77.2138 41.3899 76.6285C40.9636 76.2049 40.6613 75.6669 40.3992 75.1211C40.1077 74.5141 39.8591 73.8867 39.6553 73.2437C39.6927 73.363 39.9187 73.5261 40.0019 73.6235C40.1267 73.7647 40.2483 73.9095 40.3666 74.0577C40.6134 74.3649 40.8478 74.6826 41.0731 75.0067C41.4392 75.5334 41.7837 76.0912 42.3467 76.4223C42.997 76.8043 43.7819 76.9003 44.4828 77.1545C44.6347 77.2089 44.7858 77.2654 44.9362 77.3268C45.0867 77.3882 45.2358 77.4511 45.3841 77.5231Z" fill="white"/>
<path opacity="0.3" d="M39.0413 73.9336C38.825 74.7597 38.5408 75.5865 38.0263 76.2636C37.462 77.0043 36.6286 77.4717 35.7003 77.4745H35.6094C35.4881 77.471 35.3661 77.4667 35.2441 77.4576C35.1305 77.4576 35.0175 77.44 34.9092 77.4053C35.3252 77.0932 35.9325 76.9541 36.3887 76.6809C37.308 76.1294 37.8273 75.2335 38.5227 74.4504C38.686 74.2684 38.8591 74.0959 39.0413 73.9336Z" fill="white"/>
<path opacity="0.2" d="M42.5405 85.4824C42.4754 85.4316 42.4088 85.3836 42.3429 85.3335L42.1433 85.1922C41.8756 85.003 41.6025 84.8251 41.3258 84.6549C41.0492 84.4848 40.7712 84.3203 40.4849 84.1607C40.1985 84.0011 39.9143 83.855 39.6245 83.7116L39.438 83.6191L39.266 83.7279C39.0123 83.8874 38.7617 84.0522 38.5145 84.2221C38.2663 84.3923 38.0236 84.5695 37.783 84.751C37.5424 84.9324 37.3067 85.1231 37.0758 85.3208C36.8413 85.5181 36.6168 85.7276 36.4033 85.9484C36.6987 85.8581 36.9802 85.7451 37.2596 85.6279C37.539 85.5107 37.8107 85.3808 38.0804 85.248C38.3501 85.1153 38.615 84.9748 38.8771 84.8279C39.0781 84.7157 39.2771 84.5992 39.4747 84.4812C39.7035 84.5956 39.9344 84.7072 40.168 84.8138C40.462 84.9487 40.7594 85.0772 41.061 85.1965C41.3626 85.3158 41.6663 85.4302 41.9769 85.5326L42.2098 85.6067C42.2889 85.63 42.3665 85.6547 42.4455 85.6773C42.6036 85.7218 42.7631 85.7642 42.9267 85.7973C42.8005 85.6865 42.6716 85.5827 42.5405 85.4824Z" fill="url(#paint20_linear_220_17261)"/>
</g>
<mask id="mask2_220_17261" style="mask-type:luminance" maskUnits="userSpaceOnUse" x="52" y="73" width="16" height="16">
<path d="M67.8832 78.9991V79.5208C67.8832 79.6429 67.8361 79.76 67.7521 79.847L64.4672 83.2524L65.0621 87.7924C65.0708 87.858 65.0656 87.9248 65.0468 87.9883C65.0281 88.0517 64.9963 88.1103 64.9535 88.1602C64.9106 88.2101 64.8579 88.2501 64.7986 88.2775C64.7394 88.3049 64.6751 88.3191 64.61 88.3191H64.1365C64.0694 88.3191 64.0031 88.3042 63.9424 88.2753L59.9537 86.3689L56.5156 88.2654C56.4487 88.3021 56.3739 88.3212 56.2979 88.3212H55.5443C55.4827 88.3213 55.4217 88.3086 55.3651 88.284C55.3084 88.2595 55.2572 88.2235 55.2146 88.1782C55.172 88.133 55.1388 88.0794 55.117 88.0207C55.0953 87.962 55.0854 87.8995 55.0881 87.8368L55.2309 84.3651L55.2947 82.8005L52.6739 79.883C52.5971 79.7971 52.5546 79.6851 52.5547 79.5689V79.0795C52.5548 78.9751 52.5894 78.8738 52.6529 78.7919C52.7164 78.7099 52.8051 78.6521 52.9048 78.6277L52.961 78.6135L57.2699 77.5622L59.5842 73.9345C59.6256 73.8695 59.6823 73.816 59.7491 73.779C59.816 73.7421 59.8908 73.7227 59.9669 73.7227H60.2116C60.2896 73.7228 60.3662 73.7432 60.4341 73.782C60.5021 73.8208 60.5592 73.8767 60.5999 73.9444L62.7866 77.5622L64.8291 77.9859L67.0831 78.4554L67.5178 78.5429C67.621 78.5644 67.7137 78.6216 67.7803 78.7047C67.8469 78.7878 67.8832 78.8918 67.8832 78.9991Z" fill="white"/>
</mask>
<g mask="url(#mask2_220_17261)">
<path d="M67.8832 78.9991V79.5208C67.8832 79.6429 67.8361 79.76 67.7521 79.847L64.4672 83.2524L65.0621 87.7924C65.0708 87.858 65.0656 87.9248 65.0468 87.9883C65.0281 88.0517 64.9963 88.1103 64.9535 88.1602C64.9106 88.2101 64.8579 88.2501 64.7986 88.2775C64.7394 88.3049 64.6751 88.3191 64.61 88.3191H64.1365C64.0694 88.3191 64.0031 88.3042 63.9424 88.2753L59.9537 86.3689L56.5156 88.2654C56.4487 88.3021 56.3739 88.3212 56.2979 88.3212H55.5443C55.4827 88.3213 55.4217 88.3086 55.3651 88.284C55.3084 88.2595 55.2572 88.2235 55.2146 88.1782C55.172 88.133 55.1388 88.0794 55.117 88.0207C55.0953 87.962 55.0854 87.8995 55.0881 87.8368L55.2309 84.3651L55.2947 82.8005L52.6739 79.883C52.5971 79.7971 52.5546 79.6851 52.5547 79.5689V79.0795C52.5548 78.9751 52.5894 78.8738 52.6529 78.7919C52.7164 78.7099 52.8051 78.6521 52.9048 78.6277L52.961 78.6135L57.2699 77.5622L59.5842 73.9345C59.6256 73.8695 59.6823 73.816 59.7491 73.779C59.816 73.7421 59.8908 73.7227 59.9669 73.7227H60.2116C60.2896 73.7228 60.3662 73.7432 60.4341 73.782C60.5021 73.8208 60.5592 73.8767 60.5999 73.9444L62.7866 77.5622L64.8291 77.9859L67.0831 78.4554L67.5178 78.5429C67.621 78.5644 67.7137 78.6216 67.7803 78.7047C67.8469 78.7878 67.8832 78.8918 67.8832 78.9991Z" fill="url(#paint21_linear_220_17261)"/>
<path d="M67.8832 78.9978V79.5196C67.8832 79.6416 67.8361 79.7588 67.7521 79.8458L64.4672 83.2511L65.0621 87.7911C65.0708 87.8568 65.0656 87.9236 65.0468 87.987C65.0281 88.0505 64.9963 88.1091 64.9535 88.159C64.9106 88.2089 64.8579 88.2489 64.7986 88.2763C64.7394 88.3037 64.6751 88.3178 64.61 88.3178H64.1365C64.0694 88.3179 64.0031 88.303 63.9424 88.2741L59.9537 86.3677L56.5156 88.2642C56.4487 88.3008 56.3739 88.32 56.2979 88.32H55.5443C55.4827 88.32 55.4217 88.3074 55.3651 88.2828C55.3084 88.2582 55.2572 88.2222 55.2146 88.177C55.172 88.1317 55.1388 88.0781 55.117 88.0195C55.0953 87.9608 55.0854 87.8983 55.0881 87.8356L55.2309 84.3639L55.2947 82.7993L52.6739 79.8818C52.5971 79.7959 52.5546 79.6838 52.5547 79.5676V79.0783C52.5548 78.9739 52.5894 78.8726 52.6529 78.7906C52.7164 78.7087 52.8051 78.6508 52.9048 78.6264L52.961 78.6123C53.8367 79.6538 54.9261 80.4871 56.1522 81.0536C57.3784 81.62 58.7116 81.9059 60.0579 81.8909C61.4043 81.876 62.7311 81.5606 63.9448 80.9671C65.1586 80.3736 66.2298 79.5163 67.0831 78.4556L67.5178 78.5417C67.621 78.5632 67.7137 78.6203 67.7803 78.7034C67.8469 78.7866 67.8832 78.8906 67.8832 78.9978Z" fill="url(#paint22_linear_220_17261)"/>
<path opacity="0.3" d="M65.8226 78.9831C65.6583 78.9936 65.496 78.9944 65.3373 78.9929C65.1785 78.9915 65.0142 78.9859 64.852 78.9781C64.5303 78.9626 64.2113 78.935 63.8938 78.9012C63.1076 78.8129 62.4157 78.6738 61.8284 78.0885C61.402 77.6648 61.0997 77.1268 60.8377 76.581C60.5462 75.974 60.2976 75.3466 60.0938 74.7036C60.1312 74.8229 60.3572 74.986 60.4404 75.0835C60.5652 75.2247 60.6868 75.3694 60.8051 75.5177C61.0519 75.8248 61.2862 76.1426 61.5116 76.4667C61.8776 76.9934 62.2222 77.5512 62.7852 77.8823C63.4355 78.2643 64.2204 78.3603 64.9213 78.6145C65.0731 78.6689 65.2243 78.7253 65.3747 78.7868C65.5252 78.8482 65.6742 78.911 65.8226 78.9831Z" fill="white"/>
<path opacity="0.3" d="M59.4798 75.3936C59.2635 76.2196 58.9792 77.0464 58.4648 77.7236C57.9004 78.4642 57.0671 78.9316 56.1387 78.9345H56.0479C55.9266 78.9309 55.8046 78.9267 55.6825 78.9175C55.5689 78.9175 55.456 78.8999 55.3477 78.8653C55.7636 78.5532 56.371 78.4141 56.8272 78.1408C57.7465 77.5894 58.2658 76.6934 58.9612 75.9104C59.1245 75.7284 59.2976 75.5558 59.4798 75.3936Z" fill="white"/>
<path opacity="0.2" d="M62.979 86.9424C62.9138 86.8916 62.8473 86.8436 62.7814 86.7934L62.5817 86.6522C62.3141 86.463 62.041 86.2851 61.7643 86.1149C61.4877 85.9447 61.2097 85.7802 60.9233 85.6207C60.637 85.4611 60.3527 85.3149 60.0629 85.1716L59.8764 85.0791L59.7045 85.1878C59.4507 85.3474 59.2002 85.5122 58.9529 85.6821C58.7047 85.8522 58.4621 86.0295 58.2215 86.2109C57.9809 86.3924 57.7452 86.583 57.5143 86.7807C57.2798 86.9781 57.0553 87.1876 56.8418 87.4084C57.1371 87.318 57.4186 87.2051 57.698 87.0878C57.9774 86.9706 58.2492 86.8407 58.5189 86.708C58.7886 86.5752 59.0535 86.4347 59.3155 86.2879C59.5166 86.1756 59.7156 86.0591 59.9132 85.9412C60.142 86.0556 60.3728 86.1671 60.6065 86.2738C60.9005 86.4086 61.1979 86.5371 61.4995 86.6564C61.8011 86.7758 62.1047 86.8902 62.4153 86.9925L62.6483 87.0667C62.7273 87.09 62.805 87.1147 62.884 87.1373C63.0421 87.1818 63.2016 87.2241 63.3652 87.2573C63.239 87.1465 63.11 87.0427 62.979 86.9424Z" fill="url(#paint23_linear_220_17261)"/>
</g>
<defs>
<linearGradient id="paint0_linear_220_17261" x1="0.897019" y1="-14.5992" x2="83.1253" y2="93.5705" gradientUnits="userSpaceOnUse">
<stop stop-color="#F1D8A7"/>
<stop offset="1" stop-color="#F1A7D8"/>
</linearGradient>
<linearGradient id="paint1_linear_220_17261" x1="6.43279" y1="-7.08564" x2="77.9123" y2="86.9443" gradientUnits="userSpaceOnUse">
<stop stop-color="#F9EFDC"/>
<stop offset="1" stop-color="#F9DCEF"/>
</linearGradient>
<linearGradient id="paint2_linear_220_17261" x1="63.5841" y1="-2.52005" x2="10.5449" y2="82.4923" gradientUnits="userSpaceOnUse">
<stop stop-color="#FEDFD7"/>
<stop offset="1" stop-color="#FEE6C3"/>
</linearGradient>
<linearGradient id="paint3_linear_220_17261" x1="63.1752" y1="0.394153" x2="15.1579" y2="79.3624" gradientUnits="userSpaceOnUse">
<stop stop-color="#FDAF9B"/>
<stop offset="1" stop-color="#FCC573"/>
</linearGradient>
<linearGradient id="paint4_linear_220_17261" x1="34.1964" y1="29.4134" x2="35.7124" y2="28.8467" gradientUnits="userSpaceOnUse">
<stop stop-color="#6C899D"/>
<stop offset="1" stop-color="#7C98DA"/>
</linearGradient>
<linearGradient id="paint5_linear_220_17261" x1="43.178" y1="29.0443" x2="43.1511" y2="26.5562" gradientUnits="userSpaceOnUse">
<stop stop-color="#6C899D"/>
<stop offset="1" stop-color="#7C98DA"/>
</linearGradient>
<linearGradient id="paint6_linear_220_17261" x1="45.4227" y1="22.2098" x2="46.6636" y2="23.2911" gradientUnits="userSpaceOnUse">
<stop stop-color="#4086B5"/>
<stop offset="1" stop-color="#5286FF"/>
</linearGradient>
<linearGradient id="paint7_linear_220_17261" x1="42.9904" y1="29.0441" x2="42.0515" y2="20.8926" gradientUnits="userSpaceOnUse">
<stop stop-color="#6C899D"/>
<stop offset="1" stop-color="#7C98DA"/>
</linearGradient>
<linearGradient id="paint8_linear_220_17261" x1="23.158" y1="51.3939" x2="25.9052" y2="37.2221" gradientUnits="userSpaceOnUse">
<stop stop-color="#6C899D"/>
<stop offset="1" stop-color="#7C98DA"/>
</linearGradient>
<linearGradient id="paint9_linear_220_17261" x1="57.7718" y1="50.286" x2="55.1942" y2="37.5067" gradientUnits="userSpaceOnUse">
<stop stop-color="#6C899D"/>
<stop offset="1" stop-color="#7C98DA"/>
</linearGradient>
<linearGradient id="paint10_linear_220_17261" x1="-5.78223" y1="54.6192" x2="19.8469" y2="132.56" gradientUnits="userSpaceOnUse">
<stop stop-color="#E5B961"/>
<stop offset="1" stop-color="#EB84C9"/>
</linearGradient>
<linearGradient id="paint11_linear_220_17261" x1="39.781" y1="64.2334" x2="39.781" y2="98.54" gradientUnits="userSpaceOnUse">
<stop stop-color="#F0CDA1"/>
<stop offset="1" stop-color="#F0BD90"/>
</linearGradient>
<linearGradient id="paint12_linear_220_17261" x1="-5.78223" y1="53.1593" x2="19.8469" y2="131.1" gradientUnits="userSpaceOnUse">
<stop stop-color="#F1D8A7"/>
<stop offset="1" stop-color="#F1A7D8"/>
</linearGradient>
<linearGradient id="paint13_linear_220_17261" x1="-0.348467" y1="59.8604" x2="14.1068" y2="115.851" gradientUnits="userSpaceOnUse">
<stop stop-color="#E5B961"/>
<stop offset="1" stop-color="#EB84C9"/>
</linearGradient>
<linearGradient id="paint14_linear_220_17261" x1="5.1091" y1="81.3868" x2="75.1821" y2="81.3868" gradientUnits="userSpaceOnUse">
<stop stop-color="#F98260"/>
<stop offset="1" stop-color="#ED5168"/>
</linearGradient>
<linearGradient id="paint15_linear_220_17261" x1="19.3426" y1="75.6107" x2="19.3426" y2="89.8661" gradientUnits="userSpaceOnUse">
<stop stop-color="#F9EE96"/>
<stop offset="0.98" stop-color="#F9CE15"/>
</linearGradient>
<linearGradient id="paint16_linear_220_17261" x1="19.3426" y1="75.5642" x2="19.3426" y2="90.4198" gradientUnits="userSpaceOnUse">
<stop offset="0.13" stop-color="#F9E161"/>
<stop offset="0.88" stop-color="#F9C810"/>
</linearGradient>
<linearGradient id="paint17_linear_220_17261" x1="19.2272" y1="82.18" x2="19.2272" y2="89.4002" gradientUnits="userSpaceOnUse">
<stop stop-color="#FF8F00"/>
<stop offset="0.15" stop-color="#FA8A00"/>
<stop offset="0.33" stop-color="#EC7A00"/>
<stop offset="0.54" stop-color="#D66100"/>
<stop offset="0.76" stop-color="#B63D00"/>
<stop offset="0.9" stop-color="#9E2200"/>
</linearGradient>
<linearGradient id="paint18_linear_220_17261" x1="39.7801" y1="74.1507" x2="39.7801" y2="88.4061" gradientUnits="userSpaceOnUse">
<stop stop-color="#F9EE96"/>
<stop offset="0.98" stop-color="#F9CE15"/>
</linearGradient>
<linearGradient id="paint19_linear_220_17261" x1="39.7801" y1="74.1043" x2="39.7801" y2="88.9598" gradientUnits="userSpaceOnUse">
<stop offset="0.13" stop-color="#F9E161"/>
<stop offset="0.88" stop-color="#F9C810"/>
</linearGradient>
<linearGradient id="paint20_linear_220_17261" x1="39.6647" y1="80.72" x2="39.6647" y2="87.9402" gradientUnits="userSpaceOnUse">
<stop stop-color="#FF8F00"/>
<stop offset="0.15" stop-color="#FA8A00"/>
<stop offset="0.33" stop-color="#EC7A00"/>
<stop offset="0.54" stop-color="#D66100"/>
<stop offset="0.76" stop-color="#B63D00"/>
<stop offset="0.9" stop-color="#9E2200"/>
</linearGradient>
<linearGradient id="paint21_linear_220_17261" x1="60.2186" y1="75.6107" x2="60.2186" y2="89.8661" gradientUnits="userSpaceOnUse">
<stop stop-color="#F9EE96"/>
<stop offset="0.98" stop-color="#F9CE15"/>
</linearGradient>
<linearGradient id="paint22_linear_220_17261" x1="60.2186" y1="75.5642" x2="60.2186" y2="90.4198" gradientUnits="userSpaceOnUse">
<stop offset="0.13" stop-color="#F9E161"/>
<stop offset="0.88" stop-color="#F9C810"/>
</linearGradient>
<linearGradient id="paint23_linear_220_17261" x1="60.1031" y1="82.18" x2="60.1031" y2="89.4002" gradientUnits="userSpaceOnUse">
<stop stop-color="#FF8F00"/>
<stop offset="0.15" stop-color="#FA8A00"/>
<stop offset="0.33" stop-color="#EC7A00"/>
<stop offset="0.54" stop-color="#D66100"/>
<stop offset="0.76" stop-color="#B63D00"/>
<stop offset="0.9" stop-color="#9E2200"/>
</linearGradient>
</defs>
</svg>
