<svg width="94" height="93" viewBox="0 0 94 93" fill="none" xmlns="http://www.w3.org/2000/svg">
<path d="M47.419 64.9451C63.6667 64.9451 76.8381 51.8156 76.8381 35.6196C76.8381 19.4236 63.6667 6.29419 47.419 6.29419C31.1714 6.29419 18 19.4236 18 35.6196C18 51.8156 31.1714 64.9451 47.419 64.9451Z" fill="url(#paint0_linear_158_972)"/>
<path d="M47.798 61.3051C61.9218 61.3051 73.3714 49.892 73.3714 35.8131C73.3714 21.7342 61.9218 10.321 47.798 10.321C33.6742 10.321 22.2246 21.7342 22.2246 35.8131C22.2246 49.892 33.6742 61.3051 47.798 61.3051Z" fill="url(#paint1_linear_158_972)"/>
<path fill-rule="evenodd" clip-rule="evenodd" d="M68.8262 0L66.8335 2.61251C65.9006 3.83557 63.575 6.80756 61.2156 9.82286L60.9532 10.1582C58.5028 13.2898 56.0707 16.3993 55.1632 17.5957C54.5723 18.3762 53.8697 19.2765 53.1337 20.2197C51.9173 21.7784 50.6095 23.4543 49.5633 24.8999C50.1961 24.745 51.0443 24.5416 52.0335 24.3075C54.0774 23.8237 56.7257 23.2085 59.3239 22.6193C61.9214 22.0303 64.4716 21.4668 66.3179 21.0869C67.2395 20.8972 67.9926 20.7519 68.4899 20.6723C68.7322 20.6335 68.9366 20.6064 69.0722 20.6016C69.1075 20.6004 69.1498 20.6001 69.193 20.604L69.1947 20.6041C69.2209 20.6064 69.3203 20.6152 69.4193 20.6737C69.4781 20.7084 69.5808 20.7872 69.6275 20.9338C69.6764 21.0871 69.6339 21.2184 69.5948 21.2922C69.5346 21.4058 69.4406 21.467 69.4187 21.4814L69.4168 21.4825C67.8694 22.4994 65.3063 24.815 62.4787 27.4825C61.3545 28.543 60.1907 29.6571 59.0396 30.7589C57.3155 32.4092 55.6202 34.032 54.1302 35.406L54.1301 35.4061C50.6094 38.6511 44.5638 45.5264 39.1582 51.8793C34.9435 56.8327 31.1369 61.4458 29.2411 63.7433C28.7077 64.3897 28.3255 64.8529 28.1281 65.0887L25.5244 68.1987L27.3727 64.5912C32.3459 54.8846 39.7853 44.4035 46.4799 35.6185C44.1098 36.3526 40.9719 37.5186 37.8255 38.7283C36.4834 39.2443 35.1401 39.7682 33.8578 40.2683C31.548 41.1691 29.4359 41.9928 27.8844 42.5547L26.5341 43.0438L27.3551 41.8685C35.1362 30.7292 54.0504 11.0985 66.1968 1.97505L68.8262 0ZM28.9606 41.1866C30.2798 40.6885 31.8396 40.0802 33.5088 39.4292C34.7936 38.9282 36.1431 38.4018 37.4976 37.881C41.2633 36.4332 45.0702 35.0269 47.5634 34.3569L48.8587 34.0088L48.0438 35.0712C42.0702 42.8585 35.4077 52.0762 30.3894 60.925C32.4538 58.4309 35.3497 54.9514 38.4635 51.2919C43.8602 44.9494 49.9425 38.029 53.5116 34.7394C54.9979 33.3688 56.6796 31.7589 58.3969 30.1151C59.5489 29.0123 60.7168 27.8943 61.8525 26.8229C63.9477 24.8463 65.9407 23.0209 67.494 21.7767C67.1946 21.8352 66.8625 21.9021 66.5021 21.9762C64.6649 22.3543 62.122 22.9162 59.526 23.5048C56.9306 24.0933 54.2851 24.7079 52.2439 25.191C51.2233 25.4326 50.3544 25.6411 49.7189 25.7969C49.401 25.8749 49.1425 25.9394 48.953 25.9881C48.8582 26.0125 48.7819 26.0326 48.7247 26.0483C48.6961 26.0561 48.6735 26.0626 48.6562 26.0676C48.6513 26.0691 48.647 26.0704 48.6433 26.0715C48.6406 26.0723 48.6383 26.073 48.6363 26.0737C48.6319 26.075 48.63 26.0757 48.63 26.0757L47.3206 26.5346L48.1028 25.3914C49.2347 23.737 50.9221 21.5745 52.4428 19.6256C53.1722 18.6908 53.8633 17.8051 54.4362 17.0484L54.4365 17.048C55.3494 15.8445 57.7875 12.7274 60.2349 9.59965L60.4914 9.27188C61.6846 7.747 62.8676 6.23509 63.8663 4.95489C52.3161 14.3358 36.4993 30.8517 28.9606 41.1866ZM68.9156 20.7242L68.9154 20.7243L68.9156 20.7242Z" fill="url(#paint2_linear_158_972)"/>
<path d="M27.7858 64.8135C29.5721 62.6798 46.7387 41.623 53.8284 35.0884C58.7964 30.5071 65.9979 23.206 69.1736 21.1192C70.0638 20.5347 49.2026 25.412 48.4865 25.663C50.1542 23.2256 53.0218 19.6959 54.8073 17.3376C56.6277 14.9376 64.5478 4.88436 66.4784 2.35339C54.3694 11.4487 35.4892 31.0448 27.7363 42.1436C32.5516 40.3996 42.7573 36.1365 47.6894 34.8111C40.7875 43.8086 32.9484 54.7372 27.7858 64.8135Z" fill="url(#paint3_linear_158_972)"/>
<path d="M32.6586 31.5287C32.5291 23.8585 38.1079 20.1299 40.9136 19.2244C44.2587 18.7983 51.1755 18.0419 52.0819 18.4254C61.4699 21.7812 61.9555 29.4514 62.1173 30.4101C62.6029 34.405 62.1173 43.3536 61.1462 44.632C52.5675 53.1012 41.3991 49.7455 40.1042 49.2661C28.612 45.1114 32.4967 33.4463 32.6586 31.5287Z" fill="#DFE2EC" stroke="#466086"/>
<path d="M40.1183 22.6951L40.7069 20.8067C40.7335 20.7212 40.8138 20.6638 40.9033 20.6663L52.2944 20.9786C52.3638 20.9805 52.4272 21.0183 52.462 21.0784L53.0152 22.0341C53.0398 22.0767 53.0482 22.1255 53.0382 22.1737C52.6541 24.0132 51.8522 27.769 51.5967 28.6519C51.1111 29.7705 50.6255 29.9303 50.14 29.7705C48.3725 29.136 43.8933 29.6038 43.1947 29.7669C43.1835 29.7695 43.1743 29.773 43.1638 29.7775C42.0271 30.2659 41.3146 29.4759 41.0868 28.9957C41.0792 28.9795 41.0743 28.9625 41.0715 28.9448L40.1116 22.7854C40.1069 22.7552 40.1092 22.7243 40.1183 22.6951Z" fill="#99A2C2" stroke="#466086"/>
<path d="M41.8838 29.6108C41.3444 27.2138 40.6864 21.6849 40.6864 21.3014L40.2656 22.7396C40.5353 24.5506 41.1071 28.4603 41.2366 28.9716C41.2979 29.2139 41.5602 29.451 41.8838 29.6108Z" fill="#D9D9D9"/>
<path d="M51.7586 17.7863C47.3883 16.1879 43.1799 17.3071 41.7231 18.1059L40.752 20.503L42.5324 25.2969H50.3018L52.5679 20.503C52.3521 19.7573 51.8881 18.1698 51.7586 17.7863Z" fill="#DFE2EC" stroke="#466086"/>
<path d="M50.668 17.5081C47.5528 16.8465 44.069 17.1607 42.4114 17.9509C42.0745 18.1115 41.9464 18.5418 42.013 18.909C42.1 19.388 42.5552 19.5574 43.0174 19.4046C45.9192 18.4459 48.594 18.7369 50.083 19.1479C50.496 19.2619 50.8626 19.2595 51.0852 18.8933C51.3811 18.4066 51.2252 17.6264 50.668 17.5081Z" fill="white"/>
<path d="M43.232 22.8947L41.9178 19.0025C41.7978 18.6469 41.2982 18.6375 41.1649 18.9884L40.7256 20.1451C40.6382 20.3752 40.6387 20.6294 40.7271 20.8592L42.1395 24.531C42.2733 24.879 42.7685 24.8707 42.8907 24.5185L43.2293 23.5423C43.302 23.3327 43.303 23.1049 43.232 22.8947Z" fill="url(#paint4_linear_158_972)" stroke="#466086"/>
<path d="M48.8914 23.0591H43.4819C43.3976 23.0591 43.3224 23.1118 43.2938 23.191L42.6292 25.0282C42.582 25.1586 42.6786 25.2962 42.8173 25.2962H49.9548C50.1088 25.2962 50.205 25.1294 50.1279 24.996L49.0645 23.1589C49.0287 23.0971 48.9628 23.0591 48.8914 23.0591Z" fill="url(#paint5_linear_158_972)" stroke="#466086"/>
<path d="M49.2667 22.5603L51.52 18.2421C51.6044 18.0803 51.8436 18.1068 51.8906 18.2831L52.4724 20.4658C52.5337 20.6957 52.511 20.9399 52.4084 21.1546L50.5582 25.0259C50.4896 25.1695 50.289 25.1793 50.2066 25.0432L49.2976 23.5406C49.1168 23.2417 49.1051 22.8701 49.2667 22.5603Z" fill="url(#paint6_linear_158_972)"/>
<path d="M49.2667 22.5603L51.52 18.2421C51.6044 18.0803 51.8436 18.1068 51.8906 18.2831L52.4724 20.4658C52.5337 20.6957 52.511 20.9399 52.4084 21.1546L50.5582 25.0259C50.4896 25.1695 50.289 25.1793 50.2066 25.0432L49.2976 23.5406C49.1168 23.2417 49.1051 22.8701 49.2667 22.5603Z" fill="url(#paint7_linear_158_972)"/>
<path d="M49.2667 22.5603L51.52 18.2421C51.6044 18.0803 51.8436 18.1068 51.8906 18.2831L52.4724 20.4658C52.5337 20.6957 52.511 20.9399 52.4084 21.1546L50.5582 25.0259C50.4896 25.1695 50.289 25.1793 50.2066 25.0432L49.2976 23.5406C49.1168 23.2417 49.1051 22.8701 49.2667 22.5603Z" stroke="#466086"/>
<path d="M28.9355 37.1212C28.9356 42.3945 31.9571 44.2587 33.6297 44.4718C35.0863 36.3222 33.144 32.4871 32.8202 31.5283C28.9355 32.3273 28.9355 35.5232 28.9355 37.1212Z" fill="#C4C7D4" stroke="#466086"/>
<path d="M31.3636 22.4196L31.8491 31.5283H32.8203C32.6908 27.9489 34.2231 25.1365 35.0864 23.8581L34.1152 22.8993C33.9533 21.9404 33.5972 19.9268 33.4677 19.5433C33.144 18.5845 31.8492 18.7443 31.5254 18.9041C30.7485 19.4155 30.7701 21.0347 30.878 21.7804L31.3636 22.4196Z" fill="#DFE2EC" stroke="#466086"/>
<path d="M31.04 20.9819L32.3353 21.7812L33.6306 20.6622" stroke="#466086" stroke-linecap="round"/>
<path d="M33.4679 26.5756C32.9824 25.1372 32.4968 23.2192 32.335 21.7808" stroke="#466086" stroke-linecap="round"/>
<path d="M41.2372 18.9042C36.9276 20.5879 34.4901 24.028 33.7936 25.6108C33.7922 25.614 33.7912 25.617 33.7903 25.6203L33.5245 26.6699C33.5086 26.7328 33.5876 26.7791 33.6361 26.7354C35.0487 25.4603 38.4646 23.576 40.0798 22.7515C40.0959 22.7433 40.1067 22.7301 40.1116 22.7129C40.372 21.7894 40.9534 19.835 41.3409 18.883C41.3622 18.8306 41.2903 18.8834 41.2372 18.9042Z" fill="#99A2C2"/>
<path d="M32.9817 31.3685C32.8522 22.6756 38.5389 19.5969 41.3984 18.9044C36.8663 21.4612 36.057 26.255 35.0859 31.2087C34.3089 35.1717 34.978 42.7673 35.0859 45.91C34.8701 45.8034 33.9205 44.8233 33.791 44.312C35.4096 36.3222 33.4673 32.4871 32.9817 31.3685Z" fill="white"/>
<path d="M41.2372 19.0642C38.3776 19.8099 32.8203 23.3148 32.8203 31.3685" stroke="#466086"/>
<path d="M33.6298 44.4718C35.4103 37.1212 33.6298 33.2861 32.8205 31.3685C30.0688 32.3273 29.7451 33.4459 29.7451 33.6057C30.2307 34.5644 30.3926 40.9563 30.2307 41.9151C30.8782 43.513 33.1442 44.4718 33.6298 44.4718Z" fill="url(#paint8_linear_158_972)" stroke="#466086"/>
<path d="M65.7871 37.1212C65.7871 42.3945 62.6027 43.6728 61.093 44.4718C59.6364 36.3222 61.5787 32.4871 61.9024 31.5283C65.7871 32.3273 65.7871 35.5232 65.7871 37.1212Z" fill="#C4C7D4" stroke="#466086"/>
<path d="M63.3591 22.4196L62.8735 31.5283H61.9552C61.9552 27.853 60.4996 25.1365 59.6363 23.8581L60.6075 22.8993C60.7693 21.9404 61.1254 19.9268 61.2549 19.5433C61.5787 18.5845 62.8735 18.7443 63.1972 18.9041C63.9742 19.4155 63.9526 21.0347 63.8447 21.7804L63.3591 22.4196Z" fill="#DFE2EC" stroke="#466086"/>
<path d="M63.6826 20.9819L62.3873 21.7812L61.092 20.6622" stroke="#466086" stroke-linecap="round"/>
<path d="M61.2547 27.5346C61.5784 26.3625 62.3877 23.5709 62.3877 21.7808" stroke="#466086" stroke-linecap="round"/>
<path d="M52.3986 20.952L51.8358 18.4519C51.8016 18.2998 51.9511 18.1706 52.0982 18.2223C58.6463 20.5225 60.3998 24.2355 61.0044 26.145C61.0718 26.3576 60.7132 26.5518 60.5525 26.3971C58.3469 24.2735 54.7905 22.6689 53.1243 22.1235C53.0771 22.1081 53.0389 22.0765 53.014 22.0335L52.4206 21.0083C52.4104 20.9907 52.403 20.9717 52.3986 20.952Z" fill="#99A2C2" stroke="#466086"/>
<path d="M61.0928 44.4718C59.8507 37.1212 60.9837 33.7655 62.1168 31.5283C63.7882 32.1675 65.0303 33.2861 65.0303 33.4459C64.5447 34.4047 64.221 40.9563 64.3828 41.9151C63.7354 43.0336 62.1168 43.9924 61.0928 44.4718Z" fill="url(#paint9_linear_158_972)" stroke="#466086"/>
<path d="M35.896 35.5229C35.7666 31.56 39.2952 29.5039 41.0756 28.9713C41.2375 28.8647 41.6583 28.6517 42.0468 28.6517C45.9315 27.8527 53.0534 28.6517 53.8628 28.9713C57.7474 30.2496 58.233 34.4043 58.3949 35.5229C58.7186 40.6364 57.4237 43.0483 55.6432 44.3117C50.4636 47.987 42.8561 46.7086 41.5612 46.2292C35.8961 43.5127 36.0579 38.2394 35.896 35.5229Z" fill="white" stroke="#466086"/>
<path d="M43.9889 35.3634C43.8594 33.0623 41.8847 32.1675 40.9135 32.0077C39.1331 32.0077 38.1619 34.085 38.1619 34.7242C38 38.0799 39.9424 39.3583 40.9135 39.1985C41.8847 39.0387 44.1508 38.2397 43.9889 35.3634Z" fill="#292929"/>
<path d="M56.4616 35.0438C56.3321 32.7428 54.3574 31.8479 53.3862 31.6881C51.6057 31.6881 50.6345 33.7655 50.6345 34.4046C50.4727 37.7604 52.415 39.0387 53.3862 38.8789C54.3574 38.7191 56.6234 37.9202 56.4616 35.0438Z" fill="#292929"/>
<path d="M38.9713 35.6833C38.4856 35.2038 39.2952 32.6469 40.7521 32.8063C40.913 32.824 41.1141 33.1071 40.752 33.2858C39.7809 33.7653 39.7809 36.3226 38.9713 35.6833Z" fill="white"/>
<path d="M51.4439 35.3637C50.9582 34.8842 51.7679 32.3273 53.2248 32.4868C53.3856 32.5044 53.5868 32.7875 53.2247 32.9663C52.2535 33.4457 52.2535 36.003 51.4439 35.3637Z" fill="white"/>
<path d="M40.914 30.0901C39.7807 30.0901 38.8094 31.2089 38.6475 31.8482C38.9713 31.6884 39.6188 31.3687 40.4283 31.0491C41.2378 30.7294 42.8568 31.5286 43.3424 31.6884C43.8281 31.8482 42.6949 30.0901 40.914 30.0901Z" fill="#292929"/>
<path d="M52.8915 29.7705C51.7583 29.7705 50.7869 30.8893 50.625 31.5286C50.9488 31.3688 51.5964 31.0491 52.4059 30.7295C53.2153 30.4098 54.8343 31.209 55.32 31.3688C55.8057 31.5286 54.6724 29.7705 52.8915 29.7705Z" fill="#292929"/>
<path d="M47.0648 38.08C46.0934 38.08 45.284 38.8791 45.1221 39.0389C46.2553 38.8791 47.9822 39.1455 48.6838 39.5184L49.3314 38.8791C48.8457 38.666 47.3239 38.2078 47.0648 38.08Z" fill="#292929"/>
<path d="M51.2723 40.6367C48.294 42.1708 44.8518 41.489 43.5029 40.9563C43.5569 41.3292 43.7943 42.2986 44.3122 43.1935C45.2834 44.4718 47.8732 44.312 48.6825 44.1522C51.7579 43.6728 51.4342 41.1161 51.2723 40.6367Z" fill="#292929"/>
<path d="M48.0359 42.3941C46.6112 42.2662 45.8233 43.0867 45.6074 43.5129C48.1978 44.1519 49.8167 43.3532 50.3024 42.874C50.1405 42.7673 49.4605 42.522 48.0359 42.3941Z" fill="#D33F79"/>
<path d="M60.6925 35.2042C60.6925 31.2412 58.9336 26.6071 58.0703 24.6896C58.5559 24.9767 60.4011 26.2551 61.0486 27.0541C61.3723 27.5334 61.7931 29.7711 61.7931 31.5288C61.4694 32.4344 61.0162 33.1268 60.6925 35.2042Z" fill="#99A2C2"/>
<path d="M39.942 53.5801C38.3881 51.4069 39.2945 49.9048 39.942 49.4254C41.1829 49.7983 44.4741 50.544 47.7113 50.544C51.7579 50.544 54.3477 49.1059 55.3189 48.6265C56.7756 48.9461 57.7468 50.3842 57.4231 51.343C55.8044 55.6575 50.9486 56.4565 49.6537 56.6163C43.5029 56.9359 40.9131 54.8585 39.942 53.5801Z" fill="#99A2C2" stroke="#466086"/>
<path d="M39.8317 51.5865C39.1333 51.0386 39.1825 49.3903 39.8317 49.1039C41.0761 49.3267 44.3764 49.7723 47.6226 49.7723C51.6803 49.7723 54.2772 48.9129 55.2511 48.6265C56.7119 48.8174 57.3611 50.0646 57.3611 50.2497C55.738 52.8277 50.8687 53.3052 49.5703 53.4006C43.4025 53.5916 40.8056 52.3503 39.8317 51.5865Z" fill="#DFE2EC" stroke="#466086"/>
<path d="M41.3993 18.2653L40.1044 22.7396C38.5937 23.5385 35.1838 25.4561 33.6299 26.7345" stroke="#466086" stroke-linecap="round"/>
<path d="M79.1963 67.9819C78.8558 67.8416 78.4739 67.842 78.1336 67.9828C77.7933 68.1237 77.5222 68.3937 77.3792 68.7341L70.4776 85.3684C70.3379 85.7101 70.3382 86.0934 70.4786 86.4349C70.6189 86.7764 70.8879 87.0485 71.2271 87.192L84.5612 92.7494C86.3459 93.4907 87.5537 92.5383 87.2572 90.6227L86.8582 88.0686L86.4592 85.5199L85.92 82.0404L88.7615 79.9787L90.8482 78.469L92.9348 76.9538C94.4985 75.8175 94.3205 74.2806 92.5358 73.5393L79.1963 67.9819Z" fill="url(#paint10_linear_158_972)"/>
<path d="M14.804 67.9819C15.1445 67.8416 15.5264 67.842 15.8667 67.9828C16.207 68.1237 16.4781 68.3937 16.621 68.7341L23.5227 85.3684C23.6639 85.71 23.6643 86.0939 23.5238 86.4358C23.3833 86.7777 23.1133 87.0496 22.7732 87.192L9.43904 92.7494C7.65972 93.4907 6.44655 92.5383 6.7431 90.6227L7.1421 88.0686L7.5411 85.5199L8.08029 82.0404L5.23876 79.9787L3.1521 78.469L1.06544 76.9538C-0.498202 75.8175 -0.320271 74.2806 1.46444 73.5393L14.804 67.9819Z" fill="url(#paint11_linear_158_972)"/>
<g filter="url(#filter0_d_158_972)">
<path d="M80.7382 83.5743C80.306 84.4245 79.57 85.0797 78.6773 85.4088C77.7846 85.7378 76.801 85.7165 75.9232 85.3492C57.3516 77.9628 36.6722 77.9628 18.1006 85.3492C17.2229 85.7165 16.2393 85.7378 15.3466 85.4088C14.4538 85.0797 13.7178 84.4245 13.2857 83.5743L7.61881 71.0255C6.81003 69.2722 8.06095 66.9508 10.4388 66.0038C33.9182 56.6654 60.0625 56.6654 83.5419 66.0038C85.9198 66.9508 87.1707 69.2506 86.3619 71.0255L80.7382 83.5743Z" fill="url(#paint12_linear_158_972)"/>
</g>
<path d="M55.0748 82.7364V81.0843H51.5849L50.1839 80.7083L49.1939 79.177L47.961 77.2674C47.416 76.4265 46.526 76.4265 45.981 77.2674L44.7481 79.177L43.7581 80.7083L42.3572 81.0843H38.8627V82.7364C38.8545 83.0718 38.9738 83.3977 39.1965 83.6479L40.6247 85.4162L41.76 86.8336L41.5329 90.9354C41.4807 91.9381 42.2005 92.4622 43.1223 92.1044L46.9347 90.6323L50.747 92.1044C51.6802 92.4622 52.4 91.9381 52.3478 90.9354L52.1344 86.8336L53.2696 85.4162L54.6979 83.6479C54.9363 83.4045 55.0714 83.0777 55.0748 82.7364Z" fill="#FFAA17"/>
<path d="M54.1313 79.9864L50.1851 78.9267L49.1951 77.3954L47.9621 75.4881C47.4172 74.6472 46.5271 74.6472 45.9822 75.4881L44.7492 77.3954L43.7593 78.9267L39.813 79.9864C38.8479 80.2461 38.5732 81.0961 39.2022 81.8755L40.6304 83.6438L41.7657 85.0589L41.5386 89.1607C41.4864 90.1611 42.2062 90.6875 43.128 90.3297L46.9722 88.8599L50.7845 90.332C51.7177 90.6897 52.4375 90.1633 52.3853 89.163L52.1718 85.0612L53.3071 83.6461L54.7353 81.8777C55.3711 81.0961 55.0964 80.2461 54.1313 79.9864Z" fill="#FFDA33"/>
<g style="mix-blend-mode:overlay" opacity="0.2">
<path d="M42.7769 79.1992L39.8251 79.99C39.5287 80.0576 39.2633 80.2229 39.0713 80.4594L46.1669 89.1688L46.9843 88.8544L50.7967 90.3264C50.9612 90.4009 51.1396 90.4393 51.32 90.4393C51.5005 90.4393 51.6789 90.4009 51.8434 90.3264L42.7769 79.1992Z" fill="white"/>
</g>
<g style="mix-blend-mode:overlay" opacity="0.2">
<path d="M53.3233 83.6479L46.3525 75.0957C46.2074 75.2101 46.0823 75.3479 45.9824 75.5036L44.7881 77.3494L52.247 86.5009L52.188 85.0744L53.3233 83.6593V83.6479Z" fill="white"/>
</g>
<path d="M37.6287 83.8167L37.2972 82.7685L35.0856 83.4726L34.1229 83.5182L33.1874 82.748L32.0203 81.7863C31.4981 81.3648 30.9441 81.5379 30.767 82.1874L30.3628 83.6458L30.0426 84.8148L29.2275 85.3366L27.0137 86.0431L27.3452 87.089C27.4069 87.3048 27.5482 87.4889 27.7403 87.604L29.0004 88.4358L30.0086 89.1035L30.6898 91.7423C30.8578 92.3872 31.4186 92.574 31.9386 92.1593L34.0593 90.457L36.7704 90.6188C37.4357 90.6576 37.7854 90.179 37.5515 89.5546L36.6069 87.007L37.0474 85.8676L37.5992 84.4593C37.69 84.2567 37.7005 84.0269 37.6287 83.8167Z" fill="#FFAA17"/>
<path d="M36.4741 82.2405L33.7676 82.3658L32.8321 81.5956L31.6673 80.6339C31.1541 80.2101 30.591 80.3901 30.4139 81.0327L30.0097 82.4934L29.6805 83.6624L27.4099 85.1322C26.8513 85.49 26.8468 86.0848 27.4099 86.4516L28.6701 87.2834L29.6782 87.9511L30.3594 90.5876C30.5274 91.2325 31.0905 91.4216 31.6082 91.0046L33.7312 89.3024L36.4423 89.4664C37.1053 89.5052 37.4573 89.0266 37.2234 88.4023L36.2493 85.8432L36.6898 84.7038L37.2416 83.3138C37.4845 82.6917 37.1394 82.2086 36.4741 82.2405Z" fill="#FFDA33"/>
<g style="mix-blend-mode:overlay" opacity="0.2">
<path d="M29.114 84.041L27.4111 85.1394C27.2358 85.2438 27.1007 85.4043 27.0273 85.5951L33.2715 89.681L33.7256 89.3164L36.4367 89.4804C36.5559 89.4944 36.6766 89.4827 36.791 89.4462C36.9053 89.4096 37.0105 89.3491 37.0997 89.2685L29.114 84.041Z" fill="white"/>
</g>
<g style="mix-blend-mode:overlay" opacity="0.2">
<path d="M36.6883 84.6809L30.5577 80.668C30.4887 80.7695 30.4373 80.882 30.4055 81.0007L30.0195 82.4135L36.577 86.7181L36.2432 85.8203L36.6837 84.6809H36.6883Z" fill="white"/>
</g>
<path d="M56.3433 83.8087L56.6748 82.7605L58.8864 83.4669L59.8491 83.5102L60.7823 82.74L61.9471 81.7852C62.4626 81.3636 63.0257 81.5413 63.2028 82.1862L63.6024 83.6446L63.9225 84.8136L64.7354 85.3355L66.9493 86.0419L66.6177 87.0879C66.556 87.3036 66.4147 87.4878 66.2227 87.6029L64.9625 88.4346L63.9543 89.1023L63.2732 91.7411C63.1051 92.386 62.5443 92.5729 62.0243 92.1581L59.8968 90.4445L57.1857 90.6063C56.5204 90.645 56.1707 90.1665 56.4046 89.5421L57.3605 86.9921L56.92 85.8528L56.3728 84.4582C56.2791 84.2538 56.2685 84.0208 56.3433 83.8087Z" fill="#FFAA17"/>
<path d="M57.4779 82.245L60.1913 82.3704L61.1268 81.6001L62.2916 80.6339C62.8048 80.2101 63.3679 80.3901 63.545 81.0327L63.9446 82.4934L64.2648 83.6624L66.5535 85.1322C67.1121 85.49 67.1166 86.0847 66.5535 86.4516L65.2933 87.2834L64.3056 87.9556L63.6245 90.5922C63.4564 91.2393 62.8956 91.4262 62.3756 91.0114L60.2549 89.3069L57.5438 89.471C56.8808 89.5097 56.5288 89.0312 56.7627 88.4068L57.7209 85.8546L57.2668 84.7357L56.715 83.3274C56.4698 82.6962 56.8127 82.2131 57.4779 82.245Z" fill="#FFDA33"/>
<g style="mix-blend-mode:overlay" opacity="0.2">
<path d="M64.8604 84.043L66.5724 85.1413C66.7477 85.2457 66.8828 85.4063 66.9562 85.5971L60.712 89.6829L60.2579 89.3183L57.5468 89.4824C57.4278 89.4962 57.3073 89.4847 57.193 89.4486C57.0788 89.4124 56.9734 89.3525 56.8838 89.2727L64.8604 84.043Z" fill="white"/>
</g>
<g style="mix-blend-mode:overlay" opacity="0.2">
<path d="M57.251 84.6809L63.3816 80.668C63.4506 80.7695 63.502 80.882 63.5337 81.0007L63.9197 82.4135L57.3554 86.709L57.6892 85.818L57.251 84.6991V84.6809Z" fill="white"/>
</g>
<path d="M21.464 77.2908L19.5391 69.715L21.5448 69.1738L22.9953 74.9369L26.1172 74.1414L26.5809 75.9921L21.464 77.2908Z" fill="white"/>
<path d="M27.6347 75.7718L26.249 68.0499L31.4037 67.1191L31.7434 68.9915L28.6161 69.5326L28.8102 70.6148L31.339 70.1603L31.6679 71.9785L29.1391 72.4384L29.3332 73.5207L32.5306 72.9417L32.8703 74.814L27.6347 75.7718Z" fill="white"/>
<path d="M36.5976 74.3615L32.8232 66.8452L35.0501 66.6287L38.571 74.1667L36.5976 74.3615ZM36.8294 74.3615L38.7975 66.2824L41.0243 66.0605L38.819 74.1775L36.8294 74.3615Z" fill="white"/>
<path d="M42.6695 73.8739L42.5293 66.0275L47.7702 65.9355L47.8026 67.8403L44.6321 67.8944V68.9767L47.2041 68.9334L47.2364 70.7786L44.6699 70.8274V71.9096L47.905 71.8501L47.9374 73.7549L42.6695 73.8739Z" fill="white"/>
<path d="M49.4238 73.8292L49.8228 65.9883L51.8879 66.0965L51.586 72.0489L54.8211 72.2167L54.7241 74.116L49.4238 73.8292Z" fill="white"/>
<path d="M61.7879 75.1186C61.1747 75.0385 60.5891 74.8141 60.0787 74.4638C59.6404 74.1492 59.3061 73.7101 59.1189 73.203C58.9308 72.644 58.8881 72.0461 58.9949 71.466L59.739 66.7148L61.7825 67.0395L61.033 71.7852C60.9931 72.0166 61.0097 72.2543 61.0815 72.4779C61.1539 72.6741 61.2835 72.8438 61.4536 72.9649C61.6487 73.1027 61.8746 73.19 62.1114 73.2192C62.3466 73.2623 62.5885 73.2493 62.8177 73.1813C63.0173 73.1194 63.1926 72.9964 63.3192 72.8296C63.4556 72.6414 63.5427 72.4218 63.5726 72.1911L64.3221 67.44L66.3602 67.7646L65.6107 72.5157C65.5379 73.1056 65.311 73.6657 64.9529 74.1391C64.6144 74.5646 64.1559 74.8776 63.6373 75.0374C63.036 75.2116 62.402 75.2395 61.7879 75.1186Z" fill="white"/>
<path d="M66.4619 75.7964L68.3005 68.1719L71.4494 68.9349C71.9783 69.0509 72.4719 69.2921 72.889 69.6383C73.2609 69.9545 73.5404 70.3659 73.6978 70.8288C73.8531 71.305 73.868 71.8161 73.741 72.3007C73.6321 72.7929 73.3851 73.2436 73.0292 73.5994C72.6824 73.9465 72.2451 74.1885 71.7675 74.2975C71.2366 74.4312 70.6809 74.4312 70.15 74.2975L69.0123 74.0215L68.4731 76.3105L66.4619 75.7964ZM69.4706 72.1438L70.549 72.4089C70.79 72.4785 71.0483 72.4533 71.2715 72.3386C71.3741 72.284 71.4632 72.2071 71.5322 72.1135C71.6013 72.0198 71.6485 71.9118 71.6705 71.7974C71.7012 71.6876 71.7069 71.5722 71.6873 71.4599C71.6677 71.3475 71.6233 71.2409 71.5572 71.1481C71.4113 70.9448 71.1932 70.8053 70.948 70.7585L69.8696 70.4933L69.4706 72.1438Z" fill="white"/>
<defs>
<filter id="filter0_d_158_972" x="7.37305" y="59" width="83.2344" height="30.641" filterUnits="userSpaceOnUse" color-interpolation-filters="sRGB">
<feFlood flood-opacity="0" result="BackgroundImageFix"/>
<feColorMatrix in="SourceAlpha" type="matrix" values="0 0 0 0 0 0 0 0 0 0 0 0 0 0 0 0 0 0 127 0" result="hardAlpha"/>
<feOffset dx="2" dy="2"/>
<feGaussianBlur stdDeviation="1"/>
<feComposite in2="hardAlpha" operator="out"/>
<feColorMatrix type="matrix" values="0 0 0 0 0 0 0 0 0 0 0 0 0 0 0 0 0 0 0.12 0"/>
<feBlend mode="normal" in2="BackgroundImageFix" result="effect1_dropShadow_158_972"/>
<feBlend mode="normal" in="SourceGraphic" in2="effect1_dropShadow_158_972" result="shape"/>
</filter>
<linearGradient id="paint0_linear_158_972" x1="13.7239" y1="-12.6382" x2="84.8607" y2="80.9408" gradientUnits="userSpaceOnUse">
<stop stop-color="#F1D8A7"/>
<stop offset="1" stop-color="#F1A7D8"/>
</linearGradient>
<linearGradient id="paint1_linear_158_972" x1="18.5075" y1="-6.13655" x2="80.3454" y2="75.2099" gradientUnits="userSpaceOnUse">
<stop stop-color="#F9EFDC"/>
<stop offset="1" stop-color="#F9DCEF"/>
</linearGradient>
<linearGradient id="paint2_linear_158_972" x1="67.9539" y1="-2.18013" x2="22.069" y2="71.3651" gradientUnits="userSpaceOnUse">
<stop stop-color="#FEDFD7"/>
<stop offset="1" stop-color="#FEE6C3"/>
</linearGradient>
<linearGradient id="paint3_linear_158_972" x1="67.6079" y1="0.356716" x2="26.0675" y2="68.6731" gradientUnits="userSpaceOnUse">
<stop stop-color="#FDAF9B"/>
<stop offset="1" stop-color="#FCC573"/>
</linearGradient>
<linearGradient id="paint4_linear_158_972" x1="42.5322" y1="25.4561" x2="43.8437" y2="24.9659" gradientUnits="userSpaceOnUse">
<stop stop-color="#6C899D"/>
<stop offset="1" stop-color="#7C98DA"/>
</linearGradient>
<linearGradient id="paint5_linear_158_972" x1="50.3016" y1="25.1364" x2="50.2783" y2="22.9839" gradientUnits="userSpaceOnUse">
<stop stop-color="#6C899D"/>
<stop offset="1" stop-color="#7C98DA"/>
</linearGradient>
<linearGradient id="paint6_linear_158_972" x1="52.2437" y1="19.2241" x2="53.3172" y2="20.1595" gradientUnits="userSpaceOnUse">
<stop stop-color="#4086B5"/>
<stop offset="1" stop-color="#5286FF"/>
</linearGradient>
<linearGradient id="paint7_linear_158_972" x1="50.1395" y1="25.1365" x2="49.3272" y2="18.0845" gradientUnits="userSpaceOnUse">
<stop stop-color="#6C899D"/>
<stop offset="1" stop-color="#7C98DA"/>
</linearGradient>
<linearGradient id="paint8_linear_158_972" x1="32.9824" y1="44.4718" x2="35.359" y2="32.2116" gradientUnits="userSpaceOnUse">
<stop stop-color="#6C899D"/>
<stop offset="1" stop-color="#7C98DA"/>
</linearGradient>
<linearGradient id="paint9_linear_158_972" x1="62.9261" y1="43.513" x2="60.6961" y2="32.4575" gradientUnits="userSpaceOnUse">
<stop stop-color="#6C899D"/>
<stop offset="1" stop-color="#7C98DA"/>
</linearGradient>
<linearGradient id="paint10_linear_158_972" x1="70.4961" y1="81.0188" x2="94.1233" y2="81.0188" gradientUnits="userSpaceOnUse">
<stop stop-color="#F98260"/>
<stop offset="1" stop-color="#ED5168"/>
</linearGradient>
<linearGradient id="paint11_linear_158_972" x1="0.123067" y1="81.0188" x2="23.7519" y2="81.0188" gradientUnits="userSpaceOnUse">
<stop stop-color="#F98260"/>
<stop offset="1" stop-color="#ED5168"/>
</linearGradient>
<linearGradient id="paint12_linear_158_972" x1="7.78573" y1="72.9353" x2="87.0203" y2="72.9353" gradientUnits="userSpaceOnUse">
<stop stop-color="#F98260"/>
<stop offset="1" stop-color="#ED5168"/>
</linearGradient>
</defs>
</svg>
